<?xml version="1.0" encoding="utf-8"?>
<!-- Generator: Adobe Illustrator 23.0.3, SVG Export Plug-In . SVG Version: 6.00 Build 0)  -->
<svg version="1.1" id="Layer_1" xmlns="http://www.w3.org/2000/svg" xmlns:xlink="http://www.w3.org/1999/xlink" x="0px" y="0px"
	 viewBox="0 0 491 241.2" style="enable-background:new 0 0 491 241.2;" xml:space="preserve">
<style type="text/css">
	.st0{fill:#132937;}
	.st1{fill:#FFFFFF;}
	.st2{fill:#D4282F;}
	.st3{fill:#B6B3B6;}
	.st4{fill:#000014;}
</style>
<path class="st0" d="M238.7,241.2c-0.4,0-0.7-0.3-0.7-0.7V0.7c0-0.4,0.3-0.7,0.7-0.7c0.4,0,0.7,0.3,0.7,0.7v239.8
	C239.3,240.9,239,241.2,238.7,241.2"/>
<path class="st1" d="M101.3,229.2c-1.4-0.5-33.8-13.4-55.6-33.2c-8.7-7.9-21-21.5-30.7-41.7C5,133.6,0,110.5,0,85.7V28.3l3.6-0.9
	c0.4-0.1,9.4-2.3,24.7-4.7c0.3,0,34.1-5.9,74.8-5.9c40.6,0,74.6,5.9,74.9,5.9c15.2,2.4,24.2,4.6,24.6,4.7l3.6,0.9v57.3
	c0,24.8-5.1,47.9-15,68.6c-9.7,20.2-22.1,33.9-30.7,41.7c-21.9,19.9-54.3,32.7-55.6,33.2l-1.7,0.7L101.3,229.2z"/>
<path class="st2" d="M119.5,51.6c0,1.8,1.7,3.1,3.9,3.1c2.3,0,3.9-1.3,3.9-3.1c0-1.5-0.9-2.4-2-3v-0.1c0.8-0.5,1.5-1.4,1.5-2.6
	c0-1.8-1.3-3.1-3.4-3.1c-2,0-3.5,1.2-3.5,3.1c0,1.2,0.7,2,1.6,2.7v0.1C120.4,49.3,119.5,50.2,119.5,51.6z M123.4,44.5
	c1,0,1.6,0.7,1.6,1.7c0,0.7-0.3,1.3-0.9,1.9c-1.2-0.5-2.2-1-2.2-2C121.9,45,122.6,44.5,123.4,44.5z M122.5,49.3
	c1.5,0.6,2.6,1,2.6,2.2c0,1-0.7,1.6-1.8,1.6s-2-0.7-2-1.8C121.4,50.5,121.9,49.8,122.5,49.3z"/>
<path class="st2" d="M117.8,52.6h-2.2v-9.5h-1.7c-0.7,0.5-1.5,0.8-2.7,1v1.4h2.1v7.2h-2.5v1.8h7L117.8,52.6L117.8,52.6z"/>
<path class="st2" d="M132.5,52.9c-1.1,0-1.9-0.6-2.6-1.2l-1,1.4c0.9,0.9,2.1,1.6,3.9,1.6c2.1,0,4.1-1.4,4.1-3.9
	c0-2.4-1.6-3.5-3.6-3.5c-0.5,0-1,0.1-1.4,0.3l0.2-2.5h4.2v-1.9h-6.2l-0.3,5.7l1.1,0.7c0.7-0.4,1.1-0.6,1.8-0.6c1.2,0,2,0.7,2,2
	C134.6,52.1,133.7,52.9,132.5,52.9z"/>
<path class="st2" d="M142.2,54.7c2.4,0,3.9-2.1,3.9-5.9s-1.5-5.8-3.9-5.8s-3.9,2-3.9,5.8S139.8,54.7,142.2,54.7z M142.2,44.6
	c1,0,1.8,0.9,1.8,4.1s-0.8,4.2-1.8,4.2s-1.8-1-1.8-4.2C140.5,45.6,141.2,44.6,142.2,44.6z"/>
<path class="st2" d="M172.4,26.6c0,0-31-5.1-69.3-5.1c-36.5,0-66.3,4.6-69.1,5c-0.1,0-0.2,0-0.2,0L164,131l0,0
	c5.1-12.6,8.4-27.7,8.4-45.7v-0.2v-0.5l0,0C172.4,78.1,172.4,26.6,172.4,26.6z M104,32.9c0-0.1,0.1-0.1,0.2-0.1
	c9,0,15.5-1.8,23.8,4.6c0.1,0.1,0.3,0.1,0.4,0c8.2-5.8,14.2-4.6,23.7-4.6c0.1,0,0.1,0.1,0.2,0.1l2.6,27.9c0,0.1-0.1,0.1-0.1,0.1
	c-11.2,0.1-17.5,1.6-26.2,5.8c-0.1,0.1-0.3,0.1-0.4,0c-8.1-3.9-12.6-5.4-26.2-5.8c-0.1,0-0.2-0.1-0.1-0.1L104,32.9z M160.1,65.9
	L160.1,65.9c-16.4-0.3-26.3,4.7-31.4,7.1c-0.1,0.1-0.2,0-0.3,0c-5.5-2.2-12.6-7.1-31.5-7.1l0,0c-1.1,0-0.9-0.1-0.9-0.8l2.8-29
	c0-0.2,0.2-0.3,0.4-0.3h1c0.2,0,0.3,0.2,0.3,0.3c-0.3,3.1-2.3,25.9-2.5,28.1c0,0.1,0.1,0.2,0.2,0.2c15.4,0.1,20.9,2.3,30.3,6.6
	c0.1,0,0.2,0,0.2,0c9.3-4.3,16.6-6.6,30.2-6.6c0.1,0,0.2-0.1,0.2-0.2l-2.9-28c0-0.2,0.1-0.3,0.3-0.3h1c0.2,0,0.4,0.2,0.4,0.3l3.2,29
	C161,65.8,161.2,65.9,160.1,65.9z"/>
<path class="st3" d="M95,186.5c1.2-0.1,2.3-0.1,3.1-0.4c-0.9,0-2.9-1.2-4.4-1.9c2.9,0.1,7.2-1.2,9.2,0.1c0,0,0.7,2.6,1,5.1
	c0.8-0.3,2.2-0.8,4.2-1.6c0.1-2.1,0.1-4.1-0.5-6.1c3.7,0.8,6.6,1.4,9.5,1.6c1.9-1.1,4-2.3,6.1-3.6c-1.8-0.4-3.6-1-5.2-1.8
	c6.3-0.1,12.4-3.5,15.7-8.7c-3.7,1.9-7.7,3.2-11.8,3.8c1.8-1.2,3.1-3,3.8-5c-3.1,2.4-7.3,3.2-11.1,2.1c1.2-0.8,2.4-1.6,3.6-2.4
	c-1.1-0.5-2.2-1-3.3-1.6c5.5,0.2,11-2.6,14-7.1c-3.4,0.9-6.9,1.8-10.3,2.7c2-1.6,3.9-3.1,5.9-4.6c-4.4,2.5-9.8,3.1-14.7,1.8
	c0.7-0.8,1.7-1.3,2.8-1.3c-0.1-2,2.5-2.9,4.6-2.9s4.6-0.3,5.3-2.2c-3,0.1-6.1-0.7-8.8-2.1c1.6-0.8,2.9-1.9,3.9-3.3
	c-1.5,0.1-3.1-0.5-4.2-1.6c1.5-0.9,2.7-2.2,3.5-3.7c-1.8,1-4.3,0.7-5.8-0.8c2.1-0.7,4-2.3,4.9-4.2c-1.6,0.6-3.6-0.6-3.8-2.3
	s1.6-3.3,3.3-3c-1.8-0.6-3.6-1.3-5.4-1.9c1.6-2,3.1-4,4.7-5.9c-2.4,0.5-4.9,0.2-7.2-0.6c1.6-1.9,2.4-4.4,2.2-6.9
	c-1.9,0.4-3.8,0.8-5.7,1.3c1.6-2.2,3.2-4.4,4.7-6.6l-4,1.5c0.2-2.2,0.1-4.4-0.4-6.5c-1.3,2.5-2,5.4-1.8,8.2c-1.3-0.9-3.2-0.9-4.4,0
	c3,0.1,5.2,3.7,3.8,6.3c-1.9-1.2-3.8-2.3-5.6-3.5c2.1,2,2,5.8-0.2,7.6c1.6,0.1,3.2,0.3,4.8,0.4c0,0.9,0,1.7-0.1,2.6
	c-1.1,0.3-2.2,0.7-3.3,1c1.2,0.9,2.4,1.8,3.6,2.7c-2.5,0.6-5.2,0.3-7.5-0.8c-0.5,2.6,3.1,3.8,5.8,4c0.1,1-0.9,1.9-2,2.1
	c-1.1,0.1-2.1-0.3-3.1-0.7c0.5,2.6,2.8,4.8,5.5,5.1c-2.2,1.2-4.9,1.8-7.5,1.5c0.7,2.1,2.6,3.5,4.4,4.9c-2.2-0.7-4.8,0.8-5.2,3.1
	c-0.4,2.2,1.6,4.5,3.9,4.6l-1.8,2.5c2.2-0.5,4.5-0.4,6.6,0.3c-0.5,1.3-1,2.6-1.4,3.9c2.1,0.9,3.7,2.8,4.2,5c-2,1.5-3.9,3.1-5.9,4.6
	l3.8,1.3c-1.7,0.4-2.4,2.2-3.5,3.6c-1.1,1.4-3.4,2.2-4.3,0.7c1.3-1.1,2.4-2.4,3.2-3.9c-2.9,0.6-6.1,0.4-8.9-0.6
	c1.7-0.6,3.4-0.8,5.2-0.8c-0.9-0.6-1.8-1.2-2.8-1.9c3.5,0.1,6.9-2.6,7.5-5.9l-6.2,1.4c0.4-1.2,1.8-1.8,2.8-2.6s1.6-2.6,0.4-3.2
	c-0.5-0.2-1-0.1-1.5,0c-2.3,0.4-4.6,0.9-6.9,1.4c1.7-1.4,3.1-3.1,4.1-5c-2.8,1.1-6.1,1-8.8-0.4c0.5-1.2,1.9-1.7,3.2-2
	s2.8-0.7,3.4-1.8c0.6-1.1-0.4-3-1.6-2.4c1.8-0.7,3.3-2.2,3.7-4.1c-1.2,0.1-2.4,0.3-3.6,0.4c2-2.6,3.9-5.3,5.9-7.9
	c-3.1,1.5-6.2,3-9.3,4.5c0.2-1.9,1-3.6,2.2-5.1c-1,0.7-2.7-0.1-2.8-1.3c2.9-0.4,5.6-2,7.3-4.2c-2.5,0.3-5,0.3-7.4,0
	c0.7-1.4,1.3-2.9,2-4.3c-0.7-0.4-1.4-0.8-2.1-1.2c1.3-0.1,2.2-1.5,1.9-2.7c-1-0.1-2-0.3-3.1-0.5c0.2-1.9,2.4-2.7,4.1-3.6
	c1.7-0.8,3.6-2.7,2.6-4.3c-2,2.2-5,3.7-8.1,3.9c0.6-1.9,1.7-3.7,3.2-5.1c-1.4,0.6-2.7,1.3-4.1,2c-0.8-0.9,0.3-2.1,1.1-3
	c0.8-0.9,0.6-2.9-0.6-2.5c1.2-1.3,1.9-2.9,2.1-4.6c-0.5,0.5-1.3,0.7-1.9,0.5c0.5-2.2,0.7-4.6,0.6-6.9c-0.9,0.6-2.1,0.7-3,0.3
	c0.2-3-0.3-6-1.6-8.7c0.5,3.6,0.2,7.2-0.7,10.7c0.6,1.5,0.5,3.2-0.3,4.6c-1.4-0.4-2.6-1.2-3.6-2.2c1.6,2.3,2.4,4.9,2.5,7.7
	c-0.9-0.5-1.8-0.9-2.7-1.4c0.3,2.3,1.2,4.5,2.6,6.5c-1.7-0.1-3.4,0.1-4.9,0.8c0.3,1.8,1.5,3.5,3.1,4.5c-0.1,0.9-0.2,1.8-0.3,2.8
	c-1.8,0-3.6,0.6-4.9,1.8l3.7,3.3l-6.9-1.2c-0.9,1.4-0.1,3.4,1.4,4.2c1.4,0.9,3.2,0.9,4.9,1c0.3,2.2-3,2.8-5.3,2.5
	c0.4,0.8,0.9,1.6,1.3,2.4c-1.5-0.1-3-0.6-4.2-1.5c-0.5,2,0.9,4.4,3,4.8c1.1,0.2,2.4,0,3.5,0.4c1.1,0.3,2.1,1.6,1.4,2.6
	c-2.7-0.1-5.4-0.2-8.1-0.4c0.1,1.2,1.5,2.2,2.7,1.9c-1.2,1.4-2.1,3-2.6,4.7c1.4,0.3,2.9,0.6,4.3,0.9c-0.1,1.7-2.6,2-4.3,1.8
	s-4.2,0-4.3,1.8c1.9,0.8,3.9,1.6,5.8,2.3c-1.1,0.7-2.5,1-3.8,0.8c0.1,0.2,0.1,0.4,0.2,0.6C71.8,173.9,86.2,182.4,95,186.5z"/>
<path class="st3" d="M43.9,130.7c-0.5,0.4-1.2,0.5-1.8,0.4c0.4,1,0.8,2,1.2,2.9c0.4,0.2,0.8,0.2,1.2,0.3c-0.1,0.6-0.2,1.1-0.3,1.7
	c2.8,6.1,6.1,11.5,9.6,16.4c1.4-0.2,2.9-0.5,4.3-0.7c-1.1-1.5-1.2-3.7-0.1-5.2c-0.8-0.4-1.6-0.8-2.3-1.2c0.9-0.9,1.6-2,1.9-3.1
	c-2.2,0.2-4.3,0.4-6.4,0.5c2.5-1.5,4.6-3.6,6.2-6c-0.8-0.1-1.7-0.1-2.5-0.2c0-1.4,0.6-2.9,1.7-3.9c-1.4-0.1-2.8-0.1-4.1-0.2
	c1.9-2.8,3.6-5.8,4.9-8.9c-2.5,0.2-4.9,1.3-6.6,3.1c0.4-2.4,1.6-4.7,3.3-6.6c-0.9,0.2-1.7,0.4-2.6,0.6c0.7-2.1,1.3-4.3,2-6.4
	c-0.8,0.7-1.7,1.3-2.6,1.6c-0.3-2.6-1-5.3-2.2-7.7c0,3.6,0.4,7.1,1.3,10.6c-1.4-0.3-2.8-1-3.8-2.1c0,2,0.9,4.1,2.6,5.3
	c-1.4-0.7-2.9-1.5-4.4-2.1c0.3,1.2,3.3,6.5,2.2,7.8c-0.7,0.9-4.7-0.3-6.3-1.4c0.2,0.6,0.4,1.2,0.6,1.8C41.7,129,42.7,130,43.9,130.7
	z"/>
<path class="st4" d="M108,187.9c2.4-1,5.5-2.5,9.1-4.4c-2.9-0.3-5.9-0.8-9.5-1.6C108.1,183.8,108.1,185.8,108,187.9z"/>
<path class="st4" d="M93.7,184.2c1.6,0.7,3.6,1.9,4.4,1.9c-0.8,0.2-1.9,0.3-3.1,0.4c4.9,2.3,8,3.3,8,3.3s0.3-0.1,0.8-0.3
	c-0.3-2.6-1-5.1-1-5.1C100.9,183,96.6,184.4,93.7,184.2z"/>
<path class="st4" d="M40.9,127.9c0.4,1.1,0.8,2.1,1.2,3.2c0.6,0.1,1.3-0.1,1.8-0.4C42.7,130,41.7,129,40.9,127.9z"/>
<path class="st3" d="M44.2,135.9c0.1-0.6,0.2-1.1,0.3-1.7c-0.4,0-0.8-0.1-1.2-0.3C43.6,134.6,43.9,135.3,44.2,135.9z"/>
<path class="st0" d="M139.3,120.9L33.7,60.4c0,0.3,0,23.6,0,24.3l0,0l0,0c0,0,0,0.4,0,0.5v0.2c0,15.7,2.5,29.2,6.5,40.7
	c1.6,1.1,5.5,2.3,6.3,1.4c1.1-1.3-2-6.6-2.2-7.8c1.5,0.6,2.9,1.4,4.4,2.1c-1.6-1.3-2.6-3.3-2.6-5.3c1,1.1,2.3,1.8,3.8,2.1
	c-0.9-3.5-1.3-7-1.3-10.6c1.2,2.4,1.9,5,2.2,7.7c1-0.4,1.9-0.9,2.6-1.6c-0.7,2.1-1.3,4.3-2,6.4c0.9-0.2,1.7-0.4,2.6-0.6
	c-1.7,1.8-2.8,4.1-3.3,6.6c1.7-1.8,4.1-2.9,6.6-3.1c-1.4,3.1-3,6.1-4.9,8.9c1.4,0.1,2.8,0.1,4.1,0.2c-1.1,1-1.7,2.4-1.7,3.9
	c0.8,0.1,1.7,0.1,2.5,0.2c-1.6,2.4-3.7,4.5-6.2,6c2.2-0.2,4.3-0.4,6.4-0.5c-0.3,1.2-1,2.3-1.9,3.1c0.8,0.4,1.6,0.8,2.3,1.2
	c-1.1,1.6-1,3.7,0.1,5.2c-1.4,0.3-2.9,0.5-4.3,0.7c1.7,2.4,3.5,4.7,5.3,6.8c-0.1-0.2-0.1-0.4-0.2-0.6c1.3,0.2,2.7-0.1,3.8-0.8
	c-1.9-0.8-3.9-1.5-5.8-2.3c0.1-1.7,2.6-2,4.3-1.8s4.2,0,4.3-1.8c-1.4-0.3-2.9-0.6-4.3-0.9c0.5-1.7,1.4-3.3,2.6-4.7
	c-1.2,0.3-2.6-0.7-2.7-1.9c2.7,0.2,5.4,0.4,8.1,0.4c0.7-0.9-0.3-2.2-1.4-2.6c-1.1-0.3-2.3-0.1-3.5-0.4c-2.1-0.5-3.6-2.8-3-4.8
	c1.2,0.9,2.7,1.4,4.2,1.5c-0.4-0.8-0.9-1.6-1.3-2.4c2.3,0.4,5.6-0.3,5.3-2.5c-1.7,0-3.5-0.1-4.9-1c-1.4-0.9-2.3-2.9-1.4-4.2l6.9,1.2
	l-3.7-3.3c1.3-1.2,3.1-1.8,4.9-1.8c0.1-0.9,0.2-1.8,0.3-2.8c-1.6-1-2.8-2.7-3.1-4.5c1.5-0.7,3.2-1,4.9-0.8c-1.4-1.9-2.2-4.2-2.6-6.5
	c0.9,0.5,1.8,0.9,2.7,1.4c-0.1-2.7-1-5.4-2.5-7.7c0.9,1,2.2,1.8,3.6,2.2c0.8-1.4,0.9-3.1,0.3-4.6c0.9-3.5,1.1-7.2,0.7-10.7
	c1.3,2.7,1.8,5.7,1.6,8.7c1,0.4,2.1,0.3,3-0.3c0.2,2.3,0,4.6-0.6,6.9c0.7,0.2,1.5,0,1.9-0.5c-0.2,1.7-0.9,3.3-2.1,4.6
	c1.1-0.4,1.3,1.6,0.6,2.5c-0.7,0.9-1.9,2.1-1.1,3c1.4-0.6,2.7-1.3,4.1-2c-1.5,1.4-2.6,3.2-3.2,5.1c3.1-0.2,6-1.6,8.1-3.9
	c1,1.6-0.8,3.5-2.6,4.3c-1.8,0.8-3.9,1.7-4.1,3.6c1,0.1,2,0.3,3.1,0.5c0.3,1.2-0.6,2.6-1.9,2.7c0.7,0.4,1.4,0.8,2.1,1.2
	c-0.7,1.4-1.3,2.9-2,4.3c2.5,0.3,5,0.3,7.4,0c-1.8,2.2-4.4,3.8-7.3,4.2c0.1,1.2,1.8,2,2.8,1.3c-1.2,1.4-2,3.2-2.2,5.1
	c3.1-1.5,6.2-3,9.3-4.5c-2,2.6-3.9,5.3-5.9,7.9c1.2-0.1,2.4-0.3,3.6-0.4c-0.4,1.8-1.9,3.4-3.7,4.1c1.2-0.6,2.3,1.3,1.6,2.4
	c-0.7,1.1-2.1,1.5-3.4,1.8s-2.8,0.8-3.2,2c2.7,1.3,6,1.4,8.8,0.4c-1.1,1.9-2.5,3.6-4.1,5c2.3-0.4,4.6-0.9,6.9-1.4
	c0.5-0.1,1-0.2,1.5,0c1.2,0.6,0.6,2.4-0.4,3.2s-2.5,1.3-2.8,2.6l6.2-1.4c-0.6,3.4-4,6-7.5,5.9c0.9,0.6,1.8,1.2,2.8,1.9
	c-1.8,0-3.5,0.3-5.2,0.8c2.8,1,5.9,1.2,8.9,0.6c-0.8,1.5-1.9,2.8-3.2,3.9c0.9,1.4,3.2,0.6,4.3-0.7s1.8-3.1,3.5-3.6l-3.8-1.3
	c2-1.5,3.9-3.1,5.9-4.6c-0.5-2.2-2.1-4.1-4.2-5c0.5-1.3,1-2.6,1.4-3.9c-2.1-0.6-4.4-0.8-6.6-0.3l1.8-2.5c-2.3,0-4.3-2.4-3.9-4.6
	c0.4-2.2,3-3.8,5.2-3.1c-1.8-1.3-3.7-2.8-4.4-4.9c2.6,0.3,5.2-0.2,7.5-1.5c-2.7-0.4-5-2.5-5.5-5.1c1,0.4,2.1,0.8,3.1,0.7
	s2.1-1,2-2.1c-2.7-0.1-6.3-1.4-5.8-4c2.3,1.1,5,1.4,7.5,0.8c-1.2-0.9-2.4-1.8-3.6-2.7c1.1-0.3,2.2-0.7,3.3-1c0-0.9,0-1.7,0.1-2.6
	c-1.6-0.1-3.2-0.3-4.8-0.4c2.2-1.8,2.4-5.6,0.2-7.6c1.9,1.2,3.8,2.3,5.6,3.5c1.3-2.6-0.8-6.2-3.8-6.3c1.3-0.9,3.1-0.9,4.4,0
	c-0.1-2.8,0.5-5.7,1.8-8.2c0.5,2.1,0.6,4.4,0.4,6.5l4-1.5c-1.6,2.2-3.2,4.4-4.7,6.6c1.9-0.4,3.8-0.8,5.7-1.3c0.2,2.5-0.6,5-2.2,6.9
	c2.3,0.9,4.8,1.1,7.2,0.6c-1.6,2-3.1,4-4.7,5.9c1.8,0.6,3.6,1.3,5.4,1.9c-1.7-0.3-3.5,1.3-3.3,3s2.2,2.9,3.8,2.3
	c-1,2-2.8,3.5-4.9,4.2c1.5,1.4,4,1.8,5.8,0.8c-0.8,1.5-2,2.8-3.5,3.7c1.1,1,2.6,1.6,4.2,1.6c-1,1.4-2.4,2.5-3.9,3.3
	c2.7,1.4,5.7,2.1,8.8,2.1c-0.6,1.9-3.2,2.1-5.3,2.2c-2.1,0.1-4.7,1-4.6,2.9c-1.1,0-2.1,0.5-2.8,1.3c4.9,1.3,10.3,0.6,14.7-1.8
	c-2,1.6-3.9,3.1-5.9,4.6c3.4-0.9,6.9-1.8,10.3-2.7c-3,4.5-8.5,7.3-14,7.1c1.1,0.5,2.2,1,3.3,1.6c-1.2,0.8-2.4,1.6-3.6,2.4
	c3.8,1.1,8.1,0.2,11.1-2.1c-0.6,2-2,3.8-3.8,5c4.1-0.6,8.1-1.9,11.8-3.8c-3.3,5.2-9.4,8.6-15.7,8.7c1.6,0.8,3.4,1.4,5.2,1.8
	c1.4-0.9,2.8-1.8,4.2-2.8c0.5-0.3,0.9-0.7,1.4-1c11-8,23.2-20.1,32-37.6l0,0c0.3-0.7,1.6-3.3,1.9-3.9L139.3,120.9z"/>
<path class="st0" d="M201.4,32c0,0-9-2.2-24.3-4.6v58.2c0,44.5-19.7,71.7-36.2,86.7c-11.7,10.7-23.4,16.8-30.3,19.8
	c-3.6,1.6-7.6,3.1-7.6,3.1s-4-1.5-7.7-3.1c-6.9-3-18.5-9.1-30.1-19.7C48.7,157.4,29,130.2,29,85.7V27.4C13.8,29.8,4.7,32,4.7,32
	v53.5c0,53.4,24,88.5,44.2,106.8c21.5,19.5,54.2,32.3,54.2,32.3s32.7-12.8,54.2-32.3c20.1-18.2,44.1-53.4,44.1-106.7V32z"/>
<path class="st1" d="M12.8,44.6l1.3,0.3c0,0,0,0,0,0.1v2.4v0.1l-1.3,0.3c-0.1,0-0.1,0.1-0.1,0.2v1.1c0,0.1,0,0.1,0.1,0.1l0,0l8-2.2
	c0.1,0,0.1-0.1,0.1-0.2v-1.3c0-0.1,0-0.1-0.1-0.2l-8-2.1c-0.1,0-0.1,0-0.1,0.1v1.1C12.6,44.5,12.7,44.6,12.8,44.6z M15.2,45.2
	L15.2,45.2l3.9,0.9l0,0l0,0l-3.9,1l0,0c0,0,0,0,0-0.1V45.2L15.2,45.2z"/>
<path class="st1" d="M15.1,71.6h1.8H17v-0.1v-2.4V69h-0.1H16h-0.1v0.1v1.1c0,0,0,0.1-0.1,0.1h-0.9c-0.4,0-0.7-0.1-0.9-0.3
	c-0.2-0.2-0.3-0.5-0.3-0.9s0.1-0.7,0.3-0.9c0.2-0.2,0.5-0.3,0.9-0.3h3.6c0.4,0,0.7,0.1,0.9,0.3s0.3,0.5,0.3,0.9s-0.1,0.7-0.3,0.9
	c-0.2,0.2-0.5,0.3-0.9,0.3h-0.1h-0.1v0.1v1.1v0.1h0.1h0.3c0.5,0,0.9-0.1,1.2-0.3s0.6-0.5,0.8-0.9S21,69.6,21,69s-0.1-1-0.3-1.4
	s-0.5-0.7-0.9-0.9c-0.4-0.2-0.8-0.3-1.3-0.3H15c-0.5,0-0.9,0.1-1.3,0.3c-0.4,0.2-0.7,0.5-0.9,0.9c-0.2,0.4-0.3,0.8-0.3,1.4
	c0,0.8,0.2,1.4,0.7,1.9C13.7,71.3,14.3,71.6,15.1,71.6z"/>
<path class="st1" d="M13.9,84.6c0.4,0.2,0.8,0.3,1.4,0.3h3.3c0.5,0,1-0.1,1.3-0.3s0.7-0.5,0.9-0.9s0.3-0.9,0.3-1.4s-0.1-1-0.3-1.4
	s-0.5-0.7-0.9-0.9c-0.4-0.2-0.8-0.3-1.3-0.3h-3.3c-0.5,0-1,0.1-1.4,0.3s-0.7,0.5-0.9,0.9s-0.3,0.9-0.3,1.4s0.1,1,0.3,1.4
	S13.5,84.4,13.9,84.6z M14.2,81.4c0.2-0.2,0.6-0.3,1-0.3h3.4c0.4,0,0.7,0.1,1,0.3c0.2,0.2,0.4,0.5,0.4,0.9s-0.1,0.7-0.4,0.9
	s-0.6,0.3-1,0.3h-3.4c-0.4,0-0.7-0.1-1-0.3c-0.2-0.2-0.4-0.5-0.4-0.9C13.8,82,13.9,81.6,14.2,81.4z"/>
<path class="st1" d="M15.7,98.6l3.3-0.2c0.5,0,0.9-0.2,1.3-0.4c0.4-0.2,0.7-0.6,0.8-1c0.2-0.4,0.3-0.9,0.2-1.4c0-0.5-0.2-1-0.4-1.3
	c-0.2-0.4-0.6-0.7-1-0.9s-0.9-0.3-1.4-0.2l-3.3,0.2c-0.5,0-1,0.2-1.3,0.4c-0.4,0.2-0.6,0.6-0.8,1c-0.2,0.4-0.3,0.9-0.2,1.4
	c0,0.5,0.2,1,0.4,1.4s0.6,0.7,1,0.9C14.7,98.5,15.2,98.6,15.7,98.6z M14.4,95.1c0.2-0.2,0.5-0.4,0.9-0.4l3.4-0.2
	c0.4,0,0.7,0.1,1,0.3s0.4,0.5,0.4,0.9s-0.1,0.7-0.3,0.9c-0.2,0.2-0.5,0.4-1,0.4l-3.4,0.2c-0.4,0-0.7-0.1-1-0.3
	C14.1,96.7,14,96.4,14,96C14.1,95.6,14.2,95.3,14.4,95.1z"/>
<path class="st1" d="M22.4,110.7c0.3-0.5,0.5-1.2,0.3-1.9l-0.4-2.4c0,0,0-0.1-0.1-0.1h-0.1l-7.9,1.3c0,0-0.1,0-0.1,0.1s0,0.1,0,0.1
	l0.4,2.4c0.1,0.8,0.4,1.3,0.9,1.7s1.1,0.5,1.8,0.4l3.6-0.6C21.6,111.5,22.1,111.2,22.4,110.7z M17.2,110.9c-0.4,0.1-0.7,0-1-0.2
	s-0.4-0.4-0.5-0.8l-0.2-1.2v-0.1l5.7-0.9c0,0,0.1,0,0.1,0.1l0.2,1.2c0.1,0.3,0,0.6-0.2,0.9c-0.2,0.2-0.5,0.4-0.9,0.5L17.2,110.9z"/>
<path class="st1" d="M26.6,133.6c0.5-0.2,0.8-0.4,1.1-0.7s0.5-0.7,0.5-1.1c0.1-0.4,0-0.8-0.1-1.2l-0.9-2.6c0,0,0-0.1-0.1-0.1H27
	l-7.6,2.6c0,0-0.1,0-0.1,0.1v0.1l0.4,1c0,0,0,0.1,0.1,0.1h0.1l3-1.1H23l0.5,1.4c0.2,0.4,0.4,0.8,0.7,1c0.3,0.3,0.7,0.4,1.1,0.5
	C25.7,133.8,26.1,133.8,26.6,133.6z M24.5,131.7l-0.4-1.2v-0.1l2.3-0.8h0.1l0.4,1.2c0.1,0.3,0.1,0.6-0.1,0.9s-0.4,0.5-0.8,0.6
	c-0.4,0.1-0.7,0.1-1,0C24.8,132.2,24.6,132,24.5,131.7z"/>
<path class="st1" d="M29.2,142.9C29.2,142.8,29.2,142.8,29.2,142.9l2-1h0.1l1.4,3c0,0,0,0.1,0.1,0.1h0.1l0.8-0.4c0,0,0.1,0,0.1-0.1
	v-0.1l-2-4.1c0,0,0-0.1-0.1-0.1h-0.1l-7.2,3.4c0,0-0.1,0-0.1,0.1v0.1l2,4.1c0,0,0,0.1,0.1,0.1h0.1l0.8-0.4c0,0,0.1,0,0.1-0.1v-0.1
	l-1.4-3v-0.1l2.1-1h0.1l0.9,1.9c0,0,0,0.1,0.1,0.1h0.1l0.8-0.4c0,0,0.1,0,0.1-0.1v-0.1L29.2,142.9z"/>
<path class="st1" d="M39.4,155.1c0-0.4-0.1-0.8-0.4-1.2l-1.5-2.3c0,0,0-0.1-0.1-0.1s-0.1,0-0.1,0l-6.8,4.3c0,0,0,0.1-0.1,0.1v0.1
	l0.6,0.9c0,0,0,0.1,0.1,0.1s0.1,0,0.1,0l2.8-1.8h0.1l0.5,0.9v0.1l-2.2,2.9c0,0.1-0.1,0.1,0,0.2l0.6,1c0,0.1,0.1,0.1,0.1,0.1
	s0,0,0-0.1l2.2-3c0,0,0,0,0.1,0c0.3,0.3,0.8,0.4,1.2,0.4s0.9-0.1,1.3-0.4c0.4-0.2,0.7-0.6,0.9-0.9C39.3,155.9,39.4,155.5,39.4,155.1
	z M38.1,155.2c-0.1,0.3-0.3,0.5-0.6,0.7s-0.6,0.3-0.9,0.2s-0.5-0.2-0.7-0.5l-0.7-1.1v-0.1l2-1.3h0.1l0.7,1.1
	C38.1,154.7,38.1,154.9,38.1,155.2z"/>
<path class="st1" d="M46.2,164.2c-0.5-0.6-1-0.9-1.6-1s-1.2,0.1-1.7,0.5c-0.3,0.3-0.6,0.6-0.7,0.9c-0.1,0.4-0.2,0.7-0.1,1.1
	s0.1,0.8,0.2,1.3c0.1,0.5,0.1,0.8,0.2,1.1c0,0.2,0,0.4,0,0.6c0,0.2-0.2,0.3-0.3,0.5c-0.2,0.2-0.5,0.3-0.8,0.2
	c-0.3,0-0.5-0.2-0.8-0.5c-0.2-0.3-0.4-0.6-0.3-0.9s0.2-0.6,0.4-0.8l0.2-0.1V167v-0.1l-0.7-0.8l-0.1-0.1H40l-0.2,0.2
	c-0.3,0.3-0.6,0.6-0.7,1s-0.2,0.8,0,1.2c0.1,0.4,0.3,0.8,0.6,1.2c0.5,0.6,1,1,1.7,1.1s1.2-0.1,1.7-0.5c0.3-0.3,0.5-0.6,0.7-0.9
	c0.1-0.3,0.2-0.6,0.1-1c0-0.3-0.1-0.8-0.2-1.5c-0.1-0.5-0.2-0.8-0.2-1.1s0-0.5,0-0.6s0.2-0.3,0.3-0.5c0.2-0.2,0.5-0.3,0.8-0.2
	s0.5,0.2,0.7,0.5c0.2,0.3,0.4,0.6,0.3,0.9c0,0.3-0.2,0.6-0.4,0.8l-0.2,0.1v0.1v0.1l0.7,0.8l0.1,0.1h0.1l0.2-0.1
	c0.4-0.3,0.6-0.6,0.8-1s0.2-0.8,0.1-1.2C46.7,165,46.5,164.6,46.2,164.2z"/>
<path class="st1" d="M54.7,174.2c-0.4-0.4-0.8-0.6-1.2-0.8c-0.4-0.1-0.9-0.1-1.3,0s-0.8,0.4-1.2,0.7l-2.4,2.4
	c-0.4,0.4-0.6,0.8-0.7,1.2s-0.1,0.9,0,1.3c0.1,0.4,0.4,0.8,0.7,1.2c0.4,0.4,0.8,0.6,1.2,0.8c0.4,0.1,0.9,0.1,1.3,0s0.8-0.4,1.2-0.7
	l2.4-2.4c0.4-0.4,0.6-0.8,0.7-1.2s0.1-0.9,0-1.3C55.3,174.9,55.1,174.5,54.7,174.2z M53.8,176.8l-2.4,2.4c-0.3,0.3-0.6,0.4-0.9,0.4
	s-0.7-0.1-0.9-0.4c-0.3-0.3-0.4-0.6-0.4-0.9c0-0.3,0.2-0.6,0.4-0.9L52,175c0.3-0.3,0.6-0.4,0.9-0.4s0.6,0.1,0.9,0.4
	c0.3,0.3,0.4,0.6,0.4,0.9S54.1,176.6,53.8,176.8z"/>
<path class="st1" d="M65.6,184.3C65.6,184.2,65.6,184.2,65.6,184.3c-0.1,0-0.2,0-0.2,0l-3.3,4.1c0,0,0,0-0.1,0c0,0,0,0,0-0.1
	l1.3-5.8c0-0.1,0-0.1-0.1-0.2l-0.9-0.7h-0.1c0,0-0.1,0-0.1,0.1l-5,6.3v0.1c0,0,0,0.1,0.1,0.1l0.9,0.7h0.1c0,0,0.1,0,0.1-0.1l3.2-4.1
	c0,0,0,0,0.1,0c0,0,0,0,0,0.1l-1.3,5.8c0,0.1,0,0.1,0.1,0.2l0.9,0.7h0.1c0,0,0.1,0,0.1-0.1l5-6.3V185c0,0,0-0.1-0.1-0.1L65.6,184.3z
	"/>
<path class="st1" d="M81.2,194.8L81.2,194.8c-0.1,0-0.2,0-0.2,0.1l-3.9,7v0.1c0,0,0,0.1,0.1,0.1l0.9,0.5h0.1c0,0,0.1,0,0.1-0.1
	l3.9-7v-0.1c0,0,0-0.1-0.1-0.1L81.2,194.8z"/>
<path class="st1" d="M92.8,201.1c-0.3-0.3-0.7-0.6-1.1-0.8c-0.7-0.3-1.3-0.4-1.9-0.2c-0.6,0.2-1,0.6-1.3,1.2
	c-0.2,0.4-0.2,0.8-0.2,1.1c0.1,0.4,0.2,0.7,0.4,1s0.5,0.7,0.8,1.1c0.3,0.4,0.5,0.6,0.6,0.9c0.1,0.2,0.2,0.4,0.3,0.6s0,0.4-0.1,0.6
	c-0.1,0.3-0.3,0.5-0.6,0.6c-0.3,0.1-0.6,0.1-0.9-0.1c-0.4-0.2-0.6-0.4-0.8-0.7c-0.1-0.3-0.1-0.6,0-0.9l0.1-0.2v-0.1
	c0,0,0-0.1-0.1-0.1l-1-0.4h-0.1c0,0-0.1,0-0.1,0.1l-0.1,0.3c-0.2,0.4-0.2,0.8-0.2,1.2c0.1,0.4,0.2,0.8,0.5,1.1s0.7,0.6,1.2,0.8
	c0.7,0.3,1.4,0.4,2,0.2c0.6-0.2,1-0.6,1.3-1.2c0.2-0.4,0.2-0.8,0.2-1.1c-0.1-0.3-0.2-0.6-0.3-0.9c-0.2-0.3-0.5-0.7-0.8-1.2
	c-0.3-0.4-0.5-0.6-0.7-0.9s-0.2-0.4-0.3-0.6c0-0.2,0-0.4,0.1-0.6c0.1-0.3,0.3-0.5,0.6-0.6c0.2-0.1,0.5-0.1,0.8,0.1
	c0.4,0.1,0.6,0.4,0.7,0.7c0.1,0.3,0.1,0.6,0,0.9l-0.1,0.2v0.1c0,0,0,0.1,0.1,0.1l1,0.4h0.1c0,0,0.1,0,0.1-0.1l0.1-0.2
	c0.2-0.4,0.2-0.8,0.2-1.2C93.3,201.8,93.1,201.5,92.8,201.1z"/>
<path class="st1" d="M120.9,206.3l-5.5-6.3c-0.1-0.1-0.1-0.1-0.2,0l-1.2,0.6c-0.1,0-0.1,0.1-0.1,0.2l1.5,8.2c0,0.1,0.1,0.1,0.2,0.1
	l1-0.5c0.1,0,0.1-0.1,0.1-0.2l-0.3-1.3V207l2.2-1.1h0.1l0.8,1c0.1,0.1,0.1,0.1,0.2,0L120.9,206.3
	C120.9,206.4,120.9,206.4,120.9,206.3L120.9,206.3z M117.9,205.1l-1.7,0.8c0,0,0,0-0.1,0l0,0l-0.8-3.9c0,0,0,0,0-0.1c0,0,0,0,0.1,0
	L117.9,205.1C118,205,118,205,117.9,205.1C118,205.1,117.9,205.1,117.9,205.1z"/>
<path class="st1" d="M132.3,198.8C132.3,198.7,132.3,198.7,132.3,198.8c-0.1-0.1-0.2-0.1-0.2-0.1l-2.9,1.6h-0.1l-3.4-6l-0.1-0.1
	h-0.1l-1,0.6l-0.1,0.1v0.1l4,6.9l0.1,0.1h0.1l4-2.3l0.1-0.1v-0.1L132.3,198.8z"/>
<path class="st1" d="M141.3,183.9c0-0.1-0.1-0.1-0.2-0.1l-0.9,0.6c-0.1,0.1-0.1,0.1-0.1,0.2l2.2,4.8v0.1c0,0,0,0-0.1,0l-3.9-3.5
	c-0.1-0.1-0.1-0.1-0.2,0l-0.9,0.6c-0.1,0.1-0.1,0.1-0.1,0.2l2.2,4.8v0.1c0,0,0,0-0.1,0l-3.9-3.5c-0.1-0.1-0.1-0.1-0.2,0l-0.9,0.7
	c-0.1,0.1-0.1,0.1-0.1,0.2l0,0l6.3,5.4c0.1,0.1,0.1,0.1,0.2,0l0.9-0.6c0.1-0.1,0.1-0.1,0.1-0.2l-2.3-4.9c0,0,0,0,0-0.1
	c0,0,0,0,0.1,0l4,3.7c0.1,0.1,0.1,0.1,0.2,0l0.9-0.6c0.1-0.1,0.1-0.1,0.1-0.2L141.3,183.9z"/>
<path class="st1" d="M156.3,181l-7-4.5c-0.1,0-0.1,0-0.2,0l-1,0.9c-0.1,0.1-0.1,0.1-0.1,0.2l3.8,7.4c0.1,0.1,0.1,0.1,0.2,0l0.9-0.8
	c0.1-0.1,0.1-0.1,0.1-0.2l-0.6-1.1v-0.1l1.9-1.7h0.1l1.1,0.7c0.1,0,0.1,0,0.2,0l0.9-0.8C156.4,181.1,156.4,181,156.3,181L156.3,181z
	 M153.2,180.6l-1.4,1.3c0,0,0,0-0.1,0s0,0-0.1,0l-1.9-3.5c0,0,0,0,0-0.1c0,0,0,0,0.1,0L153.2,180.6L153.2,180.6L153.2,180.6z"/>
<path class="st1" d="M161.9,169.9L161.9,169.9l-2.4-4.6l-0.1-0.1c0,0-0.1,0-0.1,0.1l-0.8,0.9c-0.1,0.1-0.1,0.1,0,0.2l1.7,3
	c0,0.1,0,0.1-0.1,0.1l-3.3-1c-0.1,0-0.1,0-0.2,0.1l-0.7,0.9c-0.1,0.1-0.1,0.1,0,0.1h0.1l5,1.3h0.1l2.5,2h0.1c0,0,0.1,0,0.1-0.1
	l0.7-0.9v-0.1c0,0,0-0.1-0.1-0.1L161.9,169.9z"/>
<path class="st1" d="M171.9,157.6c-0.4-0.2-0.7-0.3-1.1-0.3c-0.4,0-0.7,0.1-1,0.2c-0.3,0.1-0.7,0.4-1.3,0.7
	c-0.4,0.3-0.7,0.4-0.9,0.6c-0.2,0.1-0.4,0.2-0.6,0.2c-0.2,0-0.4,0-0.6-0.1c-0.3-0.2-0.4-0.4-0.5-0.6c-0.1-0.3,0-0.5,0.2-0.8
	s0.5-0.6,0.8-0.6c0.3-0.1,0.6,0,0.9,0.1l0.2,0.1h0.1c0,0,0.1,0,0.1-0.1l0.6-0.9V156c0,0,0-0.1-0.1-0.1l-0.2-0.1
	c-0.4-0.2-0.8-0.4-1.2-0.4s-0.8,0.1-1.2,0.4s-0.7,0.6-1,1c-0.4,0.6-0.6,1.3-0.4,1.9c0.1,0.6,0.4,1.1,1,1.4c0.4,0.2,0.8,0.3,1.1,0.3
	s0.7-0.1,1-0.2c0.3-0.1,0.7-0.4,1.2-0.7c0.4-0.2,0.7-0.4,0.9-0.5s0.4-0.2,0.6-0.2s0.4,0,0.6,0.1c0.3,0.2,0.4,0.4,0.5,0.6
	c0.1,0.3,0,0.6-0.2,0.9c-0.2,0.4-0.5,0.6-0.8,0.7c-0.3,0.1-0.6,0.1-0.9-0.1l-0.2-0.1h-0.1c0,0-0.1,0-0.1,0.1l-0.6,0.9v0.1
	c0,0,0,0.1,0.1,0.1l0.3,0.2c0.4,0.2,0.8,0.4,1.2,0.3c0.4,0,0.8-0.1,1.2-0.4c0.4-0.2,0.7-0.6,1-1.1c0.4-0.7,0.6-1.3,0.5-1.9
	C172.9,158.5,172.5,158,171.9,157.6z"/>
<path class="st1" d="M183.5,136.6h-0.1c0,0-0.1,0-0.1,0.1l-1.3,3.1c0,0,0,0.1-0.1,0l-6.4-2.7h-0.1c0,0-0.1,0-0.1,0.1l-0.4,1v0.1
	c0,0,0,0.1,0.1,0.1l7.4,3.2h0.1c0,0,0.1,0,0.1-0.1l1.8-4.3v-0.1c0,0,0-0.1-0.1-0.1L183.5,136.6z"/>
<path class="st1" d="M188.5,123.8l-0.9-0.3h-0.1l-0.1,0.1l-1,3.2c0,0,0,0.1-0.1,0l-2.2-0.7c0,0-0.1,0,0-0.1l0.6-2.1v-0.1l-0.1-0.1
	l-0.9-0.3h-0.1l-0.1,0.1l-0.6,2.1c0,0,0,0.1-0.1,0l-2.1-0.6c0,0-0.1,0,0-0.1l1-3.2v-0.1l-0.1-0.1l-0.9-0.3h-0.1l-0.1,0.1l-1.4,4.5
	v0.1l0.1,0.1l7.7,2.3h0.1l0.1-0.1l1.4-4.5C188.7,123.9,188.7,123.9,188.5,123.8C188.6,123.8,188.6,123.8,188.5,123.8z"/>
<path class="st1" d="M191.6,109.4L191.6,109.4l-8.3,0.8c-0.1,0-0.1,0.1-0.1,0.1l-0.2,1.4c0,0.1,0,0.1,0.1,0.2l7.5,3.6
	c0.1,0,0.1,0,0.2-0.1l0.2-1.1c0-0.1,0-0.1-0.1-0.2l-1.2-0.5c0,0,0,0,0-0.1l0.4-2.4c0,0,0-0.1,0.1-0.1l1.3-0.1c0.1,0,0.1-0.1,0.1-0.1
	l0.2-1.1C191.6,109.5,191.6,109.4,191.6,109.4z M188.5,113L188.5,113C188.4,113,188.4,113,188.5,113l-3.7-1.6l0,0l0,0l4-0.3
	c0,0,0,0,0.1,0c0,0,0,0,0,0.1L188.5,113z"/>
<path class="st1" d="M193.1,95.6C193,95.6,193,95.6,193.1,95.6l-3.7,1.2h-0.1c-0.1-0.4-0.4-0.8-0.7-1.1c-0.4-0.3-0.8-0.4-1.3-0.5
	c-0.5,0-0.9,0-1.3,0.2c-0.4,0.2-0.7,0.4-0.9,0.8s-0.4,0.7-0.4,1.2l-0.2,2.8v0.1l0.1,0.1l8,0.7h0.1l0.1-0.1l0.1-1.1v-0.1l-0.1-0.1
	l-3.4-0.3c0,0-0.1,0-0.1-0.1l0.1-1c0,0,0,0,0.1-0.1l3.5-1c0.1,0,0.1-0.1,0.1-0.2l0.1-1.2C193.2,95.6,193.1,95.6,193.1,95.6z
	 M188.2,99.1L188.2,99.1l-2.4-0.1c0,0-0.1,0-0.1-0.1l0.1-1.3c0-0.3,0.2-0.6,0.4-0.8c0.2-0.2,0.6-0.3,0.9-0.2c0.4,0,0.7,0.2,0.9,0.4
	c0.2,0.2,0.3,0.5,0.3,0.8L188.2,99.1z"/>
<path class="st1" d="M193.4,85.6h-0.1h-5.2H188c0,0,0,0,0-0.1l5.3-2.7c0.1,0,0.1-0.1,0.1-0.2v-1.2v-0.1h-0.1h-8h-0.1v0.1v1.1v0.1
	h0.1h5.3h0.1c0,0,0,0,0,0.1l-5.3,2.7c-0.1,0-0.1,0.1-0.1,0.2v1.2v0.1h0.1h8h0.1v-0.1v-1.1C193.4,85.6,193.4,85.6,193.4,85.6z"/>
<path class="st1" d="M185.2,72.7h0.1h8h0.1v-0.1v-1.1v-0.1h-0.1h-8h-0.1v0.1V72.7C185.1,72.6,185.1,72.6,185.2,72.7z"/>
<path class="st1" d="M185.2,61.2c-0.1,0-0.1,0.1-0.1,0.2v1.2v0.1h0.1h8h0.1v-0.1v-1.1v-0.1h-0.1H188h-0.1c0,0,0,0,0-0.1l5.3-2.7
	c0.1,0,0.1-0.1,0.1-0.2v-1.1v-0.1h-0.1h-8h-0.1v0.1v1.1v0.1h0.1h5.3h0.1c0,0,0,0,0,0.1L185.2,61.2z"/>
<path class="st1" d="M186.2,48.3c0.4,0.2,0.8,0.3,1.3,0.3h3.5c0.5,0,0.9-0.1,1.3-0.3c0.4-0.2,0.7-0.5,0.9-0.9s0.3-0.9,0.3-1.4
	c0-0.8-0.2-1.4-0.7-1.9c-0.4-0.5-1.1-0.7-1.9-0.7H189h-0.1v0.1v2.4V46h0.1h0.9h0.1v-0.1v-1.1c0,0,0-0.1,0.1-0.1h0.9
	c0.4,0,0.6,0.1,0.9,0.3s0.3,0.5,0.3,0.9s-0.1,0.7-0.4,0.9c-0.2,0.2-0.5,0.4-0.9,0.4h-3.6c-0.4,0-0.7-0.1-0.9-0.3
	c-0.2-0.2-0.4-0.5-0.4-0.9s0.1-0.7,0.3-0.9s0.5-0.3,0.9-0.3h0.3h0.1v-0.1v-1.1v-0.1h-0.1h-0.1c-0.5,0-0.9,0.1-1.2,0.3
	c-0.4,0.2-0.6,0.5-0.9,0.9c-0.2,0.4-0.3,0.9-0.3,1.4s0.1,1,0.3,1.4C185.5,47.8,185.8,48.1,186.2,48.3z"/>
<path class="st0" d="M272.2,31.4l1.2-4.5c0.1-0.6,0.2-1,0.3-1.2c0.1-0.2,0.3-0.3,0.5-0.3c0.4,0,0.8,0.4,1.2,1.3
	c0.3,0.6,0.6,1,0.8,1.2c0.2,0.2,0.5,0.3,1,0.3h0.3l1.3,0.1l7.1,0.1h8.3h2.5l4.6-0.1c0.2,0,0.4,0,0.7,0.1c1.4,0.1,2.2,0.2,2.5,0.2
	s0.5-0.1,0.7-0.3c0.1-0.1,0.4-0.7,1-2c0.3-0.6,0.6-0.8,1-0.8c0.2,0,0.4,0,0.6,0.1c0.1,0.4,0.1,0.8,0.1,1.1v1.2v2.5
	c0,0.6-0.1,2.6-0.1,5.9c0,0.2,0,0.4-0.1,0.6c-0.2,0.1-0.4,0.2-0.6,0.2s-0.3-0.1-0.4-0.2c-0.1-0.1-0.3-0.6-0.4-1.4
	c-0.4-1.8-0.9-3.1-1.5-3.8c-0.4-0.5-1-0.8-1.7-1.1c-0.8-0.2-2.5-0.3-5.4-0.3h-5.1c0,0.8-0.1,1.5-0.1,2.2l0.2,18.6
	c0,0.7,0,2.1-0.1,4.2v4v2.2c0,0.7,0.1,1.2,0.4,1.5c0.2,0.3,0.9,0.6,1.9,0.9c1.8,0.5,3.1,0.7,3.7,0.8c0.4,0,0.7,0.1,0.9,0.2v0.9
	l-4.2-0.1c-2.3,0-4.1-0.1-5.3-0.1l-4.4,0.2l-3.2,0.2c-0.9,0-1.4,0-1.6-0.1l-0.4-0.2c0-0.5,0.1-0.8,0.3-0.9c0.1-0.1,0.5-0.2,1.1-0.3
	c0.8-0.1,1.8-0.3,3-0.6c1.1-0.3,1.9-0.6,2.2-0.9c0.2-0.2,0.3-0.5,0.4-0.9c0.2-0.9,0.3-2.6,0.3-5.2v-5.1l-0.1-11.1l-0.1-2.4v-8h-4.8
	c-2.9,0-4.6,0.2-5.2,0.5c-1,0.5-2.4,2.1-4.4,4.8c-0.6,1-1.2,1.5-1.7,1.5l-0.3-0.1c-0.1-0.1-0.1-0.2-0.1-0.3c0-0.2,0.2-1,0.5-2.2
	C271.9,33,272.1,31.9,272.2,31.4"/>
<path class="st0" d="M311,64.5c2.3-0.4,3.7-0.7,4-1c0.2-0.1,0.3-0.5,0.3-1v-2V57l-0.1-8.9v-3.3v-2.4l0.1-2.9c0-4.5,0-7.3-0.1-8.1
	c-0.1-0.9-0.3-1.4-0.5-1.7c-0.5-0.5-1.8-0.9-4-1.4v-0.1c0-0.1,0-0.3,0.1-0.6c0.3,0,0.5-0.1,0.8-0.1c0.3-0.1,0.5-0.1,0.7-0.1
	c2.4-0.7,4.1-1.3,5.2-2h1.5c0,0.6,0.1,2.3,0.1,5.3v3.8v4.9l-0.1,6c0,0.4,0,0.8,0.1,1.2c1.3-1.5,2.2-2.4,2.8-2.9c1-0.8,2.1-1.5,3.3-2
	c1.2-0.5,2.4-0.7,3.7-0.7c2.5,0,4.5,1,6,3.1c0.9,1.2,1.3,2.9,1.3,5.2l-0.1,3V54l-0.1,3c-0.1,2.5-0.1,3.9-0.1,4.4s0,1.2,0.1,2.1
	l1.7,0.4c1.1,0.2,2,0.5,2.6,0.7v0.9l-6.4-0.2c-0.4,0-1.3,0-2.9,0.1c-1,0-1.5,0.1-1.7,0.1h-0.7c-0.1-0.2-0.1-0.3-0.1-0.4v-0.3
	c0.3-0.4,0.8-0.6,1.6-0.7l1.8-0.4c0.2-0.2,0.4-0.4,0.4-0.6c0.1-0.5,0.2-3.1,0.3-7.7l0.1-2.2c0.1-2.3-0.1-4.3-0.5-5.8
	c-0.3-1.1-0.9-1.9-1.9-2.5s-2.1-0.9-3.4-0.9c-1.1,0-2.1,0.2-3.1,0.7c-0.7,0.3-1.4,0.9-2.4,1.8c-0.9,0.8-1.6,1.6-1.9,2.1
	c-0.2,0.4-0.4,1.1-0.4,2v2.1l-0.1,2.2c0,0.2,0,1.4,0.1,3.7v1.9l0.1,2.1c0,0.3,0,0.5,0.1,0.7l4.2,1c0.2,0.1,0.5,0.2,1,0.4l0.1,0.3
	c0,0.1,0,0.3-0.1,0.5c-0.6,0-1,0-1.3,0h-2.3l-5.1,0.1l-3.9,0.1c-0.2,0-0.5,0-0.9-0.1v-0.2C310.8,64.9,310.8,64.7,311,64.5"/>
<path class="st0" d="M347.3,48.3h1.4c1,0,4.1-0.2,9.1-0.5c0.8,0,1.3-0.1,1.5-0.2c0.4-0.4,0.5-0.7,0.5-1c0-0.6-0.2-1.3-0.6-2.1
	c-0.4-0.8-1-1.4-1.8-1.8s-1.8-0.6-2.9-0.6c-2.3,0-4.2,0.9-5.6,2.6C347.9,45.9,347.3,47.2,347.3,48.3 M364,49.4l-12,0.1h-2.3
	c-0.9,0-1.9,0-2.8,0.1c-0.2,0.6-0.3,1-0.3,1.2v0.3v0.3v1.5c0,1.2,0.4,2.7,1.2,4.5c0.8,1.8,1.9,3.1,3.3,4s3.2,1.4,5.3,1.5
	c1.1-0.1,2-0.2,2.7-0.4c0.7-0.2,1.6-0.7,2.9-1.5l2.2-1.8l0.2,1.2c0,0.1,0,0.3,0,0.4c-0.9,1.1-2,2.1-3.4,3s-2.8,1.5-4.2,1.9
	c-0.7,0.2-1.8,0.3-3.4,0.3c-1.4,0-2.8-0.3-4.2-0.9c-2-0.9-3.6-2.3-4.8-4.2c-1.2-1.9-1.7-4.3-1.7-7.1c0-0.9,0.2-2,0.5-3.4
	s0.9-2.8,1.8-4.4c0.6-1.1,1.3-1.9,2.1-2.6c1.2-1,2.2-1.6,3.1-2c1.3-0.5,2.8-0.8,4.5-0.8c1.9,0,3.4,0.3,4.5,1
	c1.6,0.9,2.8,2.1,3.6,3.5c0.8,1.4,1.2,2.7,1.2,3.9L364,49.4L364,49.4z"/>
<path class="st2" d="M272.4,113.3v-0.7c0.4-0.2,1.2-0.4,2.2-0.6c1-0.2,1.7-0.3,2.1-0.5s0.7-0.4,1-0.7c0.2-0.9,0.3-2.5,0.3-4.8V82.7
	l0.1-3.9c0-0.8-0.2-1.3-0.5-1.6c-0.3-0.3-1.1-0.6-2.4-0.8c-1.3-0.3-2.1-0.5-2.3-0.6c-0.2-0.2-0.4-0.3-0.4-0.5c0-0.1,0-0.2,0.1-0.4
	c0.3-0.2,0.5-0.2,0.8-0.2s0.9,0,1.8,0.1h0.8c0.3,0,1.1,0,2.4-0.1h4.2l8.6-0.1l9.1-0.4h0.8h1.3c0.4,0,0.7,0.1,1,0.3
	c0.1,0.3,0.2,0.5,0.2,0.7v1.2l0.3,5.4c0,0.2,0,0.5-0.1,0.8c-0.3,0.1-0.6,0.2-0.9,0.2c-0.2,0-0.3-0.1-0.4-0.2
	c-0.2-0.2-0.3-0.6-0.3-1.3c-0.1-0.9-0.4-2-0.9-3.3c-0.3-0.6-0.7-1.1-1.3-1.3c-1.2-0.5-3.2-0.7-6-0.7c-1.3,0-2.6,0-3.7,0.1
	c-1.2,0.1-1.9,0.1-2.1,0.1h-2.3c-1,0-1.7,0.1-2.4,0.4c-0.4,0.2-0.6,0.6-0.6,1.3v0.4c0.1,1,0.1,2.1,0.1,3.4l-0.1,8.1
	c0,0.8,0.1,1.6,0.2,2.3l0.9,0.1l1.7-0.1h5.7c2.3,0,3.9-0.2,4.8-0.5c0.6-0.2,1-0.5,1.3-1c0.1-0.1,0.3-0.9,0.7-2.4l0.4-2.5
	c0.2-0.1,0.4-0.2,0.5-0.2s0.3,0.1,0.5,0.1c0.1,0.5,0.1,1.2,0.1,2.1l0.4,11c-0.3,0.1-0.6,0.2-0.8,0.2l-0.3-0.1
	c-0.3-2-0.8-3.6-1.5-4.7c-0.2-0.4-0.5-0.6-0.8-0.7c-0.5-0.1-2.9-0.2-7.1-0.2c-1.3,0-2.2,0-2.7,0c-1.2,0.1-1.9,0.1-2.2,0.1h-0.3
	c-0.6,0-1,0.1-1.3,0.2c-0.1,0.2-0.1,0.4-0.1,0.5v2.1c0,0.2,0,1.2,0,3l-0.1,9.9c0,0.3,0.1,0.6,0.2,1c0.4,0.3,1.2,0.6,2.3,0.7
	c1.1,0.1,2.1,0.4,3.1,0.8c0.6,0.3,0.8,0.5,0.8,0.9c0,0.1,0,0.3-0.1,0.4c-0.1,0.1-0.2,0.2-0.4,0.3c-1.6-0.3-3.9-0.5-6.8-0.5
	c-1.5,0-3.2,0.1-4.9,0.4c-1.2,0.2-2.5,0.3-4,0.3L272.4,113.3z"/>
<path class="st2" d="M303,113l-0.1-0.4c0-0.1,0.1-0.3,0.3-0.6l1.8-0.4l2.5-0.4c0.2-0.1,0.3-0.2,0.4-0.4c0.1-0.3,0.2-1,0.2-2.3
	c0-6.8,0-10.7-0.1-11.7s-0.3-1.7-0.5-2c-0.3-0.3-1-0.5-2.2-0.7c-0.7-0.1-1.2-0.2-1.6-0.4l0.1-0.9c2.1-0.9,3.5-1.6,4.2-2.2
	c1-0.9,1.8-2.1,2.5-3.5h1c0.1,1,0.2,3.2,0.2,6.6v0.5c0,0.1,0,0.3,0.1,0.6c0.8-1.4,1.7-2.6,2.8-3.8l0.7-0.7c0.3-0.3,0.5-0.6,0.8-0.7
	c1.4-0.8,2.4-1.3,3.1-1.3c0.9,0,1.6,0.3,2.2,0.9s0.8,1.3,0.8,2.2c0,0.7-0.2,1.2-0.6,1.6c-0.5,0.5-1.2,0.7-1.9,0.7
	c-0.3,0-0.9-0.2-1.9-0.5c-0.9-0.3-1.6-0.5-1.9-0.5c-0.6,0-0.9,0.1-1.2,0.3c-0.6,0.4-1.2,1.3-2,2.7c-0.6,1-0.9,2-0.9,2.8l0.1,4.9
	l0.1,5.9c0.1,0.7,0.1,1.1,0.2,1.3c0.1,0.1,0.3,0.3,0.6,0.5c2.2,0.2,3.4,0.3,3.8,0.4c0.3,0,0.5,0,0.6,0.1c0.9,0,1.5,0.1,1.8,0.4
	c0.2,0.1,0.3,0.2,0.3,0.4c0,0.1-0.1,0.3-0.2,0.5l-3.3-0.1h-1.3h-1.8h-3.1l-1.6,0.1L303,113z"/>
<path class="st2" d="M329.3,96h1.4c1,0,4-0.2,9.1-0.5c0.8,0,1.3-0.1,1.5-0.2c0.4-0.4,0.5-0.7,0.5-1c0-0.6-0.2-1.3-0.6-2.1
	c-0.4-0.8-1-1.4-1.8-1.8s-1.8-0.6-2.9-0.6c-2.3,0-4.2,0.9-5.6,2.6C329.9,93.6,329.3,94.8,329.3,96 M346,97.1l-12,0.1h-2.3
	c-0.9,0-1.9,0-2.8,0.1c-0.2,0.6-0.3,1-0.3,1.2v0.3v0.3v1.5c0,1.2,0.4,2.7,1.2,4.5c0.8,1.8,1.9,3.1,3.3,4s3.2,1.4,5.3,1.5
	c1.1-0.1,2-0.2,2.7-0.4s1.6-0.7,2.9-1.5l2.2-1.8l0.2,1.2c0,0.1,0,0.3,0,0.5c-0.9,1.1-2,2.1-3.4,3s-2.8,1.5-4.2,1.9
	c-0.7,0.2-1.8,0.3-3.4,0.3c-1.4,0-2.8-0.3-4.2-0.9c-2-0.9-3.6-2.3-4.8-4.2c-1.2-1.9-1.7-4.3-1.7-7.1c0-0.9,0.2-2,0.5-3.4
	s0.9-2.8,1.8-4.4c0.6-1.1,1.3-1.9,2.1-2.6c1.2-1,2.2-1.6,3.1-2c1.3-0.5,2.8-0.8,4.5-0.8c1.9,0,3.4,0.3,4.5,1
	c1.6,0.9,2.8,2.1,3.6,3.5c0.8,1.4,1.2,2.7,1.2,3.9L346,97.1L346,97.1z"/>
<path class="st2" d="M369.9,109.6c0.1-1.3,0.1-4.1,0.1-8.3c0-3.5-0.2-5.8-0.5-6.7c-0.3-0.9-1.1-1.8-2.5-2.6
	c-1.3-0.8-2.8-1.2-4.4-1.2c-2.3,0-4.2,0.9-5.8,2.7c-1.6,1.8-2.4,4.4-2.4,7.9c0,3.1,0.9,5.5,2.6,7.3s3.9,2.7,6.4,2.7
	c1.5,0,2.8-0.2,4-0.6C368.7,110.4,369.5,110,369.9,109.6 M369.8,91.2v-0.9v-3.5v-6.6c0-1.8-0.2-3-0.6-3.5s-1.6-1-3.5-1.5
	c-0.1,0-0.4-0.1-0.7-0.2v-0.3c0-0.2,0-0.4,0.1-0.7c2.7-0.3,5-0.7,7-1.4h1.5c0.1,1.4,0.1,2.9,0.1,4.5l-0.1,11.5l0.2,13l-0.1,6.9
	c0,1.4,0.1,2.2,0.3,2.4c0.4,0.4,1.3,0.6,2.6,0.6c0.3,0,0.7,0,1.1,0.1v0.5c0,0.1,0,0.3,0,0.5c-0.6,0.1-1.3,0.3-1.9,0.4l-4.3,0.8
	c-0.6,0.1-1.1,0.2-1.5,0.2v-2.9c-0.3,0.1-0.9,0.3-1.6,0.6c-3.1,1.3-6,2-8.6,2c-1.6,0-3.2-0.5-4.8-1.5c-1.6-1-2.9-2.5-3.8-4.3
	s-1.3-3.7-1.3-5.6c0-1.7,0.3-3.4,0.9-4.9c0.6-1.6,1.3-2.9,2.3-3.9c0.6-0.7,1.4-1.4,2.5-2c1.1-0.7,2-1.1,2.7-1.3
	c1.8-0.5,3-0.7,3.6-0.7c2.7,0,4.9,0.4,6.6,1.2C369.1,90.9,369.5,91.1,369.8,91.2"/>
<path class="st2" d="M384.9,96h1.4c1,0,4.1-0.2,9.1-0.5c0.8,0,1.3-0.1,1.5-0.2c0.4-0.4,0.5-0.7,0.5-1c0-0.6-0.2-1.3-0.6-2.1
	c-0.4-0.8-1-1.4-1.8-1.8s-1.8-0.6-2.9-0.6c-2.3,0-4.2,0.9-5.6,2.6C385.5,93.6,384.9,94.8,384.9,96 M401.6,97.1l-12,0.1h-2.3
	c-0.9,0-1.9,0-2.8,0.1c-0.2,0.6-0.3,1-0.3,1.2v0.3v0.3v1.5c0,1.2,0.4,2.7,1.2,4.5c0.8,1.8,1.9,3.1,3.3,4s3.2,1.4,5.3,1.5
	c1.1-0.1,2-0.2,2.7-0.4s1.6-0.7,2.9-1.5l2.2-1.8l0.2,1.2c0,0.1,0,0.3,0,0.5c-0.9,1.1-2,2.1-3.4,3s-2.8,1.5-4.2,1.9
	c-0.7,0.2-1.8,0.3-3.4,0.3c-1.4,0-2.8-0.3-4.2-0.9c-2-0.9-3.6-2.3-4.8-4.2c-1.2-1.9-1.7-4.3-1.7-7.1c0-0.9,0.2-2,0.5-3.4
	s0.9-2.8,1.8-4.4c0.6-1.1,1.3-1.9,2.1-2.6c1.2-1,2.2-1.6,3.1-2c1.3-0.5,2.8-0.8,4.5-0.8c1.9,0,3.4,0.3,4.5,1
	c1.6,0.9,2.8,2.1,3.6,3.5c0.8,1.4,1.2,2.7,1.2,3.9L401.6,97.1L401.6,97.1z"/>
<path class="st2" d="M404.9,113l-0.1-0.4c0-0.1,0.1-0.3,0.3-0.6l1.8-0.4l2.5-0.4c0.2-0.1,0.3-0.2,0.4-0.4c0.1-0.3,0.2-1,0.2-2.3
	c0-6.8,0-10.7-0.1-11.7s-0.3-1.7-0.5-2c-0.3-0.3-1-0.5-2.2-0.7c-0.7-0.1-1.2-0.2-1.6-0.4l0.1-0.9c2.1-0.9,3.5-1.6,4.2-2.2
	c1-0.9,1.8-2.1,2.5-3.5h1c0.1,1,0.2,3.2,0.2,6.6v0.5c0,0.1,0,0.3,0.1,0.6c0.8-1.4,1.7-2.6,2.8-3.8l0.7-0.7c0.3-0.3,0.5-0.6,0.8-0.7
	c1.4-0.8,2.4-1.3,3.1-1.3c0.9,0,1.6,0.3,2.2,0.9s0.8,1.3,0.8,2.2c0,0.7-0.2,1.2-0.6,1.6c-0.5,0.5-1.2,0.7-1.9,0.7
	c-0.3,0-0.9-0.2-1.9-0.5c-0.9-0.3-1.6-0.5-1.9-0.5c-0.6,0-0.9,0.1-1.2,0.3c-0.6,0.4-1.2,1.3-2,2.7c-0.6,1-0.9,2-0.9,2.8l0.1,4.9
	l0.1,5.9c0.1,0.7,0.1,1.1,0.2,1.3c0.1,0.1,0.3,0.3,0.6,0.5c2.2,0.2,3.4,0.3,3.8,0.4c0.3,0,0.5,0,0.6,0.1c0.9,0,1.5,0.1,1.8,0.4
	c0.2,0.1,0.3,0.2,0.3,0.4c0,0.1-0.1,0.3-0.2,0.5l-3.3-0.1h-1.3h-1.8h-3.1l-1.6,0.1L404.9,113z"/>
<path class="st2" d="M430.3,76.1c0-0.7,0.3-1.2,0.8-1.7s1.1-0.7,1.8-0.7c0.7,0,1.4,0.3,1.9,0.8c0.6,0.5,0.8,1.1,0.8,1.7
	s-0.3,1.2-0.8,1.8c-0.6,0.5-1.2,0.8-1.9,0.8c-0.7,0-1.4-0.3-1.9-0.7C430.5,77.6,430.3,76.9,430.3,76.1 M427.8,91.6v-0.9
	c1.3-0.4,2-0.6,2.1-0.7c0.7-0.3,1.5-0.8,2.3-1.5s1.4-1.4,2-2.2c0.2,0,0.4-0.1,0.6-0.1h0.4c0.1,1,0.1,1.7,0.1,2.1
	c0,0.1,0,0.5-0.1,1.3v1.6v8.6l-0.1,9.1c0,0.7,0.1,1.3,0.4,1.5c0.3,0.3,1,0.6,2.3,1c0.8,0.2,1.4,0.4,1.8,0.6c0.1,0.1,0.1,0.3,0.1,0.4
	c0,0.1-0.1,0.3-0.1,0.4c-0.8,0-1.8-0.1-3-0.1c-1.7-0.1-2.8-0.2-3.3-0.2c-0.3,0-1.9,0-4.8,0.1c-0.6,0-1.2,0.1-1.7,0.1
	c-0.1,0-0.3,0-0.5-0.1c-0.1-0.1-0.1-0.3-0.1-0.4c0-0.3,0.2-0.5,0.6-0.7c0.1,0,1.1-0.3,3.1-0.7c0.6-0.1,1.1-0.3,1.3-0.6
	c0.3-0.4,0.5-1.1,0.5-2c0-1.5,0.1-5.7,0.1-12.6c0-1.4-0.1-2.2-0.2-2.6c-0.1-0.2-0.4-0.5-0.8-0.8C430.1,92.3,429.2,92,427.8,91.6"/>
<path class="st2" d="M462.3,107.4v1.9c-1.6,1.7-3.1,2.8-4.6,3.5s-3.3,1-5.4,1c-2.2,0-4.2-0.6-6-1.7c-1.8-1.2-3.2-2.8-4.1-5
	c-1-2.1-1.5-4.2-1.5-6.3c0-2.3,0.6-4.4,1.7-6.4c1.2-2,2.7-3.5,4.6-4.5s4.3-1.5,7.3-1.5c2.8,0,4.9,0.5,6.4,1.4
	c0.8,0.6,1.2,1.3,1.2,2.2c0,0.6-0.2,1.2-0.6,1.6s-1,0.6-1.6,0.6c-1,0-2.1-0.6-3.3-1.9c-0.7-0.8-1.4-1.3-2-1.6
	c-0.6-0.3-1.3-0.4-2-0.4c-1.8,0-3.3,0.7-4.4,2.2c-1.6,2.1-2.5,4.7-2.5,7.8c0,3.2,0.8,5.8,2.5,7.7s3.6,2.9,5.9,2.9
	c1.6,0,2.9-0.3,4.1-0.8C459.3,109.7,460.7,108.8,462.3,107.4"/>
<path class="st2" d="M463.7,112.8l-0.1-0.9c0.2-0.1,0.3-0.2,0.4-0.2s0.6-0.1,1.5-0.1c0.9-0.1,1.4-0.3,1.6-0.6s0.3-1.7,0.3-4.1
	l0.1-11.8l-0.1-2.1c0-0.2,0-0.8,0.1-2c0-0.5,0.1-1.2,0.1-1.9l-0.1-5.2v-4.5c0-1.1-0.2-1.8-0.5-2.1c-0.3-0.3-1.4-0.6-3.3-0.9V76
	c0-0.1,0-0.3,0-0.5c1.1-0.2,2.1-0.5,3-0.9c0.5-0.2,1.6-0.8,3.5-1.9h0.9c0,0.5,0,0.7,0,0.8v2.6v1.3l0.1,2.4v3.6v5.9l-0.1,7.4V99
	c0,0.3,0,0.7,0,1.2h0.3c0.7,0,1.4-0.2,2.1-0.7c3.1-2.2,5.1-3.8,5.9-4.6c0.8-0.8,1.2-1.4,1.2-1.7c0-0.2-0.1-0.5-0.4-0.8
	c-0.6-0.3-1.3-0.5-2-0.7c-0.2,0-0.5-0.1-0.7-0.1c-0.4-0.1-0.7-0.2-0.9-0.2l-0.1-0.3c0-0.1,0.1-0.3,0.1-0.6c3.2-0.1,5.9-0.2,8.2-0.2
	c1.3,0,2.7,0,4.2,0.1v0.4c0,0.1-0.1,0.3-0.1,0.5c-0.3,0.1-0.8,0.1-1.4,0.3c-1.2,0.2-2.2,0.5-2.8,0.8c-1.5,0.8-3.1,2-4.8,3.4
	c-1,0.9-1.8,1.6-2.5,2.2l-1.1,0.9c0.1,0.1,0.2,0.3,0.4,0.5c0.1,0.1,0.2,0.3,0.5,0.5c0.2,0.3,0.7,0.7,1.3,1.4c2.2,2.3,3.7,4,4.8,5.3
	c0.3,0.4,0.7,0.8,1.1,1.3c1.6,1.7,2.5,2.7,2.7,2.9c0.6,0.4,1.4,0.6,2.5,0.8c0.5,0.1,1,0.2,1.3,0.3c0.1,0.2,0.1,0.4,0.1,0.6v0.3
	c-1.4-0.1-2.4-0.2-3.1-0.2h-0.5l-8.3,0.2c-0.3,0-0.5,0.1-0.7,0.1s-0.4,0-0.6-0.1c-0.1-0.2-0.1-0.3-0.1-0.4v-0.2
	c0.1-0.2,0.2-0.3,0.3-0.3c2-0.2,3.1-0.3,3.4-0.4c0.2,0,0.3-0.1,0.5-0.3c0-0.3-0.3-0.9-0.9-1.6c-0.6-0.8-2-2.4-4.3-5
	c-1.5-1.6-2.4-2.6-2.9-2.9c-0.4-0.3-1-0.4-1.8-0.4h-1.1c-0.1,0.7-0.1,2.4-0.1,4.9c0,2.4,0.2,3.9,0.6,4.6c0.2,0.4,0.7,0.6,1.6,0.7
	c0.8,0.1,1.3,0.3,1.6,0.4c0.2,0.1,0.3,0.4,0.3,0.8c-1.2,0-2.2,0-3,0c-1.3,0-2.8,0-4.3,0.1c-0.9,0-1.7,0.1-2.2,0.1
	C465.2,112.9,464.6,112.9,463.7,112.8"/>
<path class="st2" d="M310.2,124.2l0.3,4.5c0.1,1.4,0.2,2.3,0.2,2.8l-0.8,0.1c-1.3-3-3-5.3-5-6.8s-4.4-2.3-7.3-2.3
	c-3.5,0-6.2,0.4-8.2,1.3c-2.8,1.2-5.3,3.3-7.3,6.3s-3,6.6-3,10.9c0,2.5,0.4,4.7,1.1,6.6s1.8,3.8,3.1,5.5c1.3,1.7,2.9,3.1,4.8,4.4
	c1.2,0.8,2.6,1.4,4.3,1.9c0.9,0.2,2.3,0.3,4.2,0.3c1.2,0,2.5-0.2,4-0.5s2.6-0.8,3.3-1.4c0.7-0.6,1.2-1.2,1.5-1.9s0.4-2.1,0.4-4.2
	c0-3.5-0.2-5.5-0.7-6c-0.5-0.6-1.9-0.9-4.3-1.1l-1.2-0.1h-0.8c-0.1,0-0.3-0.1-0.5-0.1l-0.4-0.7c0-0.1,0.1-0.2,0.2-0.4
	c1-0.2,3.3-0.2,6.8-0.2c0.8,0,2,0,3.8,0.1l3.1,0.1h2.8c0.5,0,1.2,0,1.9,0.1c0.1,0,0.2,0.1,0.3,0.1c0,0,0.1,0.1,0.1,0.3
	s-0.1,0.5-0.2,0.8c-0.8,0.2-1.5,0.3-1.9,0.3h-1.9c-0.7,0-1.2,0.2-1.6,0.7c-0.2,0.2-0.3,1-0.3,2.2v3.9c0,2.7-0.1,4.4-0.3,5.1
	c-0.1,0.4-0.4,0.8-0.7,1.2c-0.4,0.3-1.2,0.8-2.4,1.2c-1.7,0.7-3.3,1.2-4.7,1.4c-2.6,0.5-5.2,0.7-7.6,0.7c-4,0-7.2-0.5-9.7-1.5
	s-4.7-2.4-6.5-4.2s-3.1-3.6-3.9-5.4c-1.2-2.7-1.8-5.4-1.8-8.2c0-3.5,0.9-6.9,2.8-10.2c1.8-3.3,4.8-6.1,8.9-8.2
	c2.9-1.5,6.8-2.2,11.8-2.2c3.4,0,6.2,0.3,8.4,0.9C307.2,122.8,308.9,123.5,310.2,124.2"/>
<path class="st2" d="M317.5,137.1h2.2l1,0.1l0.8-0.1c2,0,3.3,0,3.8,0.1v0.6c0,2.8,0,5.5-0.1,8.2c-0.1,1.6-0.1,2.4-0.1,2.7
	c0,3.5,0.1,5.7,0.3,6.6c0.2,0.9,0.8,1.6,1.6,2.1c0.8,0.5,1.9,0.8,3.1,0.8c1.5,0,2.9-0.3,4.2-0.9c1.3-0.6,2.5-1.4,3.4-2.2
	c0.1-0.8,0.1-1.6,0.1-2.5c0-3,0-5,0.1-6c0-0.6,0-1.2,0-1.6c0-3.2-0.2-5.1-0.5-5.5s-1.5-0.7-3.7-1c-0.7-0.1-1.2-0.1-1.5-0.2
	c-0.2-0.3-0.2-0.5-0.2-0.6l0.1-0.3c0.5-0.1,1-0.1,1.5-0.1l4.8,0.1c1.7,0,2.6-0.1,2.7-0.1c0.2,0,0.4,0,0.6,0l0.1,2.2
	c-0.1,3-0.2,6.8-0.2,11.3l-0.1,2.4l0.1,4.1c0.2,0.3,0.3,0.5,0.5,0.6s0.7,0.1,1.5,0.1h0.3c0.3,0,1,0.1,2.2,0.2c0,0.3,0,0.4,0,0.6v0.3
	c-2.7,0.6-4.8,1.2-6.5,1.7c-0.7,0.2-1.2,0.4-1.7,0.5c-0.1-0.7-0.1-1.1-0.1-1.3v-2.7c0-0.1,0-0.4,0-0.8c-0.3,0.2-0.6,0.4-0.9,0.7
	c-1.6,1.2-3.2,2.2-5,3.1c-1.2,0.6-2.3,0.9-3.4,0.9c-2.1,0-3.8-0.8-5.1-2.3c-1.3-1.6-2-4.2-2-8c0-0.2,0-0.6,0-1.1
	c0.1-1,0.1-1.6,0.1-2c0-0.1,0-0.6,0-1.3c0-0.3,0-0.6,0-0.8s0-0.6,0-1.2c0-0.6,0-1.1,0-1.3c0-0.3,0-0.6,0-0.9l-0.1-1.6v-0.8
	c0-0.3-0.2-0.6-0.5-0.9c-1.3-0.3-2.1-0.5-2.5-0.6c-0.4,0-0.7-0.1-1-0.3v-1H317.5z"/>
<path class="st2" d="M347.8,159.6c0.5-0.1,1.1-0.3,1.7-0.4c1.3-0.2,2-0.4,2.3-0.6c0.3-0.2,0.4-0.8,0.4-1.6l0.1-1.1
	c0-0.4,0-0.9,0-1.5l-0.1-9.2c0-1.2-0.2-2-0.5-2.4c-0.5-0.6-1.5-0.9-3-1.2v-1.1c1.5-0.4,2.6-0.9,3.3-1.6c1.1-0.9,2.1-2.1,2.9-3.7h1
	c0.1,0.9,0.1,1.6,0.1,2v2v0.5c0.2-0.2,0.5-0.4,0.8-0.6c1.2-0.9,2.4-1.6,3.7-2.2c1.3-0.6,2.4-1,3.4-1.2c0.6-0.2,1.3-0.2,2.1-0.2
	c1.6,0,3,0.4,4.2,1.3c1.2,0.9,1.9,1.9,2.3,3.1c0.3,1.2,0.5,3.6,0.5,7.1v4.5c0,0.1,0,0.5,0,1.2s0,1.5,0,2.3c0,1.4,0.1,2.3,0.2,2.7
	c0.1,0.3,0.4,0.5,0.8,0.8c1.9,0.3,3,0.6,3.4,0.9v0.2c0,0.2-0.1,0.4-0.2,0.7h-0.6l-3.9-0.1l-3.9,0.1c-1.4,0-2.8,0-4,0l-0.2-0.6
	c0-0.1,0.1-0.3,0.2-0.5c0.5-0.2,1.3-0.4,2.3-0.5c0.6,0,1-0.1,1.2-0.2c0.2-0.1,0.5-0.2,0.8-0.5c0.2-0.5,0.4-0.9,0.4-1.2
	c0-0.1,0-0.4-0.1-0.8c-0.1-0.9-0.1-3.2-0.1-6.9v-1.6l0.1-2.4c0-2.6-0.5-4.4-1.6-5.3c-1-1-2.4-1.5-4.2-1.5c-1.3,0-2.6,0.3-3.9,0.9
	c-1.3,0.6-2.5,1.5-3.7,2.6c0,1-0.1,1.8-0.1,2.5l0.1,6.6c0,3.4,0,5.6,0.1,6.3c0,0.3,0.1,0.5,0.2,0.7c0.2,0.2,0.5,0.3,1,0.4
	c0.5,0.1,1,0.2,1.7,0.4c0.6,0.2,1,0.3,1.2,0.3c0.4,0.1,0.7,0.3,0.8,0.6v0.6h-3.1l-6.5-0.1c-1.5,0-2.4,0-2.8,0h-0.7l-0.1-0.4
	C347.7,160,347.7,159.8,347.8,159.6"/>
<path class="st2" d="M379.2,159.6c0.5-0.1,1.1-0.3,1.7-0.4c1.3-0.2,2-0.4,2.3-0.6c0.2-0.2,0.4-0.8,0.4-1.6l0.1-1.1
	c0-0.4,0-0.9,0-1.5l-0.1-9.2c0-1.2-0.2-2-0.5-2.4c-0.5-0.6-1.5-0.9-3-1.2v-1.1c1.5-0.4,2.6-0.9,3.4-1.6c1.1-0.9,2.1-2.1,2.9-3.7h1
	c0.1,0.9,0.1,1.6,0.1,2v2v0.5c0.2-0.2,0.5-0.4,0.8-0.6c1.2-0.9,2.4-1.6,3.7-2.2c1.3-0.6,2.4-1,3.4-1.2c0.6-0.2,1.3-0.2,2.1-0.2
	c1.6,0,3,0.4,4.2,1.3c1.2,0.9,1.9,1.9,2.3,3.1c0.4,1.2,0.5,3.6,0.5,7.1v4.5c0,0.1,0,0.5,0,1.2s0,1.5,0,2.3c0,1.4,0.1,2.3,0.2,2.7
	c0.1,0.3,0.4,0.5,0.8,0.8c1.9,0.3,3,0.6,3.4,0.9v0.2c0,0.2-0.1,0.4-0.2,0.7h-0.6l-4-0.1l-3.9,0.1c-1.4,0-2.8,0-4,0l-0.2-0.6
	c0-0.1,0.1-0.3,0.2-0.5c0.5-0.2,1.3-0.4,2.3-0.5c0.6,0,1-0.1,1.2-0.2c0.2-0.1,0.5-0.2,0.8-0.5c0.2-0.5,0.4-0.9,0.4-1.2
	c0-0.1,0-0.4-0.1-0.8c-0.1-0.9-0.1-3.2-0.1-6.9v-1.6l0.1-2.4c0-2.6-0.5-4.4-1.6-5.3s-2.4-1.5-4.2-1.5c-1.3,0-2.6,0.3-3.9,0.9
	c-1.3,0.6-2.5,1.5-3.7,2.6c0,1-0.1,1.8-0.1,2.5l0.1,6.6c0,3.4,0,5.6,0.1,6.3c0,0.3,0.1,0.5,0.2,0.7c0.2,0.2,0.5,0.3,1,0.4
	s1,0.2,1.7,0.4c0.6,0.2,1,0.3,1.2,0.3c0.4,0.1,0.7,0.3,0.8,0.6v0.6h-3.1l-6.5-0.1c-1.5,0-2.4,0-2.8,0h-0.8l-0.1-0.4
	C379.1,160,379.1,159.8,379.2,159.6"/>
<path class="st0" d="M294.9,171.3c0.2,1.3,0.2,2.1,0.2,2.3l-0.1,2.7c0,1.1-0.1,1.9-0.1,2.2c-0.2,0.1-0.3,0.1-0.4,0.1l-0.3-0.1
	c-0.6-2.8-1.7-4.8-3.2-6.1s-3.4-1.9-5.6-1.9c-2.3,0-4.1,0.6-5.6,1.9c-1.5,1.3-2.2,2.8-2.2,4.5c0,1.3,0.5,2.5,1.5,3.6
	s3.6,2.7,7.8,4.8c3.2,1.6,5.5,3,6.8,4c1.4,1,2.4,2.3,3.1,3.6c0.7,1.4,1,2.9,1,4.6c0,2.1-0.6,4.1-1.7,6s-2.6,3.3-4.5,4.2
	s-4.4,1.4-7.5,1.4c-2.7,0-5.3-0.4-7.8-1.3c-1.5-0.5-2.3-0.9-2.7-1.3s-0.5-0.7-0.5-1c0-0.2,0-0.5,0.1-0.8c0.3-2.4,0.4-4.3,0.4-5.8
	c0-0.9,0.1-1.5,0.2-1.6s0.2-0.2,0.4-0.2c0.2,0,0.3,0.1,0.4,0.2c0.1,0.1,0.2,0.4,0.2,0.7c0.2,2.5,1.4,4.6,3.4,6.6
	c2,1.9,4.3,2.9,6.9,2.9c1.6,0,3-0.3,4.4-1c1.3-0.7,2.4-1.6,3.1-2.9c0.7-1.2,1.1-2.5,1.1-3.6c0-1.6-0.6-3.1-1.7-4.4
	c-1.1-1.3-3.4-2.9-6.9-4.7c-3.4-1.8-5.7-3.1-6.7-3.9c-1.7-1.3-2.9-2.8-3.8-4.2c-0.6-1.2-0.9-2.5-0.9-4c0-2.8,1.1-5.1,3.3-7
	c2.2-1.9,5.1-2.9,8.8-2.9c2,0,3.8,0.2,5.3,0.7C292.7,169.9,293.8,170.5,294.9,171.3"/>
<path class="st0" d="M323.6,202.8v1.9c-1.6,1.7-3.1,2.8-4.6,3.5s-3.3,1-5.4,1c-2.2,0-4.2-0.6-6-1.7c-1.8-1.2-3.2-2.8-4.1-5
	c-1-2.1-1.5-4.2-1.5-6.3c0-2.3,0.6-4.4,1.8-6.4c1.2-2,2.7-3.5,4.6-4.5s4.3-1.5,7.3-1.5c2.8,0,4.9,0.5,6.4,1.4
	c0.8,0.6,1.2,1.3,1.2,2.2c0,0.6-0.2,1.2-0.6,1.6c-0.4,0.4-1,0.6-1.6,0.6c-1,0-2.1-0.6-3.3-1.9c-0.7-0.8-1.4-1.3-2-1.6
	s-1.3-0.4-2-0.4c-1.8,0-3.3,0.7-4.4,2.2c-1.6,2.1-2.5,4.7-2.5,7.8c0,3.2,0.8,5.8,2.5,7.7s3.6,2.9,5.9,2.9c1.6,0,2.9-0.3,4.1-0.8
	C320.5,205.1,321.9,204.1,323.6,202.8"/>
<path class="st0" d="M326,207.5c2.3-0.4,3.7-0.7,4-1c0.2-0.1,0.3-0.5,0.3-1v-2V200l-0.1-8.9v-3.3v-2.4l0.1-2.9c0-4.5,0-7.3-0.1-8.1
	c-0.1-0.9-0.3-1.4-0.5-1.7c-0.5-0.5-1.8-0.9-4-1.4v-0.1c0-0.1,0-0.3,0.1-0.6c0.3,0,0.5-0.1,0.8-0.1c0.3-0.1,0.5-0.1,0.7-0.1
	c2.4-0.7,4.1-1.3,5.2-2h1.5c0,0.6,0.1,2.3,0.1,5.3v3.8v4.9l-0.1,6c0,0.4,0,0.8,0.1,1.2c1.3-1.5,2.2-2.4,2.8-2.9c1-0.8,2.1-1.5,3.3-2
	c1.2-0.5,2.4-0.7,3.7-0.7c2.5,0,4.5,1,6,3.1c0.9,1.2,1.3,2.9,1.3,5.2l-0.1,3v1.7l-0.1,3c-0.1,2.5-0.1,3.9-0.1,4.4s0,1.2,0.1,2.1
	l1.7,0.4c1.1,0.2,2,0.5,2.6,0.7v0.9l-6.4-0.2c-0.4,0-1.3,0-2.9,0.1c-1,0-1.5,0.1-1.7,0.1h-0.7c-0.1-0.2-0.1-0.3-0.1-0.4v-0.3
	c0.3-0.4,0.8-0.6,1.6-0.7l1.8-0.4c0.2-0.2,0.4-0.4,0.4-0.6c0.1-0.5,0.2-3.1,0.3-7.7l0.1-2.2c0.1-2.3-0.1-4.3-0.5-5.8
	c-0.3-1.1-0.9-1.9-1.9-2.5s-2.1-0.9-3.4-0.9c-1.1,0-2.1,0.2-3.1,0.7c-0.7,0.3-1.4,0.9-2.4,1.8c-0.9,0.8-1.6,1.6-1.9,2.1
	c-0.2,0.4-0.4,1.1-0.4,2v2.1l-0.1,2.2c0,0.2,0,1.4,0.1,3.7v1.9l0.1,2.1c0,0.3,0,0.5,0.1,0.7l4.2,1c0.2,0.1,0.5,0.2,1,0.4l0.1,0.3
	c0,0.1,0,0.3-0.1,0.5c-0.6,0-1,0-1.3,0h-2.3l-5.1,0.1l-3.9,0.1c-0.2,0-0.5,0-0.9-0.1v-0.2C325.8,207.9,325.9,207.7,326,207.5"/>
<path class="st0" d="M369.9,207.9c1.5,0,3-0.4,4.4-1.2s2.5-2.1,3.4-3.9c0.8-1.8,1.3-3.9,1.3-6.3c0-1.6-0.3-3.4-1-5.4
	c-0.7-2.1-1.6-3.6-3-4.6s-2.9-1.5-4.7-1.5c-1.3,0-2.7,0.3-4,0.9c-1.4,0.6-2.5,1.8-3.5,3.6c-0.9,1.8-1.4,4.2-1.4,7.5
	c0,3.6,0.8,6.4,2.5,8.2C365.4,206.9,367.5,207.9,369.9,207.9 M356.7,196.2c0-1.4,0.3-2.8,0.9-4.4c0.6-1.5,1.4-2.9,2.6-4.2
	c1.2-1.2,2.4-2.1,3.7-2.7c1.8-0.8,4-1.3,6.6-1.3c3.7,0,6.8,1.3,9.3,3.8c2.5,2.6,3.8,5.6,3.8,9.2c0,3.2-1.3,6-3.9,8.5
	s-5.9,3.8-9.9,3.8c-2.5,0-4.8-0.6-7-1.9c-1.6-1-3-2.4-4.2-4.3C357.3,200.8,356.7,198.7,356.7,196.2"/>
<path class="st0" d="M400.2,207.9c1.5,0,3-0.4,4.4-1.2s2.5-2.1,3.4-3.9c0.8-1.8,1.3-3.9,1.3-6.3c0-1.6-0.3-3.4-1-5.4
	c-0.7-2.1-1.6-3.6-3-4.6c-1.3-1-2.9-1.5-4.7-1.5c-1.3,0-2.7,0.3-4,0.9c-1.4,0.6-2.5,1.8-3.5,3.6c-0.9,1.8-1.4,4.2-1.4,7.5
	c0,3.6,0.8,6.4,2.5,8.2C395.7,206.9,397.8,207.9,400.2,207.9 M387,196.2c0-1.4,0.3-2.8,0.9-4.4c0.6-1.5,1.4-2.9,2.6-4.2
	c1.2-1.2,2.4-2.1,3.7-2.7c1.8-0.8,4-1.3,6.6-1.3c3.7,0,6.8,1.3,9.4,3.8c2.5,2.6,3.8,5.6,3.8,9.2c0,3.2-1.3,6-3.9,8.5
	s-5.9,3.8-9.9,3.8c-2.5,0-4.8-0.6-7-1.9c-1.6-1-3-2.4-4.2-4.3C387.6,200.8,387,198.7,387,196.2"/>
<path class="st0" d="M415.6,171.2v-0.7c0.6-0.2,1.2-0.4,1.9-0.6c1-0.3,2.5-0.8,4.5-1.5h1.4v1.6c0,16.4-0.1,26.2-0.1,29.3
	c-0.1,1.9-0.1,2.8-0.1,3c0,2.2,0.1,3.5,0.3,3.7c0.2,0.4,1,0.6,2.2,0.7c1.2,0.1,2,0.3,2.2,0.4c0.2,0.1,0.2,0.2,0.2,0.4s0,0.4-0.1,0.5
	s-0.3,0.1-0.5,0.1c-0.1,0-1.2,0-3.1-0.1l-3.9-0.1l-5,0.2c-0.3,0-0.6,0-0.7-0.2c-0.1-0.1-0.2-0.2-0.2-0.4s0.1-0.4,0.2-0.4
	c0.1-0.1,0.8-0.2,2.2-0.5c1.3-0.2,2.1-0.4,2.2-0.6c0.2-0.1,0.3-0.5,0.4-1c0.1-0.7,0.1-2.7,0.1-6.1V192l0.1-7.1v-7.1l0.1-3.5
	c0-0.7-0.1-1.2-0.3-1.5c-0.2-0.3-0.7-0.6-1.4-0.9C416.7,171.7,416,171.4,415.6,171.2"/>
</svg>
