<?xml version="1.0" encoding="UTF-8"?>
<svg id="Layer_1" xmlns="http://www.w3.org/2000/svg" version="1.1" viewBox="0 0 271.13 73.887">
  <!-- Generator: Adobe Illustrator 29.5.0, SVG Export Plug-In . SVG Version: 2.1.0 Build 137)  -->
  <defs>
    <style>
      .st0, .st1 {
        fill: #ae1d43;
      }

      .st0, .st2 {
        fill-rule: evenodd;
      }

      .st3 {
        fill: #231f20;
      }

      .st4, .st2 {
        fill: #fff;
      }

      .st5 {
        fill: none;
        stroke: #000;
        stroke-width: .94px;
      }
    </style>
  </defs>
  <g>
    <g>
      <path class="st2" d="M8.295,65.036c-3.371,1.25-3.327,2.809-3.327,2.809,0,0,1.716-.728,3.18-.364,1.464.364,3.857,1.918,4.453.232.478-1.359-1.82-2.132-4.306-2.682v.005Z"/>
      <path d="M11.482,68.749c-.669,0-1.455-.305-2.221-.602-.428-.167-.833-.324-1.177-.409-1.361-.335-2.995.344-3.012.351l-.358.151-.011-.389c-.002-.07-.009-1.707,3.327-2.999v-.153l.323.071c2.611.579,3.974,1.193,4.419,1.994.18.324.207.673.08,1.035-.138.392-.374.666-.7.816-.204.094-.429.133-.67.133ZM7.252,67.113c.318,0,.643.031.96.11.376.093.796.256,1.24.429.896.348,1.911.744,2.478.482.193-.089.33-.255.42-.509.077-.219.063-.409-.043-.6-.511-.92-3.031-1.503-3.983-1.715-2.013.758-2.715,1.615-2.959,2.113.448-.139,1.147-.309,1.888-.309Z"/>
    </g>
    <g>
      <path class="st2" d="M26.363,70.748l1.047-2.586c.269-.673,1.086-1.795,1.073-2.763-.013-.968-.322-1.623-1.503-2.418-1.546-1.036-5.274-1.637-9.992-3.345-4.171-1.513-6.877-3.841-11.547-4.677-2.376-.427-4.457-.231-5.156,1.341,0,0,.369,1.1.699,2.586s.274,3.277.044,4.408l-.022.3s-.122-2.981,4.123-1.968c3.345.8,7.038,3.077,9.24,3.767,2.198.691,6.738,1.427,8.763,2.254,2.198.9,3.619,2.041,3.232,3.09v.009Z"/>
      <path d="M26.098,72.113l.016-1.465c.294-.798-.887-1.854-3.083-2.753-1.148-.469-3.13-.911-5.046-1.337-1.417-.316-2.756-.614-3.696-.91-.901-.283-2.007-.806-3.288-1.413-1.856-.88-3.959-1.877-5.934-2.349-1.444-.344-2.502-.254-3.144.271-.365.298-.525.69-.596.988-.012.068-.024.134-.037.198,0,.004,0,.007-.001.01l-.017.262-.53-.009c0-.021-.009-.27.072-.602.181-1.102.217-2.688-.088-4.059-.323-1.453-.688-2.549-.692-2.56l-.033-.098.042-.095c.676-1.519,2.507-2.024,5.446-1.494,2.911.521,5.023,1.591,7.259,2.723,1.348.682,2.741,1.388,4.332,1.965,2.058.745,3.893,1.269,5.513,1.732,2.029.579,3.632,1.037,4.536,1.642,1.166.785,1.605,1.499,1.621,2.635.01.754-.419,1.558-.763,2.204-.132.246-.255.479-.329.661l-1.559,3.851ZM3.538,61.151c.492,0,1.044.073,1.652.218,2.029.485,4.159,1.494,6.039,2.385,1.21.573,2.353,1.115,3.219,1.387.918.288,2.246.584,3.652.897,1.938.432,3.942.878,5.132,1.364,1.726.707,2.848,1.504,3.271,2.293l.661-1.633c.084-.209.214-.454.353-.713.316-.592.709-1.33.701-1.947-.011-.831-.236-1.427-1.386-2.201-.834-.559-2.401-1.006-4.385-1.573-1.628-.465-3.473-.991-5.548-1.743-1.621-.588-3.029-1.301-4.391-1.991-2.201-1.114-4.279-2.166-7.113-2.674-1.799-.322-4.075-.389-4.824,1.098.099.309.401,1.286.674,2.511.218.982.27,2.071.222,3.022.036-.034.074-.068.115-.101.485-.399,1.141-.599,1.958-.599Z"/>
    </g>
    <path class="st2" d="M12.601,67.717c.556-1.568-2.55-2.359-5.431-2.922-1.842-.359-5.947.295-6.164-1.191,0,0-.122-2.981,4.123-1.968,2.333.559,4.831,1.832,6.877,2.79.035.164.648,2.795.648,2.795"/>
    <path d="M12.601,67.983c-.029,0-.059-.005-.089-.015-.138-.049-.211-.201-.161-.339.043-.123.059-.237.045-.347h-.002s-.013-.057-.036-.156c-.015-.038-.033-.076-.055-.115-.605-1.059-3.813-1.687-5.184-1.955-.57-.111-1.378-.121-2.234-.132-1.948-.024-3.963-.049-4.142-1.281-.005-.074-.038-1.163.837-1.883.777-.64,1.991-.769,3.61-.382,2.047.49,4.191,1.509,6.082,2.408l.965.456.027.129c.029.137.463,2.001.603,2.604.091.265.085.543-.017.831-.038.109-.141.177-.25.177ZM3.535,61.689c-.685,0-1.225.159-1.612.476-.672.549-.652,1.421-.651,1.429.112.754,2.057.778,3.621.798.88.011,1.712.021,2.329.142,1.959.383,3.857.838,4.895,1.554-.134-.579-.28-1.206-.342-1.476l-.73-.346c-1.868-.888-3.985-1.894-5.978-2.372-.571-.136-1.083-.204-1.531-.204Z"/>
    <g>
      <path class="st2" d="M49.953,65.463c3.376,1.313,3.332,2.867,3.332,2.867,0,0-1.721-.759-3.185-.423-1.464.336-3.866,1.841-4.461.146-.482-1.363,1.825-2.091,4.314-2.59Z"/>
      <path d="M46.799,69.111c-.255,0-.494-.042-.709-.143-.328-.154-.564-.433-.703-.827-.129-.364-.101-.714.082-1.036.45-.791,1.816-1.378,4.431-1.903l.076-.015.073.028c3.509,1.366,3.503,3.052,3.502,3.122l-.011.395-.361-.159c-.016-.007-1.66-.718-3.019-.407-.342.079-.746.227-1.173.384-.753.277-1.526.561-2.187.561ZM49.928,65.739c-.945.19-3.481.721-3.997,1.629-.107.187-.12.377-.043.597.091.259.231.43.428.523.569.269,1.588-.105,2.486-.435.443-.163.863-.317,1.238-.403,1.048-.241,2.201.038,2.844.25-.248-.501-.953-1.366-2.957-2.16Z"/>
    </g>
    <g>
      <path class="st2" d="M57.234,63.877c-.231-1.136-.278-2.95.043-4.399.33-1.477.699-2.568.699-2.568-.699-1.581-2.785-1.818-5.165-1.44-4.683.745-7.394,3.013-11.573,4.44-4.726,1.613-8.463,2.136-10.013,3.14-1.186.768-1.499,1.418-1.508,2.381-.009.964.808,2.1,1.078,2.777l1.051,2.599c-.387-1.054,1.038-2.168,3.241-3.022,2.025-.786,6.573-1.432,8.78-2.077,2.207-.645,5.908-2.85,9.257-3.581,4.253-.927,4.132,2.045,4.132,2.045l-.022-.3v.004Z"/>
      <path d="M31.6,70.907l-1.052-2.599c-.074-.187-.2-.424-.333-.675-.344-.648-.771-1.456-.764-2.204.01-1.134.452-1.839,1.629-2.602.905-.587,2.509-1.01,4.539-1.547,1.625-.43,3.467-.916,5.533-1.622,1.594-.545,2.992-1.221,4.343-1.876,2.24-1.085,4.357-2.111,7.275-2.575,2.94-.467,4.775.07,5.449,1.596l.042.095-.034.098c-.004.01-.369,1.096-.692,2.54-.305,1.374-.259,3.011-.084,4.063.077.324.069.564.068.585l-.53.008-.02-.276c-.012-.06-.024-.123-.035-.187-.071-.3-.232-.699-.601-1.007-.644-.538-1.706-.65-3.154-.335-1.976.432-4.081,1.385-5.939,2.227-1.286.582-2.395,1.085-3.301,1.35-.939.275-2.276.545-3.69.831-1.926.389-3.917.792-5.069,1.239-2.199.853-3.382,1.88-3.087,2.682l-.496.191ZM54.607,55.58c-.591,0-1.196.063-1.754.151-2.84.452-4.923,1.461-7.127,2.529-1.365.661-2.777,1.345-4.402,1.9-2.084.711-3.936,1.201-5.57,1.633-1.984.524-3.551.938-4.385,1.479-1.156.748-1.379,1.337-1.387,2.161-.005.613.387,1.355.703,1.951.14.264.272.513.356.725l.668,1.651c.426-.78,1.552-1.552,3.281-2.223,1.193-.463,3.207-.87,5.155-1.264,1.403-.284,2.728-.552,3.646-.82.869-.254,2.016-.773,3.23-1.323,1.881-.852,4.014-1.819,6.045-2.262,1.623-.353,2.837-.201,3.615.451.041.035.08.07.117.106-.046-.947.004-2.038.218-3.005.272-1.216.574-2.185.674-2.492-.518-1.035-1.767-1.347-3.084-1.347Z"/>
    </g>
    <path class="st2" d="M45.634,68.054c-.556-1.573,2.559-2.305,5.443-2.809,1.847-.323,5.96.414,6.177-1.068,0,0,.122-2.972-4.131-2.045-2.345.514-4.835,1.736-6.894,2.65-.034.164-.647,2.772-.647,2.772"/>
    <path d="M45.634,68.319c-.109,0-.212-.068-.25-.177-.1-.283-.107-.555-.022-.813.135-.573.579-2.463.607-2.602l.028-.133.124-.056c.309-.137.627-.281.952-.428,1.862-.842,3.973-1.796,5.993-2.239,1.621-.353,2.837-.201,3.614.451.875.735.841,1.819.839,1.865-.183,1.26-2.204,1.241-4.156,1.231-.859-.007-1.668-.013-2.241.088-1.37.239-4.58.8-5.191,1.844-.024.042-.045.084-.06.127-.02.087-.032.137-.032.137h-.001c-.015.11,0,.226.045.35.049.139-.023.29-.162.339-.029.01-.059.015-.089.015ZM46.459,64.97c-.063.274-.209.9-.344,1.474,1.041-.699,2.948-1.117,4.917-1.461.619-.108,1.451-.104,2.336-.095,1.563.01,3.51.026,3.624-.749h0s.011-.856-.657-1.413c-.645-.537-1.706-.649-3.154-.335-1.966.431-4.05,1.373-5.888,2.204-.284.129-.562.255-.834.375Z"/>
    <g>
      <path class="st2" d="M26.363,70.748l.917-2.29c.83.323,2.389.341,3.41,0l1.156,2.35c.66,1.808,3.132-1.482,4.053.736,1.038,2.509-2.342,2.068-6.773,2.018-3.075,0-7.837.336-6.807-2.154.913-2.204,3.384,1.141,4.044-.659Z"/>
      <path d="M32.604,73.887c-.566,0-1.185-.014-1.848-.03-.523-.012-1.069-.024-1.632-.031-.313,0-.648.004-.992.007-2.455.029-5.234.056-6.01-1.091-.264-.391-.28-.875-.047-1.438.179-.432.436-.72.763-.855.577-.238,1.246.04,1.835.286.45.187.915.384,1.176.268.111-.049.198-.162.266-.347l.003-.007,1.015-2.535.245.095c.791.308,2.3.305,3.229-.004l.22-.073,1.258,2.558c.081.215.169.331.283.383.262.117.725-.067,1.174-.245.85-.337,2.015-.8,2.602.613.278.672.28,1.193.006,1.593-.487.71-1.755.854-3.547.854ZM29.126,73.295c.568.006,1.117.019,1.641.031,2.396.055,4.467.104,4.945-.593.165-.24.145-.596-.059-1.089-.367-.883-.967-.698-1.916-.322-.577.228-1.123.443-1.587.236-.248-.112-.435-.333-.554-.659l-1.046-2.121c-.956.258-2.247.262-3.117.012l-.822,2.054c-.119.322-.304.54-.551.648-.468.203-1.015-.023-1.593-.264-.519-.216-1.055-.441-1.428-.285-.195.081-.351.266-.475.567-.163.393-.164.7-.003.936.616.91,3.477.881,5.564.858.346-.004.683-.007,1.001-.007Z"/>
    </g>
    <g>
      <path class="st2" d="M22.684,70.853c1.342-1.7,1.09-2.64,1.316-2.75l.052-.031c1.655.822,2.633,1.782,2.307,2.672-.586,1.595-2.594-.85-3.675.104v.004Z"/>
      <path d="M22.418,71.618v-.889l.082-.073c.862-1.102,1.019-1.856,1.104-2.264.051-.244.091-.437.279-.528l.117-.057.169.027c1.93.959,2.796,2.025,2.438,3.002-.119.324-.305.543-.553.651-.469.204-1.015-.024-1.594-.266-.719-.3-1.223-.477-1.575-.196l-.468.592ZM23.367,70.353c.428.016.88.204,1.298.378.45.187.916.38,1.177.269.112-.049.199-.162.267-.347.238-.649-.477-1.458-1.966-2.237-.006.028-.012.057-.018.084-.077.366-.206.987-.758,1.853Z"/>
    </g>
    <g>
      <path class="st2" d="M35.534,70.984c-1.346-1.722-1.086-2.654-1.312-2.763l-.074-.023c-1.647.786-2.62,1.718-2.289,2.613.586,1.6,2.589-.791,3.679.173h-.004Z"/>
      <path d="M32.578,71.645c-.145,0-.283-.024-.414-.083-.248-.112-.435-.333-.555-.659-.361-.98.499-2.025,2.425-2.944l.093-.045.173.053c.227.106.266.298.316.541.083.407.237,1.161,1.102,2.279l.523.462h-.831l-.076-.091c-.357-.283-.861-.117-1.58.167-.397.157-.805.319-1.176.319ZM34.077,68.529c-1.493.747-2.209,1.54-1.969,2.19.07.189.159.306.273.357.262.117.727-.067,1.177-.244.417-.165.866-.342,1.293-.352-.555-.877-.682-1.498-.756-1.865-.005-.027-.012-.057-.018-.086Z"/>
    </g>
    <path class="st4" d="M29.017,61.031C52.016,44.779,54.527,35.427,54.575.018H3.465c0,35.408,2.507,44.739,25.557,61.013h-.004Z"/>
    <path class="st0" d="M22.071,14.962h13.932v12.175h16.834s-.786,7.085-4.136,13.589h-12.698v14.388l-6.964,5.436-6.964-5.436v-14.388h-12.698s-3.015-5.226-4.249-13.589h16.947v-12.175h-.004Z"/>
    <path d="M53.979.641c-.039,17.266-.729,28.291-4.127,36.803-3.241,8.131-8.901,14.335-20.818,22.797-11.946-8.476-17.616-14.684-20.856-22.805-1.668-4.177-2.729-9.044-3.341-15.316-.513-5.271-.738-11.721-.747-21.478h49.885M54.596,0H3.482c0,35.408,2.507,44.739,25.557,61.013C52.033,44.761,54.544,35.408,54.596,0Z"/>
    <path class="st1" d="M9.008,56.878l.204.373-.817-.027-.065-.118.678-.228Z"/>
    <path class="st1" d="M22.054,61.75l.196.382-.817-.068-.061-.118.682-.196Z"/>
    <g>
      <path class="st1" d="M32.011,64.227l1.13.741-1.03,1.395.165.559.769.059.365-.481.091.073-.748,1.005c-.226-.046-.408-.073-.551-.078-.144-.004-.334,0-.583.028l-.021-.078c.056-.063.083-.127.087-.195.004-.068-.022-.204-.083-.404l-.526-1.759c.165-.132.299-.246.404-.341.074-.073.252-.25.526-.528l.004.005ZM31.668,64.726l-.035.037.417,1.4.608-.818-.986-.613-.004-.005Z"/>
      <path class="st1" d="M34.986,64.386l.795.15.387,1.295c-.161.068-.296.159-.413.273-.117.114-.23.278-.351.491-.174-.041-.318-.063-.434-.063-.118,0-.235.018-.356.059-.187.059-.33.173-.439.336-.039.059-.074.096-.096.1-.022.009-.048,0-.074-.014-.026-.014-.048-.036-.053-.059-.009-.023,0-.064.031-.118.018-.032.043-.091.078-.182l.165-.436.222-.65-.752-.154-.343-1.15c.183-.132.322-.254.413-.378.091-.123.169-.268.234-.441.283.028.508.041.678.036.118-.004.23-.023.33-.054.109-.036.187-.091.234-.159.044-.068.061-.131.044-.186-.013-.036-.044-.068-.091-.091-.1-.046-.156-.104-.178-.173-.018-.064-.018-.118.004-.168.022-.05.052-.082.096-.096.056-.018.113-.009.174.032.061.041.104.1.126.186.022.086.035.182.026.277-.009.096-.048.228-.109.391l-.343.941-.004.004ZM34.778,64.994l-.413,1.227c.078-.059.152-.109.221-.145.069-.037.134-.068.196-.087.226-.073.482-.073.773.005l-.265-.891-.513-.105v-.004ZM34.188,64.881l.469.087.378-1.1c-.122.082-.231.141-.326.168-.244.078-.5.073-.778-.023l.256.868Z"/>
      <path class="st1" d="M35.864,63.217l.508-1.327.087-.027.222.859.591-.191.104.345-.591.191.616,2.077.404.15.143-.214.1.068-.486.754c-.291-.163-.587-.241-.891-.236l-.018-.064c.061-.081.096-.154.104-.223.009-.086-.004-.2-.048-.345l-.525-1.768-.278.091-.039-.136-.004-.005Z"/>
      <path class="st1" d="M40.182,61.45l.595.436-.343.545-.504-.391-.221.364.469,1.813.404.159.243-.341.096.082-.599.854c-.2-.104-.365-.177-.491-.209-.126-.032-.261-.054-.399-.054l-.018-.068c.069-.091.113-.168.122-.241.009-.073-.009-.2-.057-.386l-.33-1.268c-.043-.159-.087-.259-.134-.304-.048-.046-.091-.059-.131-.05-.043.014-.096.073-.152.177l-.096-.068.474-.741c.204.086.352.173.439.254.056.05.099.132.126.241l.513-.8-.004-.004Z"/>
      <path class="st1" d="M42.003,61.054l1.103.786-1.081,1.354.148.568.764.091.383-.464.091.073-.782.977c-.226-.054-.408-.086-.548-.1-.139-.013-.334-.009-.582,0l-.022-.077c.057-.059.087-.123.096-.191.009-.069-.018-.205-.069-.405l-.461-1.782c.169-.123.309-.231.413-.323.079-.068.261-.236.543-.509h.004ZM41.642,61.541l-.034.032.364,1.413.634-.795-.965-.65Z"/>
      <path class="st1" d="M44.005,60.195l1.051.15.46-.468.204.691-.56.064.417,1.4c.065.228.126.373.174.446.065.096.169.191.317.295.239.173.374.309.399.404.026.096.013.209-.048.328-.061.118-.261.336-.591.65-.148-.005-.283,0-.408.013-.126.014-.244.041-.352.078-.261.086-.543.232-.856.436l-.074-.091.443-1.077-.851-.296-.664-2.227c.365-.213.673-.477.934-.795h.004ZM44.527,63.972c.243-.128.443-.214.599-.264.143-.046.291-.073.448-.082.156-.009.317,0,.491.036l.096-.118c-.343-.173-.582-.323-.726-.449-.143-.128-.252-.282-.334-.464l-.569,1.345-.004-.004ZM44.562,60.822l-.891-.027.599,2.018.534.186.23-.582-.473-1.6v.004Z"/>
      <path class="st1" d="M47.585,58.882l.529.346.209-.377.109.059c-.104.173-.161.3-.174.378-.018.104,0,.236.043.395l.404,1.477c.039.136.087.232.143.286.039.036.074.05.104.041.026-.009.083-.068.165-.177l.1.073-.487.736c-.199-.082-.339-.164-.413-.25-.074-.086-.139-.241-.2-.459l-.46-1.695-.343-.214-.391.578.469,1.722.282.154-.404.6-.647-.286.161-.286-.43-1.581c-.061-.223-.126-.368-.187-.436-.044-.046-.087-.064-.122-.05-.039.014-.087.068-.148.173l-.1-.073.483-.732c.213.082.352.159.417.223.065.068.117.168.156.309l.031.114.699-1.032v-.014Z"/>
      <path class="st1" d="M51.039,57.778l.117.023c-.074.2-.113.35-.126.45-.013.1,0,.232.03.391l.269,1.345c.044.223.087.359.131.409.043.05.083.068.126.059.022-.004.044-.014.065-.032.013-.014.048-.059.109-.136l.096.082-.526.723c-.183-.091-.308-.182-.378-.273-.074-.086-.131-.223-.17-.4l-.764.959c-.404-.218-.634-.473-.691-.759-.039-.191-.034-.382.004-.564.057-.241.174-.536.356-.886l-.526-.732.026-.091c.078-.009.139-.019.178-.027.239-.05.426-.196.569-.432.165.059.339.096.521.109.183.018.322.014.417-.005.044-.009.074-.023.091-.045.022-.018.048-.073.083-.164l-.008-.004ZM50.4,58.545l-1.099-.104.529.732.73.182-.161-.809ZM50.587,59.482l-.804-.2c-.061.282-.074.518-.035.714.07.341.274.591.613.745l.378-.486-.156-.777.004.004Z"/>
      <path class="st1" d="M53.558,57.291l.513.541-.43.473-.43-.477-.278.318.156,1.868.373.232.296-.291.078.096-.734.732c-.183-.141-.331-.241-.448-.3-.118-.059-.248-.1-.387-.128v-.073c.078-.073.131-.146.153-.218.021-.073.026-.2.008-.391l-.108-1.309c-.013-.164-.039-.273-.083-.323-.039-.049-.078-.077-.122-.073-.048,0-.104.054-.178.146l-.083-.086.591-.641c.187.123.318.231.387.331.048.059.074.146.083.259l.638-.691.004.004Z"/>
      <path class="st1" d="M55.626,57.178l.873,1.059-1.377,1.018v.586l.717.296.482-.346.07.096-.995.732c-.204-.114-.374-.196-.504-.241-.131-.046-.321-.1-.561-.15v-.082c.07-.045.118-.095.139-.159.022-.064.034-.2.034-.409l-.009-1.845c.191-.073.352-.141.478-.2.091-.046.308-.159.647-.346l.004-.009ZM55.157,57.55l-.044.023v1.463l.817-.599-.773-.886Z"/>
    </g>
    <g>
      <path class="st1" d="M3.091,56.451l.834.495-.334.532-.63-.378.026,2.173.63.291.33-.264.034.146-.782.632c-.204-.118-.382-.209-.525-.264-.144-.054-.322-.104-.534-.146v-.082c.074-.054.121-.113.143-.177.035-.091.048-.228.048-.418l-.021-1.936c.265-.132.521-.336.778-.604h.004Z"/>
      <path class="st1" d="M6.666,56.836l.491.596-.291.204-.261,1.768c-.031.204-.026.354.018.45.026.068.061.104.1.109.03.005.096-.023.191-.077l.061.118-.752.436c-.148-.154-.243-.286-.278-.396-.039-.109-.044-.273-.013-.491-.361.168-.73.386-1.116.645-.178-.204-.291-.377-.334-.518-.044-.141-.053-.314-.018-.528l.243-1.663c.018-.118.018-.195.004-.232-.026-.068-.065-.109-.126-.118-.043-.009-.117.018-.217.082l-.061-.118.843-.527.499.595-.269.182-.265,1.791c-.018.131-.018.231.004.299.022.069.087.159.196.273l.643-.354.269-1.837-.186-.286.625-.404Z"/>
      <path class="st1" d="M8.5,57.523l.43.636-.304.186-.43,1.795c-.044.191-.061.318-.044.382.018.064.039.1.069.109.022.004.044.004.066,0,.03-.009.095-.037.195-.087l.053.123-.8.391c-.135-.173-.213-.318-.234-.441-.022-.123,0-.323.069-.6l.439-1.841-.169-.313.66-.336v-.004Z"/>
      <path class="st1" d="M11.962,60.386l.556.668-.478,1.341c-.174-.05-.339-.068-.499-.054-.161.014-.356.073-.586.168-.113-.154-.218-.268-.313-.35s-.204-.146-.326-.196c-.187-.077-.374-.081-.564-.023-.07.023-.118.028-.139.018-.022-.009-.039-.027-.052-.064-.013-.036-.018-.059-.009-.082.009-.027.043-.05.1-.077.034-.014.091-.05.174-.096l.399-.25.578-.386-.517-.641.422-1.186c.23.013.417.004.564-.032.148-.036.3-.105.461-.209.213.218.391.382.526.491.099.078.199.137.299.178.113.046.209.054.287.028.078-.028.13-.068.152-.128.013-.036.009-.086-.018-.141-.052-.105-.065-.196-.039-.264.021-.064.061-.109.108-.136.048-.028.091-.032.135-.014.056.023.096.068.121.141.026.073.022.155-.008.241-.031.086-.083.173-.148.245-.065.073-.178.155-.326.255l-.851.545-.009.009ZM11.419,60.749l-1.086.736c.1,0,.187.014.269.028.083.013.152.036.213.063.231.091.439.268.626.532l.33-.923-.352-.436ZM11.011,60.249l.326.391.978-.659c-.148-.013-.269-.041-.369-.081-.243-.1-.452-.282-.621-.55l-.321.895.009.004Z"/>
      <path class="st1" d="M14.768,60.167l.526,1.368-1.672.531-.183.586.613.546.582-.178.035.123-1.208.381c-.165-.186-.304-.327-.418-.423-.113-.096-.282-.214-.504-.35l.026-.082c.083-.018.143-.054.187-.109.043-.054.096-.186.161-.4l.573-1.85c.213-.004.391-.018.534-.032.104-.014.352-.05.743-.118l.004.004ZM14.191,60.377l-.048.009-.452,1.468.982-.314-.478-1.163h-.004Z"/>
      <path class="st1" d="M17.414,61.154l.313.736-.578.3-.252-.641-.383.204-.495,1.908.283.373.386-.173.044.128-.965.436c-.126-.209-.239-.368-.334-.468-.096-.1-.204-.196-.33-.277l.017-.073c.109-.041.183-.091.231-.15.048-.059.091-.186.143-.381l.348-1.336c.044-.168.056-.286.035-.35-.022-.068-.053-.104-.096-.118-.048-.014-.122.009-.226.073l-.052-.119.795-.399c.139.195.226.354.261.477.022.078.022.173-.009.291l.86-.436.004-.004Z"/>
      <path class="st1" d="M21.659,62.377l.404.654-.313.173-.5,1.773c-.052.186-.074.313-.061.377.013.068.035.104.065.114.022.009.044.009.066,0,.03-.004.096-.032.195-.078l.048.128-.817.354c-.13-.177-.199-.327-.217-.454-.018-.123.013-.323.091-.6l.513-1.818-.156-.323.673-.309.009.009Z"/>
      <path class="st1" d="M24.417,63.309l.295.741-.586.291-.239-.645-.387.195-.534,1.895.273.382.391-.164.039.128-.973.413c-.122-.214-.231-.373-.322-.477-.091-.104-.199-.2-.326-.282l.022-.073c.109-.037.187-.087.234-.146.048-.059.096-.186.152-.382l.374-1.331c.048-.168.061-.286.044-.35-.018-.068-.048-.104-.091-.118-.048-.014-.122.009-.226.068l-.048-.118.804-.386c.134.196.217.359.252.482.021.077.017.173-.018.291l.869-.418v.005Z"/>
      <path class="st1" d="M26.311,64.017l.608,1.323-1.633.654-.144.6.643.499.569-.218.044.118-1.178.468c-.174-.173-.326-.304-.443-.391-.118-.086-.296-.191-.526-.314l.021-.082c.083-.023.139-.068.178-.123.039-.054.087-.196.139-.409l.456-1.887c.213-.023.391-.045.53-.073.104-.023.348-.077.734-.168ZM25.746,64.267l-.048.009-.361,1.495.96-.386-.552-1.123v.004Z"/>
      <path class="st1" d="M18.366,64.222l.695.65.517-1.822c.043-.159.061-.282.043-.373-.017-.091-.074-.196-.169-.314l-.187.082-.078-.114.839-.354c.156.241.252.436.278.581.026.146.013.323-.043.523l-.552,1.954c-.187-.009-.369,0-.543.036-.174.036-.387.104-.63.209-.169-.259-.339-.455-.504-.591-.165-.136-.365-.245-.595-.327l.021-.082c.091-.027.161-.068.209-.123.048-.055.096-.178.148-.364l.218-.768c.048-.168.269-.809.248-.877-.018-.068-.048-.104-.091-.118-.048-.014-.122.009-.226.068l-.048-.118.804-.386c.134.196.217.359.252.482.022.077-.069.423-.1.541l-.495,1.604h-.009Z"/>
    </g>
    <path d="M54.228,15.052c.282-4.872.369-8.762.369-15.052H3.482c0,6.254.087,10.121.365,14.97l50.38.082Z"/>
    <path class="st4" d="M19.256,12.553l-.986-.591-.66.591h-7.624l-.656-.591-.986.591V2.35h10.913v10.203Z"/>
    <rect class="st3" x="9.054" y="3.036" width=".55" height="8.926"/>
    <rect class="st3" x="13.551" y="3.108" width=".55" height="9.399"/>
    <rect class="st3" x="17.995" y="3.036" width=".55" height="8.926"/>
    <path class="st3" d="M13.8,12.967l-.171-.135c-.008-.006-.76-.595-1.528-.595-.458,0-.835.178-1.168.335-.265.125-.494.233-.726.233-.371,0-.728-.291-.928-.492l-.794.475-.283-.472,1.19-.713.151.184c.154.188.471.467.664.467.109,0,.294-.088.491-.18.366-.173.822-.388,1.403-.388.723,0,1.395.386,1.699.591.306-.205.978-.591,1.698-.591.577,0,1.031.214,1.397.386.199.093.386.182.498.182.198,0,.507-.272.663-.465l.15-.186,1.192.713-.283.472-.794-.475c-.2.201-.556.491-.929.491-.234,0-.465-.109-.732-.234-.332-.156-.708-.334-1.162-.334-.764,0-1.52.589-1.528.595l-.171.135Z"/>
    <path class="st3" d="M13.802,3.609l-.215-.264c-.005-.006-.529-.639-1.285-.639-.362,0-.62.136-.919.293-.362.191-.773.407-1.414.407-1.226,0-1.827-.866-1.852-.903l.455-.309c.018.026.471.661,1.397.661.505,0,.822-.167,1.158-.344.333-.175.677-.357,1.175-.357.695,0,1.222.372,1.499.623.276-.25.804-.623,1.498-.623.498,0,.842.181,1.175.357.335.176.652.343,1.157.343.939,0,1.393-.655,1.398-.661l.455.309c-.025.037-.626.903-1.853.903-.642,0-1.052-.216-1.414-.407-.299-.157-.557-.293-.919-.293-.762,0-1.279.632-1.284.638l-.213.265Z"/>
    <path class="st4" d="M34.465,12.553l-.986-.591-.656.591h-7.628l-.656-.591-.986.591V2.35h10.912v10.203Z"/>
    <rect class="st3" x="24.263" y="3.036" width=".55" height="8.926"/>
    <rect class="st3" x="28.76" y="3.108" width=".55" height="9.399"/>
    <rect class="st3" x="33.204" y="3.036" width=".551" height="8.926"/>
    <path class="st3" d="M29.009,12.967l-.171-.135c-.008-.006-.76-.595-1.528-.595-.458,0-.835.178-1.169.335-.265.125-.494.233-.725.233-.371,0-.728-.292-.929-.492l-.793.475-.283-.472,1.189-.713.151.184c.154.188.471.467.664.467.109,0,.294-.088.491-.18.366-.173.822-.388,1.403-.388.723,0,1.395.386,1.699.591.306-.205.978-.591,1.698-.591.577,0,1.032.214,1.397.386.198.094.386.182.497.182.198,0,.507-.272.663-.465l.15-.186,1.192.713-.283.472-.792-.475c-.2.201-.556.491-.929.491-.234,0-.465-.109-.731-.234-.332-.157-.709-.334-1.163-.334-.764,0-1.52.589-1.528.595l-.171.135Z"/>
    <path class="st3" d="M29.011,3.609l-.215-.264c-.005-.006-.53-.639-1.285-.639-.362,0-.621.136-.919.293-.362.191-.773.407-1.414.407-1.226,0-1.827-.866-1.852-.903l.455-.308c.018.026.47.661,1.397.661.505,0,.822-.167,1.158-.343.333-.176.677-.357,1.175-.357.694,0,1.222.372,1.499.623.276-.25.804-.623,1.498-.623.499,0,.843.181,1.176.357.335.176.652.343,1.157.343.938,0,1.392-.654,1.397-.661l.455.308c-.025.037-.625.903-1.852.903-.642,0-1.052-.216-1.414-.407-.299-.157-.557-.293-.919-.293-.762,0-1.279.632-1.283.638l-.213.265Z"/>
    <path class="st4" d="M38.766,12.553l.986-.591.661.591h7.624l.656-.591.986.591V2.35h-10.912v10.203Z"/>
    <rect class="st3" x="48.418" y="3.036" width=".551" height="8.926"/>
    <rect class="st3" x="43.921" y="3.108" width=".551" height="9.399"/>
    <rect class="st3" x="39.477" y="3.036" width=".551" height="8.926"/>
    <path class="st3" d="M44.223,12.967l-.171-.135c-.008-.006-.764-.595-1.528-.595-.454,0-.831.177-1.163.334-.267.125-.497.234-.731.234-.374,0-.729-.291-.93-.491l-.792.475-.283-.472,1.191-.713.151.186c.156.194.466.466.664.466.111,0,.299-.088.497-.182.366-.172.82-.386,1.397-.386.72,0,1.392.387,1.698.591.305-.205.976-.591,1.699-.591.581,0,1.037.215,1.403.388.197.093.382.18.491.18.194,0,.511-.278.665-.467l.15-.184,1.19.712-.283.472-.793-.475c-.201.2-.557.492-.928.492-.232,0-.46-.108-.725-.233-.333-.157-.711-.335-1.169-.335-.768,0-1.52.589-1.528.595l-.17.135Z"/>
    <path class="st3" d="M44.224,3.609l-.215-.264c-.005-.006-.529-.639-1.285-.639-.362,0-.62.136-.919.293-.362.191-.772.407-1.414.407-1.227,0-1.828-.866-1.853-.903l.455-.31c.018.027.471.663,1.398.663.505,0,.822-.167,1.157-.344.333-.175.677-.357,1.175-.357.695,0,1.222.372,1.499.623.277-.25.805-.623,1.499-.623.499,0,.843.181,1.176.357.335.176.652.343,1.157.343.927,0,1.379-.635,1.397-.663l.455.31c-.025.037-.626.903-1.852.903-.642,0-1.052-.216-1.414-.407-.299-.157-.557-.293-.919-.293-.762,0-1.279.632-1.284.638l-.213.265Z"/>
    <g>
      <path class="st2" d="M33.601,22.042c0,.495-1.933.895-4.466.895s-4.492-.4-4.492-.895c0-.586,1.955-.959,4.492-.959s4.466.377,4.466.959Z"/>
      <path d="M29.135,23.25c-.802,0-4.805-.058-4.805-1.208s3.36-1.272,4.805-1.272c1.437,0,4.778.124,4.778,1.272s-3.98,1.208-4.778,1.208ZM24.975,22.025c.26.222,1.667.6,4.16.6s3.88-.378,4.134-.599c-.203-.236-1.529-.63-4.134-.63-2.619,0-3.953.393-4.16.629Z"/>
    </g>
    <g>
      <path class="st2" d="M31.064,15.166c0-.573-.9-1.041-2.007-1.041s-2.007.468-2.007,1.041c0,.273.204.518.534.699.304.85.183,2.782.183,2.782h2.585s-.122-1.936.183-2.782c.33-.186.534-.431.534-.699h-.004Z"/>
      <path d="M30.664,18.941h-3.211l.02-.313c.031-.496.064-1.876-.135-2.567-.377-.237-.583-.552-.583-.896,0-.748,1.011-1.335,2.301-1.335,1.116,0,2.023.439,2.247,1.041h.058v.294c0,.338-.206.652-.582.894-.199.688-.167,2.071-.136,2.568l.02.312ZM28.074,18.353h1.969c-.021-.598-.034-1.899.214-2.587l.037-.103.095-.054c.222-.125.358-.27.382-.403v-.041c0-.353-.734-.747-1.714-.747s-1.713.394-1.713.747c0,.147.139.309.382.442l.097.054.038.105c.248.691.235,1.99.214,2.587ZM31.358,15.166h.007-.007Z"/>
    </g>
    <path class="st2" d="M27.862,21.724l-.296,2.336s-.013.009-.018.009c-1.295.781-3.214-.196-3.214-.196l-.882,1.168.882,1.168c.938-.432,3.293-.554,3.293-.554l.764,32.468.647.554.648-.554.764-32.468s2.35.123,3.293.554l.882-1.168-.882-1.168s-1.942.981-3.232.186l-.295-2.336"/>
    <path d="M29.039,59.064l-.938-.803-.76-32.292c-.654.049-2.199.193-2.884.508l-.215.099-1.158-1.534,1.164-1.541.219.111c.017.009,1.687.84,2.826.264l.277-2.188.583.074-.312,2.463-.2.132c-1.149.645-2.65.124-3.215-.117l-.606.802.613.812c1.068-.378,3.087-.487,3.179-.492l.302-.016.768,32.639.357.305.357-.305.768-32.639.302.016c.092.005,2.108.114,3.179.492l.613-.813-.607-.803c-.577.245-2.138.785-3.294.072l-.12-.074-.313-2.476.583-.074.277,2.189c1.137.572,2.81-.256,2.827-.265l.219-.11,1.164,1.54-1.158,1.534-.214-.098c-.689-.315-2.231-.459-2.885-.508l-.76,32.292-.938.803Z"/>
    <path class="st5" d="M26.503,24.369h-.014"/>
    <path d="M30.229,22.005c-.334-.013-.699-.018-1.099-.018-.473,0-.899.009-1.277.028-.044.25-.069.386-.069.386-1.19-.054-1.907-.173-2.133-.259,0,0-.252-.087-.252-.096,0-.009.252-.1.252-.1.278-.114,1.473-.291,3.48-.291s3.163.173,3.462.291l.256.1-.256.1c-.234.091-1.003.218-2.289.268,0,0-.031-.091-.074-.4v-.009Z"/>
    <path class="st2" d="M29.135,21.147c4.696,0,4.47.895,4.466.895l.769-2.917-1.634-.432-.226,1.368c-.426-.127-1.681-.295-1.681-.295l.178-1.936h-3.766l.178,1.936s-1.26.168-1.682.295l-.226-1.368-1.633.432.76,2.94s-.234-.923,4.501-.923l-.004.004Z"/>
    <path d="M33.388,22.02c-.056-.091-.543-.654-4.258-.654-4.075,0-4.292.686-4.296.691l-.404.068-.813-3.154,2.055-.541.226,1.373c.386-.086.981-.173,1.29-.218l-.183-1.968h4.223l-.183,1.968c.308.046.904.132,1.29.218l.226-1.373,2.055.541-.821,3.172-.413-.123h.004ZM24.13,19.284l.591,2.29c.599-.427,2.077-.645,4.414-.645,1.816,0,3.128.132,3.892.395.213.073.374.168.491.25l.599-2.29-1.212-.318-.226,1.377-.221-.064c-.404-.118-1.642-.286-1.655-.286l-.2-.027.178-1.909h-3.311l.178,1.909-.199.027s-1.247.168-1.655.286l-.222.064-.226-1.377-1.212.318h-.004Z"/>
    <path d="M1.818,62.875c-.129,0-.234-.105-.234-.234v-.641c0-.129.105-.234.234-.234s.234.105.234.234v.641c0,.129-.105.234-.234.234Z"/>
    <path d="M3.391,62.711c-.129,0-.234-.105-.234-.234v-.886c0-.129.105-.234.234-.234s.234.105.234.234v.886c0,.129-.105.234-.234.234Z"/>
    <path d="M4.959,62.788c-.129,0-.234-.105-.234-.234v-.845c0-.129.105-.234.234-.234s.234.105.234.234v.845c0,.129-.105.234-.234.234Z"/>
    <path d="M6.532,63.229c-.129,0-.234-.105-.234-.234v-.822c0-.129.105-.234.234-.234s.234.105.234.234v.822c0,.129-.105.234-.234.234Z"/>
    <path d="M11.402,64.966c-.129,0-.234-.105-.234-.234v-.55c0-.129.105-.234.234-.234s.234.105.234.234v.55c0,.129-.105.234-.234.234Z"/>
    <path d="M9.677,64.411c-.129,0-.234-.105-.234-.234v-.741c0-.129.105-.234.234-.234s.234.105.234.234v.741c0,.129-.105.234-.234.234Z"/>
    <path d="M8.105,63.643c-.129,0-.234-.105-.234-.234v-.696c0-.129.105-.234.234-.234s.234.105.234.234v.696c0,.129-.105.234-.234.234Z"/>
    <path d="M56.117,63.302c-.129,0-.234-.105-.234-.234v-.646c0-.129.105-.234.234-.234s.234.105.234.234v.646c0,.129-.105.234-.234.234Z"/>
    <path d="M54.752,63.206c-.129,0-.234-.105-.234-.234v-.881c0-.129.105-.234.234-.234s.234.105.234.234v.881c0,.129-.105.234-.234.234Z"/>
    <path d="M53.181,63.402c-.129,0-.234-.105-.234-.234v-.846c0-.129.105-.234.234-.234s.234.105.234.234v.846c0,.129-.105.234-.234.234Z"/>
    <path d="M51.608,63.707c-.129,0-.234-.105-.234-.234v-.823c0-.129.105-.234.234-.234s.234.105.234.234v.823c0,.129-.105.234-.234.234Z"/>
    <path d="M46.894,65.338c-.129,0-.234-.105-.234-.234v-.554c0-.129.105-.234.234-.234s.234.105.234.234v.554c0,.129-.105.234-.234.234Z"/>
    <path d="M48.467,64.784c-.129,0-.234-.105-.234-.234v-.736c0-.129.105-.234.234-.234s.234.105.234.234v.736c0,.129-.105.234-.234.234Z"/>
    <path d="M50.035,64.143c-.129,0-.234-.105-.234-.234v-.7c0-.129.105-.234.234-.234s.234.105.234.234v.7c0,.129-.105.234-.234.234Z"/>
    <path d="M26.958,73.746c-.129,0-.234-.105-.234-.234v-1.754c0-.129.105-.234.234-.234s.234.105.234.234v1.754c0,.129-.105.234-.234.234Z"/>
    <path d="M27.628,73.746c-.129,0-.234-.105-.234-.234v-1.563c0-.129.105-.234.234-.234s.234.105.234.234v1.563c0,.129-.105.234-.234.234Z"/>
    <path d="M28.257,73.746c-.129,0-.234-.105-.234-.234v-2.458c0-.129.105-.234.234-.234s.234.105.234.234v2.458c0,.129-.105.234-.234.234Z"/>
    <path d="M31.363,73.746c-.012,0-.024-.001-.037-.003-.128-.02-.215-.14-.194-.269l.443-2.763c.02-.128.139-.213.269-.194.128.02.215.14.194.269l-.443,2.763c-.018.115-.118.197-.231.197Z"/>
    <path d="M30.434,73.677c-.013,0-.027-.001-.042-.004-.128-.023-.212-.145-.189-.272l.269-1.495c.023-.127.142-.211.272-.189.128.023.212.145.189.272l-.269,1.495c-.021.114-.119.193-.231.193Z"/>
    <path d="M29.804,73.746c-.009,0-.019,0-.028-.002-.129-.015-.221-.132-.205-.26l.287-2.422c.015-.128.136-.222.26-.205.128.015.221.132.205.26l-.287,2.422c-.014.119-.115.207-.233.207Z"/>
    <path d="M25.96,73.718c-.127,0-.232-.101-.234-.23l-.048-2.182c-.003-.129.1-.236.229-.239.154,0,.237.1.24.23l.048,2.182c.003.129-.1.236-.229.239h-.005Z"/>
    <path d="M24.717,73.641s-.009,0-.014,0c-.129-.007-.228-.118-.22-.248l.135-2.236c.008-.129.125-.234.248-.22.129.007.228.118.22.248l-.135,2.236c-.008.125-.111.22-.234.22Z"/>
    <path d="M22.858,73.205c-.02,0-.04-.002-.061-.008-.125-.034-.199-.162-.166-.287l.595-2.222c.034-.125.161-.2.287-.166.125.034.199.162.166.287l-.595,2.222c-.028.105-.123.174-.226.174Z"/>
    <path d="M23.571,73.428c-.018,0-.035-.002-.053-.006-.126-.029-.205-.155-.176-.281l.538-2.328c.029-.127.157-.207.281-.176.126.029.205.155.176.281l-.538,2.328c-.025.109-.121.182-.228.182Z"/>
    <path d="M32.441,73.792h-.005c-.129-.003-.233-.11-.23-.239l.047-2.136c.003-.128.107-.23.234-.23h.005c.129.003.233.11.23.239l-.047,2.136c-.003.128-.107.23-.234.23Z"/>
    <path d="M33.675,73.705c-.123,0-.226-.096-.234-.22l-.135-2.254c-.008-.129.09-.241.22-.248.145-.022.241.091.248.22l.135,2.254c.008.129-.09.241-.22.248-.005,0-.01,0-.014,0Z"/>
    <path d="M35.556,73.378c-.105,0-.201-.071-.227-.178l-.586-2.336c-.032-.125.045-.253.17-.284.125-.032.253.045.284.17l.586,2.336c.032.125-.045.253-.17.284-.019.005-.038.007-.057.007Z"/>
    <path d="M34.826,73.546c-.107,0-.203-.073-.228-.182l-.551-2.39c-.029-.126.049-.252.176-.281.128-.029.252.05.281.176l.551,2.39c.029.126-.049.252-.176.281-.018.004-.035.006-.052.006Z"/>
  </g>
  <g>
    <path class="st4" d="M69.192,32.265c.389-8.994,7.96-12.929,16.249-12.224,1.66.141,3.285.644,4.943.712l.459,5.197c-.819.536-.775-.125-.993-.639-1.285-3.037-3.113-4.182-6.441-4.358-8.821-.467-12.276,7.17-10.09,14.878,1.523,5.372,6.15,8.287,11.703,7.527,1.509-.207,2.571-.479,2.716-2.174.089-1.032.102-3.156-.015-4.17-.102-.891-.427-1.248-1.291-1.46-.598-.147-2.233-.134-2.595-.333-.236-.13-.187-.541-.024-.72l8.868-.061c.713.959-.304.782-.878.928-.692.175-.953.592-1.088,1.255-.225,1.102-.31,5.161.379,5.986.159.191.503.182.409.557-4.243,1.01-8.485,1.808-12.818.748-5.305-1.297-9.383-5.523-9.493-11.138v-.509Z"/>
    <path class="st4" d="M254.305,44.491h-.509c-10.429-.65-8.562-16.454,1.755-14.948,8.616,1.257,7.861,14.708-1.246,14.948ZM253.465,30.458c-4.972.671-4.778,11.26-.309,12.788,7.269,2.486,7.227-13.721.309-12.788Z"/>
    <path class="st4" d="M113.713,44.491h-.509c-10.451-.632-8.522-16.485,1.755-14.948,8.63,1.291,7.846,14.708-1.246,14.948ZM112.873,30.458c-4.972.671-4.778,11.26-.309,12.788,7.267,2.486,7.231-13.722.309-12.788Z"/>
    <path class="st4" d="M142.035,44.491h-.408c-10.517-.47-8.701-16.497,1.653-14.948,8.643,1.293,7.828,14.735-1.246,14.948ZM141.195,30.458c-4.972.671-4.778,11.26-.309,12.788,7.269,2.486,7.227-13.721.309-12.788Z"/>
    <path class="st4" d="M236.986,44.491h-.509c-10.449-.632-8.526-16.486,1.755-14.948,8.631,1.291,7.846,14.708-1.246,14.948ZM236.146,30.458c-4.972.671-4.778,11.26-.309,12.788,7.265,2.485,7.236-13.722.309-12.788Z"/>
    <path class="st4" d="M128.791,44.491c-2.657-.274-3.234-1.555-3.366-4.02-.158-2.928.169-5.99-.047-8.918-.028-.046-.277-.204-.306-.204h-1.477c-.023,0-.084-.424-.08-.446.037-.211,1.561-.77,1.88-.963.264-.16.478-.304.699-.523.355-.352,1.19-1.86,1.29-1.919.124-.072.694.047.694.082v2.19c0,.112.249.146.351.158,1.201.141,2.961-.216,4.078-.003.587.112.598,1.27.189,1.407-1.291.141-2.797-.131-4.06.015-.189.022-.474.07-.542.273l-.02,8.647c.127,2.201,1.765,3.296,3.842,2.409.253-.108.579-.558.822-.299.345.368-.163.769-.435.991-.717.586-1.982,1.062-2.901,1.123h-.611Z"/>
    <path class="st4" d="M215.693,31.246c.109.113,1.658-.939,1.937-1.068,2.032-.943,5.045-1.155,6.623.709,1.74,2.055.775,8.034,1.013,10.805.041.479.16,1.075.642,1.293.653.296,2.455-.087,1.558,1.063l-6.937-.062c-.304-1.037.341-.72,1.037-.907.592-.159.909-.375,1.03-1.008-.162-2.565.307-5.605.013-8.115-.253-2.17-1.841-3.1-3.915-2.918-1.104.097-2.861.865-3.002,2.092.262,2.743-.362,6.176.027,8.837.049.338.178.753.49.936.62.365,2.11.014,1.611,1.02l-7.075-.039c-.06-.089-.083-.548-.033-.607.076-.09,1.249-.143,1.54-.242.569-.195.746-.681.796-1.242l-.004-19.463c-.063-.561-.298-.875-.722-1.213-.39-.311-.997-.361-.812-1.017.033-.116,1.956-.679,2.273-.8.376-.143,1.718-.92,1.967-.59.128.169-.057.305-.057.361v12.174Z"/>
    <path class="st4" d="M192.758,20.562c.233.779.413,1.585.509,2.394.042.348.239,1.881.02,2.031-.095.065-.621.084-.706.03-.094-.06-.589-1.648-.847-2.056-2.454-3.879-10.165-1.856-8.017,3.534,1.629,4.087,9.07,4.419,9.961,10.313.972,6.43-5.491,8.579-10.709,7.245-.483-.123-2.045-.614-2.308-.952-.42-.54-.901-3.585-.936-4.364-.021-.473-.016-.782.565-.668.301.059.487.959.645,1.294.986,2.099,2.247,3.611,4.667,3.993,3.853.608,6.463-2.067,5.306-5.917-1.194-3.971-8.27-4.804-9.643-9.612-.846-2.96.383-5.804,3.186-7.092,2.652-1.218,5.554-.611,8.308-.174Z"/>
    <path class="st4" d="M156.706,31.094c.025.081.161.15.255.158.262.022,2.168-1.114,2.672-1.306,1.645-.625,4.029-.794,5.39.521,2.272,2.194.776,8.563,1.304,11.583.264,1.506,1.648.812,2.096,1.265.183.186.105.665-.053.665h-6.52c-.022,0-.073.083-.153.053-.235-.087-.275-.522-.111-.725.308-.381,1.838.153,2.038-1.323-.194-2.609.296-5.679-.002-8.232-.448-3.84-6.525-3.224-6.908-.308.234,2.645-.355,5.957.018,8.522.097.664.311.902.947,1.09.59.175,1.537.011,1.012.93l-6.627.061c-.84-1.041.636-.807,1.26-1.056.513-.205.656-.573.734-1.1l-.006-9.367c-.13-.821-1.534-1.08-1.307-1.725.055-.156,1.479-.658,1.757-.792.313-.151,1.813-1.007,1.956-1.005.096.001.249.098.249.153v1.936Z"/>
    <path class="st4" d="M263.896,43.283c.136-.219,1.605.072,2.043-.759.115-.218.181-.481.188-.729l-.004-19.463c-.063-.561-.298-.875-.722-1.213s-.952-.32-.812-1.017c.656-.05,3.771-1.583,4.12-1.481.254.074.062.548.058.752-.138,7.467.113,14.949.007,22.417.1.996.4,1.138,1.298,1.35.567.134,1.526-.063.795.909l-6.837.008-.133-.141c-.033-.118-.051-.552,0-.634Z"/>
    <path class="st4" d="M208.736,30.054c.574.416.67,2.486-.162,2.671-.43.095-1.056-.801-1.389-1.069-2.715-2.183-6.337-.802-7.387,2.389-.97,2.946.12,6.713,3.093,8.019,1.521.668,3.655.717,5.055-.279.327-.233,1.198-1.355,1.386-1.374,1.207-.121-.52,1.965-.817,2.249-3.45,3.302-9.839,1.9-11.208-2.856-1.893-6.577,3.785-11.446,10.14-10.14.221.045,1.165.299,1.291.39Z"/>
    <path class="st4" d="M99.45,31.552c.8-.351,1.417-1.069,2.21-1.508.766-.424,1.312-.642,2.224-.532,1.277.155,1.556,1.878.551,2.594-1.237.881-1.672-.247-2.717-.427-1.569-.27-2.161.756-2.272,2.162-.206,2.623.124,5.558.049,8.21.297,1.697,2.109.757,2.679,1.242.176.15.126.528-.026.695l-7.288.042c-.782-1.125.882-.741,1.485-1.167.273-.193.421-.645.456-.97l-.006-9.367c-.13-.821-1.534-1.08-1.307-1.725.068-.195,3.3-1.469,3.713-1.797.086-.023.249.112.249.154v2.394Z"/>
  </g>
</svg>