<?xml version="1.0" encoding="utf-8"?>
<!-- Generator: Adobe Illustrator 22.1.0, SVG Export Plug-In . SVG Version: 6.00 Build 0)  -->
<svg version="1.1" xmlns="http://www.w3.org/2000/svg" xmlns:xlink="http://www.w3.org/1999/xlink" x="0px" y="0px"
	 viewBox="0 0 239.7 121.1" style="enable-background:new 0 0 239.7 121.1;" xml:space="preserve">
<style type="text/css">
	.st0{fill:#FFFFFF;}
	.st1{fill:#F5333F;}
	.st2{display:none;}
	.st3{display:inline;opacity:0.2;}
</style>
<g id="Layer_1">
	<g>
		<path class="st0" d="M109.1,61.4c-0.7,0-1.3-0.3-1.6-0.6l-0.5,0.8c0.6,0.4,1.4,0.7,2.2,0.7c1.1,0,2.1-0.5,2.1-1.7
			c0-0.9-0.7-1.3-1.6-1.4l-0.3,0c-0.6-0.1-1.1-0.2-1.1-0.6c0-0.4,0.4-0.6,1-0.6c0.6,0,1.1,0.2,1.5,0.4l0.5-0.8
			c-0.6-0.4-1.3-0.6-2-0.6c-1.1,0-2.1,0.6-2.1,1.6c0,0.9,0.7,1.3,1.6,1.5l0.3,0.1c0.7,0.1,1.1,0.2,1.1,0.6
			C110.1,61.1,109.7,61.4,109.1,61.4z"/>
		<path class="st0" d="M116.8,57.9c0.6,0,1,0.3,1.3,0.7l0.9-0.5c-0.4-0.7-1.3-1.2-2.2-1.2c-1.6,0-2.7,1.1-2.7,2.7
			c0,1.6,1.1,2.7,2.7,2.7c0.9,0,1.7-0.4,2.2-1.1l-0.8-0.6c-0.3,0.5-0.8,0.7-1.3,0.7c-0.9,0-1.6-0.7-1.6-1.7
			C115.1,58.6,115.8,57.9,116.8,57.9z"/>
		<polygon class="st0" points="121.9,57 121.9,62.2 122.9,62.2 122.9,60.1 125.4,60.1 125.4,62.2 126.4,62.2 126.4,57 125.4,57 
			125.4,59.1 122.9,59.1 122.9,57 		"/>
		<path class="st0" d="M134.8,59.6c0-1.5-1.1-2.7-2.7-2.7c-1.6,0-2.7,1.1-2.7,2.7c0,1.5,1.1,2.7,2.7,2.7
			C133.7,62.3,134.8,61.2,134.8,59.6z M130.4,59.6c0-1,0.7-1.7,1.6-1.7c1,0,1.6,0.7,1.6,1.7c0,1-0.7,1.7-1.6,1.7
			C131.1,61.3,130.4,60.6,130.4,59.6z"/>
		<path class="st0" d="M142.8,59.6c0-1.5-1.1-2.7-2.7-2.7c-1.6,0-2.7,1.1-2.7,2.7c0,1.5,1.1,2.7,2.7,2.7
			C141.6,62.3,142.8,61.2,142.8,59.6z M138.4,59.6c0-1,0.7-1.7,1.6-1.7c1,0,1.6,0.7,1.6,1.7c0,1-0.7,1.7-1.6,1.7
			C139.1,61.3,138.4,60.6,138.4,59.6z"/>
		<polygon class="st0" points="145.8,57 145.8,62.2 149.5,62.2 149.5,61.2 146.8,61.2 146.8,57 		"/>
		<path class="st0" d="M160.2,56.9c-1.6,0-2.7,1.1-2.7,2.7c0,1.5,1.1,2.7,2.7,2.7c1.6,0,2.7-1.1,2.7-2.7
			C162.9,58.1,161.8,56.9,160.2,56.9z M160.2,61.3c-0.9,0-1.6-0.7-1.6-1.7c0-1,0.7-1.7,1.6-1.7c1,0,1.6,0.7,1.6,1.7
			C161.8,60.6,161.1,61.3,160.2,61.3z"/>
		<polygon class="st0" points="169.5,58 169.5,57 165.7,57 165.7,62.2 166.8,62.2 166.8,60.1 169.4,60.1 169.4,59.2 166.8,59.2 
			166.8,58 		"/>
		<path class="st0" d="M177.8,57v5.2h1v-1.9h1.1c1.2,0,1.9-0.6,1.9-1.6c0-1-0.7-1.6-1.9-1.6H177.8z M180.7,58.7
			c0,0.5-0.3,0.7-0.9,0.7h-1.1V58h1.1C180.4,58,180.7,58.2,180.7,58.7z"/>
		<path class="st0" d="M188.9,58.6c0-1-0.7-1.6-1.9-1.6h-2.2v5.2h1v-2.1h0.3l1.5,2.1h1.2l-1.6-2.1C188.3,60,188.9,59.5,188.9,58.6z
			 M187,59.3h-1.1V58h1.1c0.5,0,0.9,0.2,0.9,0.6C187.9,59,187.6,59.3,187,59.3z"/>
		<rect x="192.4" y="57" class="st0" width="1" height="5.2"/>
		<polygon class="st0" points="198.3,57 197.4,57 197.4,62.2 198.4,62.2 198.4,58.8 201,62.2 202,62.2 202,57 200.9,57 200.9,60.5 
					"/>
		<path class="st0" d="M207.7,57.9c0.6,0,1,0.3,1.3,0.7l0.9-0.5c-0.4-0.7-1.3-1.2-2.2-1.2c-1.6,0-2.7,1.1-2.7,2.7
			c0,1.6,1.1,2.7,2.7,2.7c0.9,0,1.7-0.4,2.2-1.1l-0.8-0.6c-0.3,0.5-0.8,0.7-1.3,0.7c-0.9,0-1.6-0.7-1.6-1.7
			C206.1,58.6,206.7,57.9,207.7,57.9z"/>
		<polygon class="st0" points="217,58 217,57 213.2,57 213.2,62.2 217.1,62.2 217.1,61.3 214.2,61.3 214.2,60.1 216.9,60.1 
			216.9,59.1 214.2,59.1 214.2,58 		"/>
		<polygon class="st0" points="222.9,62.2 222.9,58 224.5,58 224.5,57 220.3,57 220.3,58 221.9,58 221.9,62.2 		"/>
		<path class="st0" d="M232.4,59.6c0-1.5-1.1-2.7-2.7-2.7c-1.6,0-2.7,1.1-2.7,2.7c0,1.5,1.1,2.7,2.7,2.7
			C231.3,62.3,232.4,61.2,232.4,59.6z M228.1,59.6c0-1,0.7-1.7,1.6-1.7c1,0,1.6,0.7,1.6,1.7c0,1-0.7,1.7-1.6,1.7
			C228.8,61.3,228.1,60.6,228.1,59.6z"/>
		<polygon class="st0" points="238.7,62.2 239.7,62.2 239.7,57 238.6,57 238.6,60.5 236,57 235.1,57 235.1,62.2 236.1,62.2 
			236.1,58.8 		"/>
		<polygon class="st0" points="0,58.1 1.6,58.1 1.6,62.3 2.6,62.3 2.6,58.1 4.2,58.1 4.2,57.2 0,57.2 		"/>
		<polygon class="st0" points="10.6,59.2 8.2,59.2 8.2,57.2 7.1,57.2 7.1,62.3 8.2,62.3 8.2,60.2 10.6,60.2 10.6,62.3 11.7,62.3 
			11.7,57.2 10.6,57.2 		"/>
		<polygon class="st0" points="18.7,61.4 15.9,61.4 15.9,60.2 18.6,60.2 18.6,59.2 15.9,59.2 15.9,58.1 18.7,58.1 18.7,57.2 
			14.9,57.2 14.9,62.3 18.7,62.3 		"/>
		<path class="st0" d="M70.1,112.5h-4.4v7.2h34.2v-7.2H96c-5.5,0-6.3-0.6-6.3-5.9V69.3c0-5.3,0.9-5.9,6.3-5.9h3.7v-7.2h-34v7.2h4.4
			c5.5,0,6.2,0.6,6.2,5.9v14H48.9v-14c0-5.3,0.9-5.9,6.3-5.9h4.4v-7.2h-34v7.2h3.7c5.5,0,6.2,0.6,6.2,5.9v37.3
			c0,5.3-0.8,5.9-6.2,5.9h-3.7v7.2h34v-7.2h-4.4c-5.5,0-6.3-0.6-6.3-5.9V90.9h27.4v15.7C76.3,111.9,75.5,112.5,70.1,112.5z"/>
		<path class="st0" d="M153.8,119.7v-6.3h-1.6c-4.8,0-5.5-1.3-5.5-5.7V75.1h-21.2v6.3h4.3c4.8,0,5.5,1.3,5.5,5.7v11.5
			c0,10-4.9,15.2-11.6,15.2c-5.3,0-7-3-7-9.2V75.1H97.1v6.3h2.8c4.8,0,5.5,1.3,5.5,5.7v17.6c0,11.3,3.7,16.4,14.4,16.4
			c5.4,0,10.7-3.1,15.6-9.3v7.8H153.8z"/>
		<path class="st0" d="M189.1,113.3h-1.9v6.3H214v-6.3h-2.7c-4.8,0-5.4-1.3-5.4-5.7V90.1c0-11.3-3.8-16.4-14.5-16.4
			c-5.4,0-10.6,3.1-15.5,9.3v-7.8h-19.3v6.3h2.5c4.8,0,5.4,1.3,5.4,5.7v20.6c0,4.3-0.6,5.7-5.4,5.7h-2.5v6.3h26.6v-6.3h-1.9
			c-4.8,0-5.4-1.3-5.4-5.7V96.1c0-10,4.8-15.2,11.5-15.2c5.3,0,7,3,7,9.2v17.6C194.5,112,193.9,113.3,189.1,113.3z"/>
	</g>
	<g>
		<path class="st1" d="M202.7,6.1c-6.6,0-12.6-2.3-17.4-6.1c-3.4,2.7-7.4,4.7-11.8,5.6l26.8,26.8c5.1-7.5,8.2-16.5,8.2-26.2
			c0-0.2,0-0.4,0-0.6C206.6,5.9,204.7,6.1,202.7,6.1z"/>
		<path class="st1" d="M162.2,6.2c0,17.1,9.3,32.1,23.1,40.1c3.6-2.1,7-4.7,9.9-7.7l-33-33C162.2,5.8,162.2,6,162.2,6.2z"/>
	</g>
</g>
<g id="Layer_2" class="st2">
	<g class="st3">
		<path d="M-50.8-456.3h2.1c0.1,0.9,0.7,1.2,1.7,1.2c0.7,0,1.4-0.3,1.4-0.9c0-0.7-0.7-0.8-1.9-1.1c-1.5-0.3-3.1-0.8-3.1-2.6
			c0-1.8,1.5-2.6,3.4-2.6c1.9,0,3.3,0.8,3.4,2.6h-2.1c-0.1-0.7-0.6-1-1.4-1c-0.7,0-1.2,0.3-1.2,0.8c0,0.6,0.7,0.7,1.9,1
			c1.6,0.4,3,0.9,3,2.7c0,1.8-1.5,2.8-3.5,2.8C-49.2-453.4-50.7-454.4-50.8-456.3z"/>
		<path d="M-42.7-462.2h2v3.2h0c0.4-0.6,1-0.9,1.8-0.9c1.3,0,2.1,1,2.1,2.3v4h-2v-3.6c0-0.6-0.3-1.1-1-1.1c-0.6,0-1.1,0.5-1.1,1.3
			v3.4h-2V-462.2z"/>
		<path d="M-35.8-462.2h2v1.6h-2V-462.2z M-35.8-459.8h2v6.1h-2V-459.8z"/>
		<path d="M-33.2-456.7c0-1.8,1.3-3.2,3.2-3.2c0.9,0,1.6,0.3,2.1,0.8c0.7,0.7,1.1,1.7,1.1,3h-4.4c0.1,0.8,0.6,1.3,1.4,1.3
			c0.5,0,0.9-0.2,1-0.6h1.9c-0.1,0.6-0.5,1.1-1,1.5c-0.5,0.4-1.1,0.6-1.9,0.6C-32-453.4-33.2-454.8-33.2-456.7z M-28.9-457.3
			c-0.1-0.7-0.5-1.2-1.2-1.2c-0.7,0-1.1,0.5-1.3,1.2H-28.9z"/>
		<path d="M-26.2-462.2h2v8.6h-2V-462.2z"/>
		<path d="M-23.6-456.7c0-1.9,1.1-3.3,2.7-3.3c0.9,0,1.4,0.4,1.7,0.9h0v-3.1h2v8.6H-19v-0.8h0c-0.4,0.6-1,1-1.8,1
			C-22.4-453.4-23.6-454.6-23.6-456.7z M-19.1-456.7c0-1-0.4-1.8-1.3-1.8c-0.8,0-1.2,0.7-1.2,1.8c0,1.1,0.5,1.7,1.2,1.7
			C-19.5-455-19.1-455.7-19.1-456.7z"/>
	</g>
	<g class="st3">
		<path d="M313.8-462.2h6.4v1.8h-4.3v1.7h3.6v1.7h-3.6v3.3h-2.1V-462.2z"/>
		<path d="M320.1-456.7c0-1.8,1.3-3.3,3.3-3.3c2,0,3.3,1.4,3.3,3.3c0,1.8-1.3,3.3-3.3,3.3C321.4-453.4,320.1-454.8,320.1-456.7z
			 M324.7-456.7c0-1.1-0.5-1.9-1.3-1.9c-0.9,0-1.3,0.8-1.3,1.9c0,1.1,0.4,1.9,1.3,1.9C324.2-454.8,324.7-455.6,324.7-456.7z"/>
		<path d="M327.3-459.8h1.9v1h0c0.4-0.7,0.9-1.1,1.7-1.1c0.2,0,0.3,0,0.4,0v1.7h0c-1.2-0.2-2,0.4-2,1.8v2.8h-2V-459.8z"/>
		<path d="M331.9-459.8h1.9v0.9h0c0.4-0.6,1-1.1,1.9-1.1c0.8,0,1.4,0.4,1.7,1.1h0c0.5-0.7,1.1-1.1,1.9-1.1c1.4,0,2.1,0.9,2.1,2.3v4
			h-2v-3.6c0-0.7-0.3-1-0.9-1c-0.6,0-1,0.5-1,1.2v3.4h-2v-3.6c0-0.7-0.3-1-0.9-1c-0.6,0-1,0.5-1,1.2v3.4h-2V-459.8z"/>
		<path d="M342-455.3c0-1.4,1.1-1.8,2.4-1.9c1.2-0.1,1.6-0.3,1.6-0.7c0-0.4-0.3-0.7-0.8-0.7c-0.6,0-0.9,0.3-1,0.8h-1.8
			c0-1.1,0.9-2.1,2.8-2.1c0.9,0,1.5,0.2,2,0.5c0.5,0.4,0.8,1,0.8,1.8v3.1c0,0.5,0,0.8,0.2,0.9v0.1h-1.9c-0.1-0.1-0.2-0.4-0.2-0.7h0
			c-0.4,0.5-0.9,0.8-1.8,0.8C342.9-453.5,342-454.1,342-455.3z M346-455.8v-0.7c-0.3,0.1-0.6,0.2-1,0.3c-0.8,0.2-1.1,0.4-1.1,0.8
			c0,0.5,0.4,0.7,0.8,0.7C345.5-454.7,346-455.2,346-455.8z"/>
		<path d="M348.8-462.2h2v8.6h-2V-462.2z"/>
		<path d="M353.3-456.3h2.1c0.1,0.9,0.7,1.2,1.7,1.2c0.7,0,1.4-0.3,1.4-0.9c0-0.7-0.7-0.8-1.9-1.1c-1.5-0.3-3.1-0.8-3.1-2.6
			c0-1.8,1.5-2.6,3.4-2.6c1.9,0,3.3,0.8,3.4,2.6h-2.1c-0.1-0.7-0.6-1-1.4-1c-0.7,0-1.2,0.3-1.2,0.8c0,0.6,0.7,0.7,1.9,1
			c1.6,0.4,3,0.9,3,2.7c0,1.8-1.5,2.8-3.5,2.8C354.9-453.4,353.4-454.4,353.3-456.3z"/>
		<path d="M361.4-462.2h2v3.2h0c0.4-0.6,1-0.9,1.8-0.9c1.3,0,2.1,1,2.1,2.3v4h-2v-3.6c0-0.6-0.3-1.1-1-1.1c-0.6,0-1.1,0.5-1.1,1.3
			v3.4h-2V-462.2z"/>
		<path d="M368.2-462.2h2v1.6h-2V-462.2z M368.2-459.8h2v6.1h-2V-459.8z"/>
		<path d="M370.9-456.7c0-1.8,1.3-3.2,3.2-3.2c0.9,0,1.6,0.3,2.1,0.8c0.7,0.7,1.1,1.7,1.1,3h-4.4c0.1,0.8,0.6,1.3,1.4,1.3
			c0.5,0,0.9-0.2,1-0.6h1.9c-0.1,0.6-0.5,1.1-1,1.5c-0.5,0.4-1.1,0.6-1.9,0.6C372.1-453.4,370.9-454.8,370.9-456.7z M375.2-457.3
			c-0.1-0.7-0.5-1.2-1.2-1.2c-0.7,0-1.1,0.5-1.3,1.2H375.2z"/>
		<path d="M377.9-462.2h2v8.6h-2V-462.2z"/>
		<path d="M380.5-456.7c0-1.9,1.1-3.3,2.7-3.3c0.9,0,1.4,0.4,1.7,0.9h0v-3.1h2v8.6H385v-0.8h0c-0.4,0.6-1,1-1.8,1
			C381.6-453.4,380.5-454.6,380.5-456.7z M385-456.7c0-1-0.4-1.8-1.3-1.8c-0.8,0-1.2,0.7-1.2,1.8c0,1.1,0.5,1.7,1.2,1.7
			C384.5-455,385-455.7,385-456.7z"/>
		<path d="M389.5-457.9c0-2.6,1.7-4.5,4.2-4.5c1,0,1.8,0.3,2.4,0.8c0.7,0.6,1.2,1.4,1.3,2.4h-2.1c-0.1-0.8-0.7-1.4-1.6-1.4
			c-1.4,0-2.1,1.2-2.1,2.7c0,1.6,0.8,2.7,2.1,2.7c0.9,0,1.6-0.6,1.7-1.4h2.1c-0.1,0.9-0.4,1.6-1,2.2c-0.7,0.6-1.5,1-2.7,1
			C391.2-453.4,389.5-455.3,389.5-457.9z"/>
		<path d="M398-456.7c0-1.8,1.3-3.2,3.2-3.2c0.9,0,1.6,0.3,2.1,0.8c0.7,0.7,1.1,1.7,1.1,3h-4.4c0.1,0.8,0.6,1.3,1.4,1.3
			c0.5,0,0.9-0.2,1-0.6h1.9c-0.1,0.6-0.5,1.1-1,1.5c-0.5,0.4-1.1,0.6-1.9,0.6C399.2-453.4,398-454.8,398-456.7z M402.3-457.3
			c-0.1-0.7-0.5-1.2-1.2-1.2c-0.7,0-1.1,0.5-1.3,1.2H402.3z"/>
		<path d="M405-459.8h1.9v0.8h0c0.5-0.7,1-1,1.9-1c1.3,0,2.1,1,2.1,2.3v4h-2v-3.6c0-0.6-0.3-1.1-1-1.1c-0.6,0-1.1,0.5-1.1,1.3v3.4
			h-2V-459.8z"/>
		<path d="M412.2-455.2v-3.3h-0.8v-1.2h0.8v-1.9h1.9v1.9h1.1v1.2h-1.1v2.9c0,0.5,0.3,0.6,0.7,0.6c0.2,0,0.4,0,0.4,0v1.4
			c-0.2,0-0.5,0.1-1.1,0.1C413-453.5,412.2-453.9,412.2-455.2z"/>
		<path d="M415.6-456.7c0-1.8,1.3-3.2,3.2-3.2c0.9,0,1.6,0.3,2.1,0.8c0.7,0.7,1.1,1.7,1.1,3h-4.4c0.1,0.8,0.6,1.3,1.4,1.3
			c0.5,0,0.9-0.2,1-0.6h1.9c-0.1,0.6-0.5,1.1-1,1.5c-0.5,0.4-1.1,0.6-1.9,0.6C416.8-453.4,415.6-454.8,415.6-456.7z M419.9-457.3
			c-0.1-0.7-0.5-1.2-1.2-1.2c-0.7,0-1.1,0.5-1.3,1.2H419.9z"/>
		<path d="M422.6-459.8h1.9v1h0c0.4-0.7,0.9-1.1,1.7-1.1c0.2,0,0.3,0,0.4,0v1.7h0c-1.2-0.2-2,0.4-2,1.8v2.8h-2V-459.8z"/>
		<path d="M426.8-456.7c0-1.8,1.3-3.2,3.2-3.2c0.9,0,1.6,0.3,2.1,0.8c0.7,0.7,1.1,1.7,1.1,3h-4.4c0.1,0.8,0.6,1.3,1.4,1.3
			c0.5,0,0.9-0.2,1-0.6h1.9c-0.1,0.6-0.5,1.1-1,1.5c-0.5,0.4-1.1,0.6-1.9,0.6C428-453.4,426.8-454.8,426.8-456.7z M431.1-457.3
			c-0.1-0.7-0.5-1.2-1.2-1.2c-0.7,0-1.1,0.5-1.3,1.2H431.1z"/>
		<path d="M433.5-456.7c0-1.9,1.1-3.3,2.7-3.3c0.9,0,1.4,0.4,1.7,0.9h0v-3.1h2v8.6H438v-0.8h0c-0.4,0.6-1,1-1.8,1
			C434.6-453.4,433.5-454.6,433.5-456.7z M438-456.7c0-1-0.4-1.8-1.3-1.8c-0.8,0-1.2,0.7-1.2,1.8c0,1.1,0.5,1.7,1.2,1.7
			C437.5-455,438-455.7,438-456.7z"/>
		<path d="M442.8-462.2h2.1v6.8h3.9v1.8h-6V-462.2z"/>
		<path d="M449.3-455.3c0-1.4,1.1-1.8,2.4-1.9c1.2-0.1,1.6-0.3,1.6-0.7c0-0.4-0.3-0.7-0.8-0.7c-0.6,0-0.9,0.3-1,0.8h-1.8
			c0-1.1,0.9-2.1,2.8-2.1c0.9,0,1.5,0.2,2,0.5c0.5,0.4,0.8,1,0.8,1.8v3.1c0,0.5,0,0.8,0.2,0.9v0.1h-1.9c-0.1-0.1-0.2-0.4-0.2-0.7h0
			c-0.4,0.5-0.9,0.8-1.8,0.8C450.2-453.5,449.3-454.1,449.3-455.3z M453.3-455.8v-0.7c-0.3,0.1-0.6,0.2-1,0.3
			c-0.8,0.2-1.1,0.4-1.1,0.8c0,0.5,0.4,0.7,0.8,0.7C452.7-454.7,453.3-455.2,453.3-455.8z"/>
		<path d="M456.1-459.8h1.9v1h0c0.4-0.7,0.9-1.1,1.7-1.1c0.2,0,0.3,0,0.4,0v1.7h0c-1.2-0.2-2,0.4-2,1.8v2.8h-2V-459.8z"/>
		<path d="M460.4-453.5h1.9c0.1,0.3,0.4,0.6,1.1,0.6c0.8,0,1.2-0.4,1.2-1.2v-0.6h0c-0.4,0.4-0.8,0.7-1.6,0.7c-1.4,0-2.7-1-2.7-2.9
			c0-1.8,1.1-3.1,2.6-3.1c0.8,0,1.4,0.3,1.7,0.8h0v-0.7h1.9v5.5c0,0.9-0.3,1.6-0.8,2c-0.5,0.5-1.3,0.7-2.3,0.7
			C461.7-451.5,460.6-452.2,460.4-453.5z M464.6-456.9c0-0.8-0.4-1.5-1.2-1.5c-0.7,0-1.2,0.6-1.2,1.5c0,0.9,0.5,1.5,1.2,1.5
			C464.2-455.4,464.6-456.1,464.6-456.9z"/>
		<path d="M467.1-456.7c0-1.8,1.3-3.2,3.2-3.2c0.9,0,1.6,0.3,2.1,0.8c0.7,0.7,1.1,1.7,1.1,3h-4.4c0.1,0.8,0.6,1.3,1.4,1.3
			c0.5,0,0.9-0.2,1-0.6h1.9c-0.1,0.6-0.5,1.1-1,1.5c-0.5,0.4-1.1,0.6-1.9,0.6C468.4-453.4,467.1-454.8,467.1-456.7z M471.5-457.3
			c-0.1-0.7-0.5-1.2-1.2-1.2c-0.7,0-1.1,0.5-1.3,1.2H471.5z"/>
	</g>
	<g class="st3">
		<path d="M673.6-462.2h6.4v1.8h-4.3v1.7h3.6v1.7h-3.6v3.3h-2.1V-462.2z"/>
		<path d="M679.9-456.7c0-1.8,1.3-3.3,3.3-3.3c2,0,3.3,1.4,3.3,3.3c0,1.8-1.3,3.3-3.3,3.3C681.2-453.4,679.9-454.8,679.9-456.7z
			 M684.5-456.7c0-1.1-0.5-1.9-1.3-1.9c-0.9,0-1.3,0.8-1.3,1.9c0,1.1,0.4,1.9,1.3,1.9C684-454.8,684.5-455.6,684.5-456.7z"/>
		<path d="M687.1-459.8h1.9v1h0c0.4-0.7,0.9-1.1,1.7-1.1c0.2,0,0.3,0,0.4,0v1.7h0c-1.2-0.2-2,0.4-2,1.8v2.8h-2V-459.8z"/>
		<path d="M691.7-459.8h1.9v0.9h0c0.4-0.6,1-1.1,1.9-1.1c0.8,0,1.4,0.4,1.7,1.1h0c0.5-0.7,1.1-1.1,1.9-1.1c1.4,0,2.1,0.9,2.1,2.3v4
			h-2v-3.6c0-0.7-0.3-1-0.9-1c-0.6,0-1,0.5-1,1.2v3.4h-2v-3.6c0-0.7-0.3-1-0.9-1c-0.6,0-1,0.5-1,1.2v3.4h-2V-459.8z"/>
		<path d="M701.8-455.3c0-1.4,1.1-1.8,2.4-1.9c1.2-0.1,1.6-0.3,1.6-0.7c0-0.4-0.3-0.7-0.8-0.7c-0.6,0-0.9,0.3-1,0.8h-1.8
			c0-1.1,0.9-2.1,2.8-2.1c0.9,0,1.5,0.2,2,0.5c0.5,0.4,0.8,1,0.8,1.8v3.1c0,0.5,0,0.8,0.2,0.9v0.1H706c-0.1-0.1-0.2-0.4-0.2-0.7h0
			c-0.4,0.5-0.9,0.8-1.8,0.8C702.7-453.5,701.8-454.1,701.8-455.3z M705.8-455.8v-0.7c-0.3,0.1-0.6,0.2-1,0.3
			c-0.8,0.2-1.1,0.4-1.1,0.8c0,0.5,0.4,0.7,0.8,0.7C705.3-454.7,705.8-455.2,705.8-455.8z"/>
		<path d="M708.6-462.2h2v8.6h-2V-462.2z"/>
		<path d="M713.1-456.3h2.1c0.1,0.9,0.7,1.2,1.7,1.2c0.7,0,1.4-0.3,1.4-0.9c0-0.7-0.7-0.8-1.9-1.1c-1.5-0.3-3.1-0.8-3.1-2.6
			c0-1.8,1.5-2.6,3.4-2.6c1.9,0,3.3,0.8,3.4,2.6h-2.1c-0.1-0.7-0.6-1-1.4-1c-0.7,0-1.2,0.3-1.2,0.8c0,0.6,0.7,0.7,1.9,1
			c1.6,0.4,3,0.9,3,2.7c0,1.8-1.5,2.8-3.5,2.8C714.7-453.4,713.2-454.4,713.1-456.3z"/>
		<path d="M721.2-462.2h2v3.2h0c0.4-0.6,1-0.9,1.8-0.9c1.3,0,2.1,1,2.1,2.3v4h-2v-3.6c0-0.6-0.3-1.1-1-1.1c-0.6,0-1.1,0.5-1.1,1.3
			v3.4h-2V-462.2z"/>
		<path d="M728.1-462.2h2v1.6h-2V-462.2z M728.1-459.8h2v6.1h-2V-459.8z"/>
		<path d="M730.7-456.7c0-1.8,1.3-3.2,3.2-3.2c0.9,0,1.6,0.3,2.1,0.8c0.7,0.7,1.1,1.7,1.1,3h-4.4c0.1,0.8,0.6,1.3,1.4,1.3
			c0.5,0,0.9-0.2,1-0.6h1.9c-0.1,0.6-0.5,1.1-1,1.5c-0.5,0.4-1.1,0.6-1.9,0.6C731.9-453.4,730.7-454.8,730.7-456.7z M735-457.3
			c-0.1-0.7-0.5-1.2-1.2-1.2c-0.7,0-1.1,0.5-1.3,1.2H735z"/>
		<path d="M737.7-462.2h2v8.6h-2V-462.2z"/>
		<path d="M740.3-456.7c0-1.9,1.1-3.3,2.7-3.3c0.9,0,1.4,0.4,1.7,0.9h0v-3.1h2v8.6h-1.9v-0.8h0c-0.4,0.6-1,1-1.8,1
			C741.5-453.4,740.3-454.6,740.3-456.7z M744.8-456.7c0-1-0.4-1.8-1.3-1.8c-0.8,0-1.2,0.7-1.2,1.8c0,1.1,0.5,1.7,1.2,1.7
			C744.3-455,744.8-455.7,744.8-456.7z"/>
		<path d="M749.3-457.9c0-2.6,1.7-4.5,4.2-4.5c1,0,1.8,0.3,2.4,0.8c0.7,0.6,1.2,1.4,1.3,2.4h-2.1c-0.1-0.8-0.7-1.4-1.6-1.4
			c-1.4,0-2.1,1.2-2.1,2.7c0,1.6,0.8,2.7,2.1,2.7c0.9,0,1.6-0.6,1.7-1.4h2.1c-0.1,0.9-0.4,1.6-1,2.2c-0.7,0.6-1.5,1-2.7,1
			C751-453.4,749.3-455.3,749.3-457.9z"/>
		<path d="M757.8-456.7c0-1.8,1.3-3.2,3.2-3.2c0.9,0,1.6,0.3,2.1,0.8c0.7,0.7,1.1,1.7,1.1,3h-4.4c0.1,0.8,0.6,1.3,1.4,1.3
			c0.5,0,0.9-0.2,1-0.6h1.9c-0.1,0.6-0.5,1.1-1,1.5c-0.5,0.4-1.1,0.6-1.9,0.6C759-453.4,757.8-454.8,757.8-456.7z M762.2-457.3
			c-0.1-0.7-0.5-1.2-1.2-1.2c-0.7,0-1.1,0.5-1.3,1.2H762.2z"/>
		<path d="M764.8-459.8h1.9v0.8h0c0.5-0.7,1-1,1.9-1c1.3,0,2.1,1,2.1,2.3v4h-2v-3.6c0-0.6-0.3-1.1-1-1.1c-0.6,0-1.1,0.5-1.1,1.3v3.4
			h-2V-459.8z"/>
		<path d="M772-455.2v-3.3h-0.8v-1.2h0.8v-1.9h1.9v1.9h1.1v1.2h-1.1v2.9c0,0.5,0.3,0.6,0.7,0.6c0.2,0,0.4,0,0.4,0v1.4
			c-0.2,0-0.5,0.1-1.1,0.1C772.8-453.5,772-453.9,772-455.2z"/>
		<path d="M775.4-456.7c0-1.8,1.3-3.2,3.2-3.2c0.9,0,1.6,0.3,2.1,0.8c0.7,0.7,1.1,1.7,1.1,3h-4.4c0.1,0.8,0.6,1.3,1.4,1.3
			c0.5,0,0.9-0.2,1-0.6h1.9c-0.1,0.6-0.5,1.1-1,1.5c-0.5,0.4-1.1,0.6-1.9,0.6C776.6-453.4,775.4-454.8,775.4-456.7z M779.7-457.3
			c-0.1-0.7-0.5-1.2-1.2-1.2c-0.7,0-1.1,0.5-1.3,1.2H779.7z"/>
		<path d="M782.4-459.8h1.9v1h0c0.4-0.7,0.9-1.1,1.7-1.1c0.2,0,0.3,0,0.4,0v1.7h0c-1.2-0.2-2,0.4-2,1.8v2.8h-2V-459.8z"/>
		<path d="M786.6-456.7c0-1.8,1.3-3.2,3.2-3.2c0.9,0,1.6,0.3,2.1,0.8c0.7,0.7,1.1,1.7,1.1,3h-4.4c0.1,0.8,0.6,1.3,1.4,1.3
			c0.5,0,0.9-0.2,1-0.6h1.9c-0.1,0.6-0.5,1.1-1,1.5c-0.5,0.4-1.1,0.6-1.9,0.6C787.8-453.4,786.6-454.8,786.6-456.7z M790.9-457.3
			c-0.1-0.7-0.5-1.2-1.2-1.2c-0.7,0-1.1,0.5-1.3,1.2H790.9z"/>
		<path d="M793.3-456.7c0-1.9,1.1-3.3,2.7-3.3c0.9,0,1.4,0.4,1.7,0.9h0v-3.1h2v8.6h-1.9v-0.8h0c-0.4,0.6-1,1-1.8,1
			C794.4-453.4,793.3-454.6,793.3-456.7z M797.8-456.7c0-1-0.4-1.8-1.3-1.8c-0.8,0-1.2,0.7-1.2,1.8c0,1.1,0.5,1.7,1.2,1.7
			C797.3-455,797.8-455.7,797.8-456.7z"/>
		<path d="M802.2-456.3h2.1c0.1,0.9,0.7,1.2,1.7,1.2c0.7,0,1.4-0.3,1.4-0.9c0-0.7-0.7-0.8-1.9-1.1c-1.5-0.3-3.1-0.8-3.1-2.6
			c0-1.8,1.5-2.6,3.4-2.6c1.9,0,3.3,0.8,3.4,2.6h-2.1c-0.1-0.7-0.6-1-1.4-1c-0.7,0-1.2,0.3-1.2,0.8c0,0.6,0.7,0.7,1.9,1
			c1.6,0.4,3,0.9,3,2.7c0,1.8-1.5,2.8-3.5,2.8C803.8-453.4,802.3-454.4,802.2-456.3z"/>
		<path d="M810.3-459.8h1.9v0.9h0c0.4-0.6,1-1.1,1.9-1.1c0.8,0,1.4,0.4,1.7,1.1h0c0.5-0.7,1.1-1.1,1.9-1.1c1.4,0,2.1,0.9,2.1,2.3v4
			h-2v-3.6c0-0.7-0.3-1-0.9-1c-0.6,0-1,0.5-1,1.2v3.4h-2v-3.6c0-0.7-0.3-1-0.9-1c-0.6,0-1,0.5-1,1.2v3.4h-2V-459.8z"/>
		<path d="M820.4-455.3c0-1.4,1.1-1.8,2.4-1.9c1.2-0.1,1.6-0.3,1.6-0.7c0-0.4-0.3-0.7-0.8-0.7c-0.6,0-0.9,0.3-1,0.8h-1.8
			c0-1.1,0.9-2.1,2.8-2.1c0.9,0,1.5,0.2,2,0.5c0.5,0.4,0.8,1,0.8,1.8v3.1c0,0.5,0,0.8,0.2,0.9v0.1h-1.9c-0.1-0.1-0.2-0.4-0.2-0.7h0
			c-0.4,0.5-0.9,0.8-1.8,0.8C821.3-453.5,820.4-454.1,820.4-455.3z M824.4-455.8v-0.7c-0.3,0.1-0.6,0.2-1,0.3
			c-0.8,0.2-1.1,0.4-1.1,0.8c0,0.5,0.4,0.7,0.8,0.7C823.9-454.7,824.4-455.2,824.4-455.8z"/>
		<path d="M827.2-462.2h2v8.6h-2V-462.2z"/>
		<path d="M830.2-462.2h2v8.6h-2V-462.2z"/>
	</g>
	<g class="st3">
		<path d="M1035.6-462.2h6.4v1.8h-4.3v1.7h3.6v1.7h-3.6v3.3h-2.1V-462.2z"/>
		<path d="M1041.9-456.7c0-1.8,1.3-3.3,3.3-3.3c2,0,3.3,1.4,3.3,3.3c0,1.8-1.3,3.3-3.3,3.3C1043.2-453.4,1041.9-454.8,1041.9-456.7z
			 M1046.4-456.7c0-1.1-0.5-1.9-1.3-1.9c-0.9,0-1.3,0.8-1.3,1.9c0,1.1,0.4,1.9,1.3,1.9C1046-454.8,1046.4-455.6,1046.4-456.7z"/>
		<path d="M1049.1-459.8h1.9v1h0c0.4-0.7,0.9-1.1,1.7-1.1c0.2,0,0.3,0,0.4,0v1.7h0c-1.2-0.2-2,0.4-2,1.8v2.8h-2V-459.8z"/>
		<path d="M1053.7-459.8h1.9v0.9h0c0.4-0.6,1-1.1,1.9-1.1c0.8,0,1.4,0.4,1.7,1.1h0c0.5-0.7,1.1-1.1,1.9-1.1c1.4,0,2.1,0.9,2.1,2.3v4
			h-2v-3.6c0-0.7-0.3-1-0.9-1c-0.6,0-1,0.5-1,1.2v3.4h-2v-3.6c0-0.7-0.3-1-0.9-1c-0.6,0-1,0.5-1,1.2v3.4h-2V-459.8z"/>
		<path d="M1063.8-455.3c0-1.4,1.1-1.8,2.4-1.9c1.2-0.1,1.6-0.3,1.6-0.7c0-0.4-0.3-0.7-0.8-0.7c-0.6,0-0.9,0.3-1,0.8h-1.8
			c0-1.1,0.9-2.1,2.8-2.1c0.9,0,1.5,0.2,2,0.5c0.5,0.4,0.8,1,0.8,1.8v3.1c0,0.5,0,0.8,0.2,0.9v0.1h-1.9c-0.1-0.1-0.2-0.4-0.2-0.7h0
			c-0.4,0.5-0.9,0.8-1.8,0.8C1064.7-453.5,1063.8-454.1,1063.8-455.3z M1067.8-455.8v-0.7c-0.3,0.1-0.6,0.2-1,0.3
			c-0.8,0.2-1.1,0.4-1.1,0.8c0,0.5,0.4,0.7,0.8,0.7C1067.3-454.7,1067.8-455.2,1067.8-455.8z"/>
		<path d="M1070.6-462.2h2v8.6h-2V-462.2z"/>
		<path d="M1075.1-456.3h2.1c0.1,0.9,0.7,1.2,1.7,1.2c0.7,0,1.4-0.3,1.4-0.9c0-0.7-0.7-0.8-1.9-1.1c-1.5-0.3-3.1-0.8-3.1-2.6
			c0-1.8,1.5-2.6,3.4-2.6c1.9,0,3.3,0.8,3.4,2.6h-2.1c-0.1-0.7-0.6-1-1.4-1c-0.7,0-1.2,0.3-1.2,0.8c0,0.6,0.7,0.7,1.9,1
			c1.6,0.4,3,0.9,3,2.7c0,1.8-1.5,2.8-3.5,2.8C1076.7-453.4,1075.2-454.4,1075.1-456.3z"/>
		<path d="M1083.2-462.2h2v3.2h0c0.4-0.6,1-0.9,1.8-0.9c1.3,0,2.1,1,2.1,2.3v4h-2v-3.6c0-0.6-0.3-1.1-1-1.1c-0.6,0-1.1,0.5-1.1,1.3
			v3.4h-2V-462.2z"/>
		<path d="M1090-462.2h2v1.6h-2V-462.2z M1090-459.8h2v6.1h-2V-459.8z"/>
		<path d="M1092.7-456.7c0-1.8,1.3-3.2,3.2-3.2c0.9,0,1.6,0.3,2.1,0.8c0.7,0.7,1.1,1.7,1.1,3h-4.4c0.1,0.8,0.6,1.3,1.4,1.3
			c0.5,0,0.9-0.2,1-0.6h1.9c-0.1,0.6-0.5,1.1-1,1.5c-0.5,0.4-1.1,0.6-1.9,0.6C1093.9-453.4,1092.7-454.8,1092.7-456.7z M1097-457.3
			c-0.1-0.7-0.5-1.2-1.2-1.2c-0.7,0-1.1,0.5-1.3,1.2H1097z"/>
		<path d="M1099.7-462.2h2v8.6h-2V-462.2z"/>
		<path d="M1102.3-456.7c0-1.9,1.1-3.3,2.7-3.3c0.9,0,1.4,0.4,1.7,0.9h0v-3.1h2v8.6h-1.9v-0.8h0c-0.4,0.6-1,1-1.8,1
			C1103.4-453.4,1102.3-454.6,1102.3-456.7z M1106.8-456.7c0-1-0.4-1.8-1.3-1.8c-0.8,0-1.2,0.7-1.2,1.8c0,1.1,0.5,1.7,1.2,1.7
			C1106.3-455,1106.8-455.7,1106.8-456.7z"/>
		<path d="M1111.6-462.2h2.1v3.3h3v-3.3h2.1v8.6h-2.1v-3.6h-3v3.6h-2.1V-462.2z"/>
		<path d="M1119.7-456.7c0-1.8,1.3-3.3,3.3-3.3c2,0,3.3,1.4,3.3,3.3c0,1.8-1.3,3.3-3.3,3.3C1121-453.4,1119.7-454.8,1119.7-456.7z
			 M1124.2-456.7c0-1.1-0.5-1.9-1.3-1.9c-0.9,0-1.3,0.8-1.3,1.9c0,1.1,0.4,1.9,1.3,1.9C1123.8-454.8,1124.2-455.6,1124.2-456.7z"/>
		<path d="M1126.9-459.8h1.9v1h0c0.4-0.7,0.9-1.1,1.7-1.1c0.2,0,0.3,0,0.4,0v1.7h0c-1.2-0.2-2,0.4-2,1.8v2.8h-2V-459.8z"/>
		<path d="M1131.5-462.2h2v1.6h-2V-462.2z M1131.5-459.8h2v6.1h-2V-459.8z"/>
		<path d="M1134.2-455.1l2.4-2.6c0.2-0.2,0.5-0.5,0.5-0.5v0c0,0-0.6,0-0.8,0h-1.9v-1.5h5v1.4l-2.3,2.5c-0.2,0.2-0.6,0.6-0.6,0.6v0
			c0,0,0.6,0,0.9,0h2.2v1.5h-5.5V-455.1z"/>
		<path d="M1140-456.7c0-1.8,1.3-3.3,3.3-3.3c2,0,3.3,1.4,3.3,3.3c0,1.8-1.3,3.3-3.3,3.3C1141.3-453.4,1140-454.8,1140-456.7z
			 M1144.6-456.7c0-1.1-0.5-1.9-1.3-1.9c-0.9,0-1.3,0.8-1.3,1.9c0,1.1,0.4,1.9,1.3,1.9C1144.1-454.8,1144.6-455.6,1144.6-456.7z"/>
		<path d="M1147.2-459.8h1.9v0.8h0c0.5-0.7,1-1,1.9-1c1.3,0,2.1,1,2.1,2.3v4h-2v-3.6c0-0.6-0.3-1.1-1-1.1c-0.6,0-1.1,0.5-1.1,1.3
			v3.4h-2V-459.8z"/>
		<path d="M1154.4-455.2v-3.3h-0.8v-1.2h0.8v-1.9h1.9v1.9h1.1v1.2h-1.1v2.9c0,0.5,0.3,0.6,0.7,0.6c0.2,0,0.4,0,0.4,0v1.4
			c-0.2,0-0.5,0.1-1.1,0.1C1155.2-453.5,1154.4-453.9,1154.4-455.2z"/>
		<path d="M1158-455.3c0-1.4,1.1-1.8,2.4-1.9c1.2-0.1,1.6-0.3,1.6-0.7c0-0.4-0.3-0.7-0.8-0.7c-0.6,0-0.9,0.3-1,0.8h-1.8
			c0-1.1,0.9-2.1,2.8-2.1c0.9,0,1.5,0.2,2,0.5c0.5,0.4,0.8,1,0.8,1.8v3.1c0,0.5,0,0.8,0.2,0.9v0.1h-1.9c-0.1-0.1-0.2-0.4-0.2-0.7h0
			c-0.4,0.5-0.9,0.8-1.8,0.8C1158.8-453.5,1158-454.1,1158-455.3z M1161.9-455.8v-0.7c-0.3,0.1-0.6,0.2-1,0.3
			c-0.8,0.2-1.1,0.4-1.1,0.8c0,0.5,0.4,0.7,0.8,0.7C1161.4-454.7,1161.9-455.2,1161.9-455.8z"/>
		<path d="M1164.8-462.2h2v8.6h-2V-462.2z"/>
	</g>
	<g class="st3">
		<path d="M-50.9-101.8h2.1l0.9,3.6c0.2,0.8,0.4,2.1,0.4,2.1h0c0,0,0.2-1.2,0.4-2l0.8-3.7h2l0.8,3.7c0.2,0.9,0.4,2.1,0.4,2.1h0
			c0,0,0.2-1.3,0.4-2.1l0.9-3.6h2.1l-2.4,8.6h-2.1l-0.9-4.1c-0.2-0.7-0.3-1.6-0.3-1.6h0c0,0-0.1,0.9-0.3,1.6l-0.9,4.1h-2.1
			L-50.9-101.8z"/>
		<path d="M-40.2-96.3c0-1.8,1.3-3.3,3.3-3.3c2,0,3.3,1.4,3.3,3.3c0,1.8-1.3,3.3-3.3,3.3C-38.9-93.1-40.2-94.5-40.2-96.3z
			 M-35.6-96.3c0-1.1-0.5-1.9-1.3-1.9c-0.9,0-1.3,0.8-1.3,1.9c0,1.1,0.4,1.9,1.3,1.9C-36.1-94.5-35.6-95.2-35.6-96.3z"/>
		<path d="M-33-99.4h1.9v1h0c0.4-0.7,0.9-1.1,1.7-1.1c0.2,0,0.3,0,0.4,0v1.7h0c-1.2-0.2-2,0.4-2,1.8v2.8h-2V-99.4z"/>
		<path d="M-28.8-96.3c0-1.9,1.1-3.3,2.7-3.3c0.9,0,1.4,0.4,1.7,0.9h0v-3.1h2v8.6h-1.9v-0.8h0c-0.4,0.6-1,1-1.8,1
			C-27.6-93.1-28.8-94.3-28.8-96.3z M-24.3-96.3c0-1-0.4-1.8-1.3-1.8c-0.8,0-1.2,0.7-1.2,1.8c0,1.1,0.5,1.7,1.2,1.7
			C-24.8-94.6-24.3-95.3-24.3-96.3z"/>
		<path d="M-21.4-99.4h1.9v0.9h0c0.4-0.6,1-1.1,1.9-1.1c0.8,0,1.4,0.4,1.7,1.1h0c0.5-0.7,1.1-1.1,1.9-1.1c1.4,0,2.1,0.9,2.1,2.3v4
			h-2v-3.6c0-0.7-0.3-1-0.9-1c-0.6,0-1,0.5-1,1.2v3.4h-2v-3.6c0-0.7-0.3-1-0.9-1c-0.6,0-1,0.5-1,1.2v3.4h-2V-99.4z"/>
		<path d="M-11.3-95c0-1.4,1.1-1.8,2.4-1.9c1.2-0.1,1.6-0.3,1.6-0.7c0-0.4-0.3-0.7-0.8-0.7c-0.6,0-0.9,0.3-1,0.8H-11
			c0-1.1,0.9-2.1,2.8-2.1c0.9,0,1.5,0.2,2,0.5c0.5,0.4,0.8,1,0.8,1.8v3.1c0,0.5,0,0.8,0.2,0.9v0.1h-1.9c-0.1-0.1-0.2-0.4-0.2-0.7h0
			c-0.4,0.5-0.9,0.8-1.8,0.8C-10.4-93.1-11.3-93.8-11.3-95z M-7.3-95.5v-0.7c-0.3,0.1-0.6,0.2-1,0.3c-0.8,0.2-1.1,0.4-1.1,0.8
			c0,0.5,0.4,0.7,0.8,0.7C-7.8-94.3-7.3-94.8-7.3-95.5z"/>
		<path d="M-4.5-99.4h1.9v1h0c0.4-0.7,0.9-1.1,1.7-1.1c0.2,0,0.3,0,0.4,0v1.7h0c-1.2-0.2-2,0.4-2,1.8v2.8h-2V-99.4z"/>
		<path d="M0.1-101.8H2v4.5l1.8-2.1h2.3l-2.2,2.3l2.4,3.8H4.1l-1.5-2.5L2-95.1v1.9H0.1V-101.8z"/>
		<path d="M8.2-99.4h2l0.7,2.5c0.1,0.5,0.3,1.2,0.3,1.2h0c0,0,0.1-0.7,0.3-1.2l0.6-2.5h1.7l0.7,2.5c0.1,0.5,0.3,1.2,0.3,1.2h0
			c0,0,0.2-0.7,0.3-1.2l0.7-2.5h1.9l-1.9,6.1h-1.8L13.2-96c-0.1-0.5-0.3-1.1-0.3-1.1h0c0,0-0.1,0.6-0.3,1.1l-0.7,2.8h-1.8L8.2-99.4z
			"/>
		<path d="M18.1-101.8h2v1.6h-2V-101.8z M18.1-99.4h2v6.1h-2V-99.4z"/>
		<path d="M21.4-94.9v-3.3h-0.8v-1.2h0.8v-1.9h1.9v1.9h1.1v1.2h-1.1v2.9c0,0.5,0.3,0.6,0.7,0.6c0.2,0,0.4,0,0.4,0v1.4
			c-0.2,0-0.5,0.1-1.1,0.1C22.2-93.2,21.4-93.6,21.4-94.9z"/>
		<path d="M25.2-101.8h2v3.2h0c0.4-0.6,1-0.9,1.8-0.9c1.3,0,2.1,1,2.1,2.3v4h-2v-3.6c0-0.6-0.3-1.1-1-1.1c-0.6,0-1.1,0.5-1.1,1.3
			v3.4h-2V-101.8z"/>
		<path d="M34-101.8h3.9c1,0,1.8,0.3,2.3,0.8c0.6,0.5,0.9,1.2,0.9,2.1c0,1.6-1.1,2.8-2.9,2.8h-2v2.9H34V-101.8z M37.7-97.8
			c0.8,0,1.2-0.5,1.2-1.1s-0.4-1.1-1.2-1.1h-1.6v2.2H37.7z"/>
		<path d="M41.7-99.4h1.9v1h0c0.4-0.7,0.9-1.1,1.7-1.1c0.2,0,0.3,0,0.4,0v1.7h0c-1.2-0.2-2,0.4-2,1.8v2.8h-2V-99.4z"/>
		<path d="M46.3-101.8h2v1.6h-2V-101.8z M46.3-99.4h2v6.1h-2V-99.4z"/>
		<path d="M49.2-99.4h1.9v0.8h0c0.5-0.7,1-1,1.9-1c1.3,0,2.1,1,2.1,2.3v4h-2v-3.6c0-0.6-0.3-1.1-1-1.1c-0.6,0-1.1,0.5-1.1,1.3v3.4
			h-2V-99.4z"/>
		<path d="M55.7-96.3c0-1.8,1.3-3.3,3.2-3.3c1.7,0,2.7,1,2.9,2.4H60c-0.1-0.6-0.5-0.9-1-0.9c-0.8,0-1.3,0.7-1.3,1.8
			c0,1.1,0.4,1.8,1.3,1.8c0.6,0,1-0.4,1.1-1.1h1.9c0,1.4-1.2,2.5-2.9,2.5C57-93.1,55.7-94.5,55.7-96.3z"/>
		<path d="M62.3-96.3c0-1.8,1.3-3.2,3.2-3.2c0.9,0,1.6,0.3,2.1,0.8c0.7,0.7,1.1,1.7,1.1,3h-4.4c0.1,0.8,0.6,1.3,1.4,1.3
			c0.5,0,0.9-0.2,1-0.6h1.9c-0.1,0.6-0.5,1.1-1,1.5c-0.5,0.4-1.1,0.6-1.9,0.6C63.5-93.1,62.3-94.5,62.3-96.3z M66.6-97
			c-0.1-0.7-0.5-1.2-1.2-1.2c-0.7,0-1.1,0.5-1.3,1.2H66.6z"/>
		<path d="M69.6-94.9v-3.3h-0.8v-1.2h0.8v-1.9h1.9v1.9h1.1v1.2h-1.1v2.9c0,0.5,0.3,0.6,0.7,0.6c0.2,0,0.4,0,0.4,0v1.4
			c-0.2,0-0.5,0.1-1.1,0.1C70.4-93.2,69.6-93.6,69.6-94.9z"/>
		<path d="M73-96.3c0-1.8,1.3-3.3,3.3-3.3c2,0,3.3,1.4,3.3,3.3c0,1.8-1.3,3.3-3.3,3.3C74.3-93.1,73-94.5,73-96.3z M77.6-96.3
			c0-1.1-0.5-1.9-1.3-1.9c-0.9,0-1.3,0.8-1.3,1.9c0,1.1,0.4,1.9,1.3,1.9C77.1-94.5,77.6-95.2,77.6-96.3z"/>
		<path d="M80.2-99.4h1.9v0.8h0c0.5-0.7,1-1,1.9-1c1.3,0,2.1,1,2.1,2.3v4h-2v-3.6c0-0.6-0.3-1.1-1-1.1c-0.6,0-1.1,0.5-1.1,1.3v3.4
			h-2V-99.4z"/>
	</g>
	<g class="st3">
		<path d="M313.2-101.8h2.1l0.9,3.6c0.2,0.8,0.4,2.1,0.4,2.1h0c0,0,0.2-1.2,0.4-2l0.8-3.7h2l0.8,3.7c0.2,0.9,0.4,2.1,0.4,2.1h0
			c0,0,0.2-1.3,0.4-2.1l0.9-3.6h2.1l-2.4,8.6H320l-0.9-4.1c-0.2-0.7-0.3-1.6-0.3-1.6h0c0,0-0.1,0.9-0.3,1.6l-0.9,4.1h-2.1
			L313.2-101.8z"/>
		<path d="M323.9-96.3c0-1.8,1.3-3.3,3.3-3.3c2,0,3.3,1.4,3.3,3.3c0,1.8-1.3,3.3-3.3,3.3C325.3-93.1,323.9-94.5,323.9-96.3z
			 M328.5-96.3c0-1.1-0.5-1.9-1.3-1.9c-0.9,0-1.3,0.8-1.3,1.9c0,1.1,0.4,1.9,1.3,1.9C328.1-94.5,328.5-95.2,328.5-96.3z"/>
		<path d="M331.2-99.4h1.9v1h0c0.4-0.7,0.9-1.1,1.7-1.1c0.2,0,0.3,0,0.4,0v1.7h0c-1.2-0.2-2,0.4-2,1.8v2.8h-2V-99.4z"/>
		<path d="M335.4-96.3c0-1.9,1.1-3.3,2.7-3.3c0.9,0,1.4,0.4,1.7,0.9h0v-3.1h2v8.6h-1.9v-0.8h0c-0.4,0.6-1,1-1.8,1
			C336.5-93.1,335.4-94.3,335.4-96.3z M339.9-96.3c0-1-0.4-1.8-1.3-1.8c-0.8,0-1.2,0.7-1.2,1.8c0,1.1,0.5,1.7,1.2,1.7
			C339.4-94.6,339.9-95.3,339.9-96.3z"/>
		<path d="M342.7-99.4h1.9v0.9h0c0.4-0.6,1-1.1,1.9-1.1c0.8,0,1.4,0.4,1.7,1.1h0c0.5-0.7,1.1-1.1,1.9-1.1c1.4,0,2.1,0.9,2.1,2.3v4
			h-2v-3.6c0-0.7-0.3-1-0.9-1c-0.6,0-1,0.5-1,1.2v3.4h-2v-3.6c0-0.7-0.3-1-0.9-1c-0.6,0-1,0.5-1,1.2v3.4h-2V-99.4z"/>
		<path d="M352.8-95c0-1.4,1.1-1.8,2.4-1.9c1.2-0.1,1.6-0.3,1.6-0.7c0-0.4-0.3-0.7-0.8-0.7c-0.6,0-0.9,0.3-1,0.8h-1.8
			c0-1.1,0.9-2.1,2.8-2.1c0.9,0,1.5,0.2,2,0.5c0.5,0.4,0.8,1,0.8,1.8v3.1c0,0.5,0,0.8,0.2,0.9v0.1H357c-0.1-0.1-0.2-0.4-0.2-0.7h0
			c-0.4,0.5-0.9,0.8-1.8,0.8C353.7-93.1,352.8-93.8,352.8-95z M356.8-95.5v-0.7c-0.3,0.1-0.6,0.2-1,0.3c-0.8,0.2-1.1,0.4-1.1,0.8
			c0,0.5,0.4,0.7,0.8,0.7C356.3-94.3,356.8-94.8,356.8-95.5z"/>
		<path d="M359.6-99.4h1.9v1h0c0.4-0.7,0.9-1.1,1.7-1.1c0.2,0,0.3,0,0.4,0v1.7h0c-1.2-0.2-2,0.4-2,1.8v2.8h-2V-99.4z"/>
		<path d="M364.2-101.8h1.9v4.5l1.8-2.1h2.3l-2.2,2.3l2.4,3.8h-2.3l-1.5-2.5l-0.6,0.6v1.9h-1.9V-101.8z"/>
		<path d="M372.9-101.8h3.9c1,0,1.8,0.3,2.3,0.8c0.6,0.5,0.9,1.2,0.9,2.1c0,1.6-1.1,2.8-2.9,2.8h-2v2.9h-2.2V-101.8z M376.6-97.8
			c0.8,0,1.2-0.5,1.2-1.1s-0.4-1.1-1.2-1.1h-1.6v2.2H376.6z"/>
		<path d="M380.6-101.8h2v8.6h-2V-101.8z"/>
		<path d="M383.3-95c0-1.4,1.1-1.8,2.4-1.9c1.2-0.1,1.6-0.3,1.6-0.7c0-0.4-0.3-0.7-0.8-0.7c-0.6,0-0.9,0.3-1,0.8h-1.8
			c0-1.1,0.9-2.1,2.8-2.1c0.9,0,1.5,0.2,2,0.5c0.5,0.4,0.8,1,0.8,1.8v3.1c0,0.5,0,0.8,0.2,0.9v0.1h-1.9c-0.1-0.1-0.2-0.4-0.2-0.7h0
			c-0.4,0.5-0.9,0.8-1.8,0.8C384.1-93.1,383.3-93.8,383.3-95z M387.2-95.5v-0.7c-0.3,0.1-0.6,0.2-1,0.3c-0.8,0.2-1.1,0.4-1.1,0.8
			c0,0.5,0.4,0.7,0.8,0.7C386.7-94.3,387.2-94.8,387.2-95.5z"/>
		<path d="M390.1-101.8h2v1.6h-2V-101.8z M390.1-99.4h2v6.1h-2V-99.4z"/>
		<path d="M392.9-99.4h1.9v0.8h0c0.5-0.7,1-1,1.9-1c1.3,0,2.1,1,2.1,2.3v4h-2v-3.6c0-0.6-0.3-1.1-1-1.1c-0.6,0-1.1,0.5-1.1,1.3v3.4
			h-2V-99.4z"/>
	</g>
	<g class="st3">
		<path d="M673.6-101.8h2.1v3.3h3v-3.3h2.1v8.6h-2.1v-3.6h-3v3.6h-2.1V-101.8z"/>
		<path d="M681.6-96.3c0-1.8,1.3-3.2,3.2-3.2c0.9,0,1.6,0.3,2.1,0.8c0.7,0.7,1.1,1.7,1.1,3h-4.4c0.1,0.8,0.6,1.3,1.4,1.3
			c0.5,0,0.9-0.2,1-0.6h1.9c-0.1,0.6-0.5,1.1-1,1.5c-0.5,0.4-1.1,0.6-1.9,0.6C682.9-93.1,681.6-94.5,681.6-96.3z M686-97
			c-0.1-0.7-0.5-1.2-1.2-1.2c-0.7,0-1.1,0.5-1.3,1.2H686z"/>
		<path d="M688.3-95c0-1.4,1.1-1.8,2.4-1.9c1.2-0.1,1.6-0.3,1.6-0.7c0-0.4-0.3-0.7-0.8-0.7c-0.6,0-0.9,0.3-1,0.8h-1.8
			c0-1.1,0.9-2.1,2.8-2.1c0.9,0,1.5,0.2,2,0.5c0.5,0.4,0.8,1,0.8,1.8v3.1c0,0.5,0,0.8,0.2,0.9v0.1h-1.9c-0.1-0.1-0.2-0.4-0.2-0.7h0
			c-0.4,0.5-0.9,0.8-1.8,0.8C689.2-93.1,688.3-93.8,688.3-95z M692.3-95.5v-0.7c-0.3,0.1-0.6,0.2-1,0.3c-0.8,0.2-1.1,0.4-1.1,0.8
			c0,0.5,0.4,0.7,0.8,0.7C691.8-94.3,692.3-94.8,692.3-95.5z"/>
		<path d="M695.1-99.4h1.9v1h0c0.4-0.7,0.9-1.1,1.7-1.1c0.2,0,0.3,0,0.4,0v1.7h0c-1.2-0.2-2,0.4-2,1.8v2.8h-2V-99.4z"/>
		<path d="M700.3-94.9v-3.3h-0.8v-1.2h0.8v-1.9h1.9v1.9h1.1v1.2h-1.1v2.9c0,0.5,0.3,0.6,0.7,0.6c0.2,0,0.4,0,0.4,0v1.4
			c-0.2,0-0.5,0.1-1.1,0.1C701.1-93.2,700.3-93.6,700.3-94.9z"/>
		<path d="M705.6-96h2.1c0.1,0.9,0.7,1.2,1.7,1.2c0.7,0,1.4-0.3,1.4-0.9c0-0.7-0.7-0.8-1.9-1.1c-1.5-0.3-3.1-0.8-3.1-2.6
			c0-1.8,1.5-2.6,3.4-2.6c1.9,0,3.3,0.8,3.4,2.6h-2.1c-0.1-0.7-0.6-1-1.4-1c-0.7,0-1.2,0.3-1.2,0.8c0,0.6,0.7,0.7,1.9,1
			c1.6,0.4,3,0.9,3,2.7c0,1.8-1.5,2.8-3.5,2.8C707.2-93.1,705.7-94.1,705.6-96z"/>
		<path d="M713.7-101.8h2v3.2h0c0.4-0.6,1-0.9,1.8-0.9c1.3,0,2.1,1,2.1,2.3v4h-2v-3.6c0-0.6-0.3-1.1-1-1.1c-0.6,0-1.1,0.5-1.1,1.3
			v3.4h-2V-101.8z"/>
		<path d="M720.6-101.8h2v1.6h-2V-101.8z M720.6-99.4h2v6.1h-2V-99.4z"/>
		<path d="M723.2-96.3c0-1.8,1.3-3.2,3.2-3.2c0.9,0,1.6,0.3,2.1,0.8c0.7,0.7,1.1,1.7,1.1,3h-4.4c0.1,0.8,0.6,1.3,1.4,1.3
			c0.5,0,0.9-0.2,1-0.6h1.9c-0.1,0.6-0.5,1.1-1,1.5c-0.5,0.4-1.1,0.6-1.9,0.6C724.4-93.1,723.2-94.5,723.2-96.3z M727.5-97
			c-0.1-0.7-0.5-1.2-1.2-1.2c-0.7,0-1.1,0.5-1.3,1.2H727.5z"/>
		<path d="M730.2-101.8h2v8.6h-2V-101.8z"/>
		<path d="M732.8-96.3c0-1.9,1.1-3.3,2.7-3.3c0.9,0,1.4,0.4,1.7,0.9h0v-3.1h2v8.6h-1.9v-0.8h0c-0.4,0.6-1,1-1.8,1
			C733.9-93.1,732.8-94.3,732.8-96.3z M737.3-96.3c0-1-0.4-1.8-1.3-1.8c-0.8,0-1.2,0.7-1.2,1.8c0,1.1,0.5,1.7,1.2,1.7
			C736.8-94.6,737.3-95.3,737.3-96.3z"/>
	</g>
	<g class="st3">
		<path d="M1035.2-96h2.1c0.1,0.9,0.7,1.2,1.7,1.2c0.7,0,1.4-0.3,1.4-0.9c0-0.7-0.7-0.8-1.9-1.1c-1.5-0.3-3.1-0.8-3.1-2.6
			c0-1.8,1.5-2.6,3.4-2.6c1.9,0,3.3,0.8,3.4,2.6h-2.1c-0.1-0.7-0.6-1-1.4-1c-0.7,0-1.2,0.3-1.2,0.8c0,0.6,0.7,0.7,1.9,1
			c1.6,0.4,3,0.9,3,2.7c0,1.8-1.5,2.8-3.5,2.8C1036.7-93.1,1035.2-94.1,1035.2-96z"/>
		<path d="M1043-96.3c0-1.8,1.3-3.2,3.2-3.2c0.9,0,1.6,0.3,2.1,0.8c0.7,0.7,1.1,1.7,1.1,3h-4.4c0.1,0.8,0.6,1.3,1.4,1.3
			c0.5,0,0.9-0.2,1-0.6h1.9c-0.1,0.6-0.5,1.1-1,1.5c-0.5,0.4-1.1,0.6-1.9,0.6C1044.3-93.1,1043-94.5,1043-96.3z M1047.4-97
			c-0.1-0.7-0.5-1.2-1.2-1.2c-0.7,0-1.1,0.5-1.3,1.2H1047.4z"/>
		<path d="M1049.7-95c0-1.4,1.1-1.8,2.4-1.9c1.2-0.1,1.6-0.3,1.6-0.7c0-0.4-0.3-0.7-0.8-0.7c-0.6,0-0.9,0.3-1,0.8h-1.8
			c0-1.1,0.9-2.1,2.8-2.1c0.9,0,1.5,0.2,2,0.5c0.5,0.4,0.8,1,0.8,1.8v3.1c0,0.5,0,0.8,0.2,0.9v0.1h-1.9c-0.1-0.1-0.2-0.4-0.2-0.7h0
			c-0.4,0.5-0.9,0.8-1.8,0.8C1050.6-93.1,1049.7-93.8,1049.7-95z M1053.7-95.5v-0.7c-0.3,0.1-0.6,0.2-1,0.3
			c-0.8,0.2-1.1,0.4-1.1,0.8c0,0.5,0.4,0.7,0.8,0.7C1053.2-94.3,1053.7-94.8,1053.7-95.5z"/>
		<path d="M1056.5-101.8h2v8.6h-2V-101.8z"/>
	</g>
</g>
</svg>
