<svg xmlns="http://www.w3.org/2000/svg" viewBox="0 0 300 20.38"><path d="M7.12,19.19a6,6,0,0,1-1.52-.13A.82.82,0,0,1,5,18.6a3.74,3.74,0,0,1-.13-1.15V3.53A3.8,3.8,0,0,1,5,2.36a.8.8,0,0,1,.57-.46,5.94,5.94,0,0,1,1.53-.13V.93H0v.84a6,6,0,0,1,1.52.13.8.8,0,0,1,.58.46,3.5,3.5,0,0,1,.13,1.17V17.45a3.81,3.81,0,0,1-.12,1.15.75.75,0,0,1-.56.46A6.18,6.18,0,0,1,0,19.19V20H7.12Z" style="fill:#9d2235"/><path d="M16.07,19.19a6.21,6.21,0,0,1-1.27-.09.61.61,0,0,1-.49-.39,3,3,0,0,1-.12-1V9.61A6.59,6.59,0,0,1,15.7,8.09a3.28,3.28,0,0,1,1.91-.54,2.39,2.39,0,0,1,2,.86,3.57,3.57,0,0,1,.65,2.24v7a3.28,3.28,0,0,1-.11,1,.71.71,0,0,1-.5.39,5.54,5.54,0,0,1-1.3.1V20h6.34v-.84a5.34,5.34,0,0,1-1.36-.12.69.69,0,0,1-.52-.41,3.15,3.15,0,0,1-.12-1v-7.3c0-2.78-1.3-4.16-3.9-4.16a5.63,5.63,0,0,0-2.58.56,6.81,6.81,0,0,0-2.11,1.72h0V6.31H13.3l-3.42.58v.87h1a.77.77,0,0,1,.66.24,1.89,1.89,0,0,1,.18,1v8.63a3.42,3.42,0,0,1-.11,1,.64.64,0,0,1-.5.4,5.4,5.4,0,0,1-1.36.12V20h6.33Z" style="fill:#9d2235"/><path d="M31.71,20.38a5.8,5.8,0,0,0,2.46-.49,9.5,9.5,0,0,0,2-1.25L36.35,20h4v-.84h-.75a1.23,1.23,0,0,1-.92-.27,1.76,1.76,0,0,1-.24-1.09V0h-.78L34.15.64v.84h1a.76.76,0,0,1,.69.26,2,2,0,0,1,.18,1v4.4H36v.11a5.38,5.38,0,0,0-3.36-1.12A5.75,5.75,0,0,0,28.1,8q-1.63,1.8-1.63,5.53a8.31,8.31,0,0,0,1.35,5.12A4.6,4.6,0,0,0,31.71,20.38ZM30.14,8.51a3.11,3.11,0,0,1,2.79-1.45,4.27,4.27,0,0,1,3.13,1.48v9a10.08,10.08,0,0,1-1.62,1.22,3.39,3.39,0,0,1-1.71.43c-2.36,0-3.53-2-3.53-6A8.71,8.71,0,0,1,30.14,8.51Z" style="fill:#9d2235"/><path d="M49,19.19a6,6,0,0,1-1.35-.1.65.65,0,0,1-.5-.41A3.16,3.16,0,0,1,47,17.63V6.31h-.81l-3.5.58v.87h1c.35,0,.58.08.68.24a2,2,0,0,1,.16,1v8.63a3.51,3.51,0,0,1-.1,1,.68.68,0,0,1-.51.4,5.34,5.34,0,0,1-1.36.12V20H49Z" style="fill:#9d2235"/><path d="M45.67,3.76a1.54,1.54,0,0,0,1.14-.45,1.49,1.49,0,0,0,.45-1.11A1.63,1.63,0,0,0,46.83,1a1.67,1.67,0,0,0-2.3,0,1.61,1.61,0,0,0-.45,1.16,1.49,1.49,0,0,0,.45,1.11A1.54,1.54,0,0,0,45.67,3.76Z" style="fill:#9d2235"/><path d="M53.48,13.92a4.35,4.35,0,0,0-2.06,3.53,2.53,2.53,0,0,0,1,2.16,4.27,4.27,0,0,0,2.59.74,5.23,5.23,0,0,0,2.26-.48,9.61,9.61,0,0,0,2.08-1.4,2.07,2.07,0,0,0,.54,1.5,2.14,2.14,0,0,0,1.32.35,4.77,4.77,0,0,0,1.5-.2,5.89,5.89,0,0,0,1.13-.55l-.2-.73a2,2,0,0,1-.81.21.85.85,0,0,1-.8-.42,3.42,3.42,0,0,1-.25-1.55V10.22a3.94,3.94,0,0,0-1-3.13,4.86,4.86,0,0,0-3.24-.9,7.72,7.72,0,0,0-2.94.5A4.06,4.06,0,0,0,52.77,8a2.7,2.7,0,0,0-.6,1.68,1.57,1.57,0,0,0,.4,1.13,1.39,1.39,0,0,0,1,.4A1.22,1.22,0,0,0,55,9.84a1.06,1.06,0,0,0-.16-.65,2.18,2.18,0,0,0-.43-.43.6.6,0,0,1-.27-.42c0-.25.27-.51.81-.76a4.26,4.26,0,0,1,1.82-.37,2.53,2.53,0,0,1,2,.72,3.4,3.4,0,0,1,.59,2.2v1.68A13.66,13.66,0,0,0,53.48,13.92Zm5.87,3.59a8.41,8.41,0,0,1-1.52.93,3.58,3.58,0,0,1-1.54.35,2.45,2.45,0,0,1-1.68-.51A1.91,1.91,0,0,1,54,16.76a3,3,0,0,1,1.31-2.48,10.73,10.73,0,0,1,4-1.54Z" style="fill:#9d2235"/><path d="M72.21,19.19a6.32,6.32,0,0,1-1.28-.09.61.61,0,0,1-.49-.39,3.4,3.4,0,0,1-.11-1V9.61a6.37,6.37,0,0,1,1.5-1.52,3.28,3.28,0,0,1,1.91-.54,2.39,2.39,0,0,1,2,.86,3.57,3.57,0,0,1,.65,2.24v7a3,3,0,0,1-.11,1,.69.69,0,0,1-.49.39,5.64,5.64,0,0,1-1.31.1V20h6.34v-.84a5.4,5.4,0,0,1-1.36-.12.7.7,0,0,1-.52-.41,3.15,3.15,0,0,1-.12-1v-7.3c0-2.78-1.3-4.16-3.9-4.16a5.63,5.63,0,0,0-2.58.56,6.81,6.81,0,0,0-2.11,1.72h0V6.31h-.81L66,6.89v.87h1a.75.75,0,0,1,.66.24,1.89,1.89,0,0,1,.18,1v8.63a3.9,3.9,0,0,1-.1,1,.68.68,0,0,1-.51.4,5.34,5.34,0,0,1-1.36.12V20h6.34Z" style="fill:#9d2235"/><path d="M106.58,18.61a.84.84,0,0,1-.59.45,6.25,6.25,0,0,1-1.54.13V20h7.06v-.84a6.3,6.3,0,0,1-1.46-.12.79.79,0,0,1-.59-.44,2.8,2.8,0,0,1-.15-1.06V3.42a2.78,2.78,0,0,1,.15-1.08.84.84,0,0,1,.58-.43,7.17,7.17,0,0,1,1.47-.14V.93h-4.86l-5.84,14.21h0L94.93.93h-5.1v.84a7.2,7.2,0,0,1,1.48.14.84.84,0,0,1,.58.43A2.82,2.82,0,0,1,92,3.42V17.66a2.18,2.18,0,0,1-.24,1.23,1.48,1.48,0,0,1-1.12.3h-.84V20h5.82v-.84H94.58a3,3,0,0,1-1-.12.53.53,0,0,1-.37-.4,4.51,4.51,0,0,1-.08-1V3.53h.06L99.7,19.28h.53l6.42-15.75h.06v14A2.91,2.91,0,0,1,106.58,18.61Z" style="fill:#9d2235"/><path d="M120,6.14A5.92,5.92,0,0,0,115.25,8a7.9,7.9,0,0,0-1.56,5.31q0,7.08,6.28,7.09t6.31-7.12Q126.28,6.14,120,6.14Zm0,13.28q-3.61,0-3.62-6.16a9.49,9.49,0,0,1,.9-4.62A2.9,2.9,0,0,1,120,7.06c2.41,0,3.62,2.11,3.62,6.31C123.59,17.41,122.39,19.42,120,19.42Z" style="fill:#9d2235"/><path d="M142.9,20v-.84a5.17,5.17,0,0,1-1.33-.12.7.7,0,0,1-.52-.41,3.15,3.15,0,0,1-.12-1V6.31h-.81l-3.5.52v.84h1a.8.8,0,0,1,.7.26,2,2,0,0,1,.17,1l0,7.82A4.25,4.25,0,0,1,135,19a2.34,2.34,0,0,1-2-.87,3.72,3.72,0,0,1-.65-2.31V6.31h-.81l-3.51.52v.84h1a.77.77,0,0,1,.69.26,1.93,1.93,0,0,1,.18,1v7.3q0,4.14,3.84,4.14A5.7,5.7,0,0,0,138.44,18V18h.09v2Z" style="fill:#9d2235"/><path d="M151.68,19.19a6.21,6.21,0,0,1-1.27-.09.61.61,0,0,1-.49-.39,3,3,0,0,1-.12-1V9.61a6.59,6.59,0,0,1,1.51-1.52,3.28,3.28,0,0,1,1.91-.54,2.39,2.39,0,0,1,2,.86,3.57,3.57,0,0,1,.65,2.24v7a3.28,3.28,0,0,1-.11,1,.71.71,0,0,1-.5.39,5.54,5.54,0,0,1-1.3.1V20h6.34v-.84a5.34,5.34,0,0,1-1.36-.12.69.69,0,0,1-.52-.41,3.15,3.15,0,0,1-.12-1v-7.3c0-2.78-1.3-4.16-3.9-4.16a5.63,5.63,0,0,0-2.58.56,6.81,6.81,0,0,0-2.11,1.72h0V6.31h-.81l-3.42.58v.87h1a.77.77,0,0,1,.66.24,1.89,1.89,0,0,1,.18,1v8.63a3.42,3.42,0,0,1-.11,1,.64.64,0,0,1-.5.4,5.4,5.4,0,0,1-1.36.12V20h6.33Z" style="fill:#9d2235"/><path d="M163.23,17.31a2.9,2.9,0,0,0,.82,2.34,3,3,0,0,0,2,.7,3.85,3.85,0,0,0,1.67-.32,10.09,10.09,0,0,0,1.52-1l-.32-.69a4.65,4.65,0,0,1-.84.48,2.45,2.45,0,0,1-1,.21,1.23,1.23,0,0,1-1.08-.5,3,3,0,0,1-.36-1.69V7.41h3.21V6.48h-3.21V2.08h-.84c-.49,2.76-1.73,4.25-3.74,4.46v.87h2.12Z" style="fill:#9d2235"/><path d="M173.45,13.92a4.35,4.35,0,0,0-2.06,3.53,2.5,2.5,0,0,0,1,2.16,4.27,4.27,0,0,0,2.59.74,5.23,5.23,0,0,0,2.26-.48,9.61,9.61,0,0,0,2.08-1.4,2.07,2.07,0,0,0,.54,1.5,2.11,2.11,0,0,0,1.31.35,4.84,4.84,0,0,0,1.51-.2,5.89,5.89,0,0,0,1.13-.55l-.2-.73a2,2,0,0,1-.81.21.85.85,0,0,1-.8-.42,3.42,3.42,0,0,1-.25-1.55V10.22a3.94,3.94,0,0,0-1-3.13,4.86,4.86,0,0,0-3.24-.9,7.72,7.72,0,0,0-2.94.5A4.06,4.06,0,0,0,172.74,8a2.7,2.7,0,0,0-.6,1.68,1.61,1.61,0,0,0,.39,1.13,1.41,1.41,0,0,0,1.06.4,1.28,1.28,0,0,0,1-.36,1.3,1.3,0,0,0,.35-1,1.06,1.06,0,0,0-.16-.65,2.18,2.18,0,0,0-.43-.43.62.62,0,0,1-.28-.42c0-.25.27-.51.81-.76a4.31,4.31,0,0,1,1.83-.37,2.53,2.53,0,0,1,2,.72,3.46,3.46,0,0,1,.59,2.2v1.68A13.66,13.66,0,0,0,173.45,13.92Zm5.87,3.59a8.76,8.76,0,0,1-1.52.93,3.62,3.62,0,0,1-1.55.35,2.48,2.48,0,0,1-1.68-.51,1.94,1.94,0,0,1-.57-1.52,3,3,0,0,1,1.31-2.48,10.73,10.73,0,0,1,4-1.54Z" style="fill:#9d2235"/><path d="M192.25,19.19a6,6,0,0,1-1.35-.1.65.65,0,0,1-.5-.41,3.16,3.16,0,0,1-.12-1.05V6.31h-.81l-3.5.58v.87h1c.35,0,.58.08.68.24a2,2,0,0,1,.16,1v8.63a3.51,3.51,0,0,1-.1,1,.68.68,0,0,1-.51.4,5.34,5.34,0,0,1-1.36.12V20h6.43Z" style="fill:#9d2235"/><path d="M189,3.76a1.54,1.54,0,0,0,1.14-.45,1.49,1.49,0,0,0,.45-1.11A1.63,1.63,0,0,0,190.11,1a1.67,1.67,0,0,0-2.3,0,1.61,1.61,0,0,0-.45,1.16,1.49,1.49,0,0,0,.45,1.11A1.53,1.53,0,0,0,189,3.76Z" style="fill:#9d2235"/><path d="M207.78,18.66a3.15,3.15,0,0,1-.12-1v-7.3c0-2.78-1.3-4.16-3.91-4.16a5.61,5.61,0,0,0-2.57.56,6.81,6.81,0,0,0-2.11,1.72h0V6.31h-.81l-3.42.58v.87h1a.79.79,0,0,1,.67.24,2,2,0,0,1,.17,1v8.63a3.51,3.51,0,0,1-.1,1,.66.66,0,0,1-.5.4,5.4,5.4,0,0,1-1.36.12V20H201v-.84a6.21,6.21,0,0,1-1.27-.09.61.61,0,0,1-.49-.39,3,3,0,0,1-.12-1V9.61a6.59,6.59,0,0,1,1.51-1.52,3.28,3.28,0,0,1,1.91-.54,2.4,2.4,0,0,1,2,.86,3.63,3.63,0,0,1,.65,2.24v7a2.93,2.93,0,0,1-.12,1,.67.67,0,0,1-.49.39,5.54,5.54,0,0,1-1.3.1V20h6.34v-.84a5.34,5.34,0,0,1-1.36-.12A.69.69,0,0,1,207.78,18.66Z" style="fill:#9d2235"/><path d="M228.92,10.48a16.68,16.68,0,0,0-2.56-1.33L225,8.57A8,8,0,0,1,222.48,7a3,3,0,0,1-.81-2.2,3.11,3.11,0,0,1,.91-2.44A3.53,3.53,0,0,1,225,1.56,3.83,3.83,0,0,1,228,2.72a5.65,5.65,0,0,1,1.36,3.07h.75L229.8.67h-.63a1.82,1.82,0,0,1-.21.53.36.36,0,0,1-.34.19,2.6,2.6,0,0,1-.73-.2A6.63,6.63,0,0,0,225,.58a6.72,6.72,0,0,0-4.23,1.27,4.41,4.41,0,0,0-1.65,3.71,4.5,4.5,0,0,0,1.25,3.35A11.23,11.23,0,0,0,224,11.17l1.33.55a7.42,7.42,0,0,1,2.52,1.65,3.29,3.29,0,0,1,.81,2.26,3.61,3.61,0,0,1-3.88,3.76A4.59,4.59,0,0,1,221.29,18a6.46,6.46,0,0,1-1.67-3.48h-.76l.38,5.79H220a1,1,0,0,1,.19-.52.6.6,0,0,1,.48-.2,2.3,2.3,0,0,1,.81.23,14.16,14.16,0,0,0,1.53.45,9.13,9.13,0,0,0,1.83.16,7.09,7.09,0,0,0,4.73-1.48,5,5,0,0,0,1.75-4,4.92,4.92,0,0,0-.67-2.65A5.34,5.34,0,0,0,228.92,10.48Z" style="fill:#9d2235"/><path d="M240.93,19.19c-2.78,0-4.17-2-4.17-6.14,0-2.18.37-3.72,1.1-4.63a3.75,3.75,0,0,1,3.07-1.36,3.88,3.88,0,0,1,1.52.26c.4.18.59.39.59.64a.82.82,0,0,1-.2.48,3.14,3.14,0,0,0-.3.5,1.44,1.44,0,0,0-.1.58,1.42,1.42,0,0,0,.37,1,1.46,1.46,0,0,0,1.1.39,1.37,1.37,0,0,0,1.1-.43,1.77,1.77,0,0,0,.38-1.19A2.62,2.62,0,0,0,244,7a6.64,6.64,0,0,0-3.48-.83,6,6,0,0,0-4.87,2A7.94,7.94,0,0,0,234,13.37a7.53,7.53,0,0,0,1.62,5.11,5.83,5.83,0,0,0,4.66,1.87A5.41,5.41,0,0,0,244,19.28,5.18,5.18,0,0,0,245.56,17l-.69-.41A4,4,0,0,1,240.93,19.19Z" style="fill:#9d2235"/><path d="M260.35,18.66a3.15,3.15,0,0,1-.12-1v-7.3c0-2.78-1.3-4.16-3.91-4.16a5.68,5.68,0,0,0-2.54.53,6.18,6.18,0,0,0-2,1.64h-.09V0h-.81l-3.47.58v.87h1a.79.79,0,0,1,.67.24,2,2,0,0,1,.17,1V17.63a3.51,3.51,0,0,1-.1,1,.68.68,0,0,1-.51.4,5.34,5.34,0,0,1-1.36.12V20h6.34v-.84a4.92,4.92,0,0,1-1.29-.12.68.68,0,0,1-.5-.4,2.81,2.81,0,0,1-.12-1v-8a5.58,5.58,0,0,1,1.52-1.6,3.39,3.39,0,0,1,1.9-.55,2.45,2.45,0,0,1,2.07.86,3.63,3.63,0,0,1,.65,2.24v7a2.81,2.81,0,0,1-.12,1,.68.68,0,0,1-.5.4,4.87,4.87,0,0,1-1.29.12V20h6.34v-.84a5.34,5.34,0,0,1-1.36-.12A.69.69,0,0,1,260.35,18.66Z" style="fill:#9d2235"/><path d="M270.28,6.14A5.91,5.91,0,0,0,265.54,8,7.85,7.85,0,0,0,264,13.26q0,7.08,6.28,7.09t6.31-7.12Q276.56,6.14,270.28,6.14Zm0,13.28q-3.61,0-3.62-6.16a9.49,9.49,0,0,1,.9-4.62,2.92,2.92,0,0,1,2.69-1.58c2.41,0,3.62,2.11,3.62,6.31C273.87,17.41,272.67,19.42,270.28,19.42Z" style="fill:#9d2235"/><path d="M285.59,6.14A5.94,5.94,0,0,0,280.84,8a7.9,7.9,0,0,0-1.56,5.31q0,7.08,6.28,7.09t6.31-7.12Q291.87,6.14,285.59,6.14Zm0,13.28q-3.61,0-3.62-6.16a9.49,9.49,0,0,1,.9-4.62,2.92,2.92,0,0,1,2.69-1.58c2.41,0,3.62,2.11,3.62,6.31C289.18,17.41,288,19.42,285.59,19.42Z" style="fill:#9d2235"/><path d="M298.67,19.07a.69.69,0,0,1-.52-.41,3.15,3.15,0,0,1-.12-1V0h-.81l-3.5.58v.87h1a.83.83,0,0,1,.7.24,2,2,0,0,1,.17,1V17.63a3.53,3.53,0,0,1-.11,1,.72.72,0,0,1-.52.41,5.49,5.49,0,0,1-1.37.12V20H300v-.84A5.17,5.17,0,0,1,298.67,19.07Z" style="fill:#9d2235"/></svg>